<svg id="Capa_1" enable-background="new 0 0 512 512" height="512" viewBox="0 0 512 512" width="512" xmlns="http://www.w3.org/2000/svg"><g><g><path d="m512 75.191c0-13.768-11.124-24.929-24.848-24.929h-77.736l-15.207 27.563h-215.99c-13.723 0-24.848 11.161-24.848 24.929v85.595h190.409c13.723 0 24.848 11.161 24.848 24.929v127.935h118.483c13.746 0 24.888-11.143 24.888-24.888z" fill="#fff59b"/></g><g fill="#020288"><path d="m343.78 178.349h-210.085l-12.356-22.395c-1.76-3.188-5.114-5.169-8.756-5.169h-77.735c-19.215.001-34.848 15.67-34.848 34.931v241.134c0 19.237 15.651 34.889 34.888 34.889h308.852c19.237 0 34.888-15.651 34.888-34.889v-213.572c0-19.26-15.633-34.929-34.848-34.929zm14.848 248.5c0 8.21-6.679 14.889-14.888 14.889h-308.852c-8.209 0-14.888-6.679-14.888-14.889v-241.133c0-8.232 6.661-14.93 14.848-14.93h71.832l12.355 22.395c1.76 3.188 5.114 5.169 8.756 5.169h215.989c8.187 0 14.848 6.697 14.848 14.929z"/><path d="m238.25 294.854h-4.191v-11.495c0-24.27-19.746-44.016-44.016-44.016-24.271 0-44.016 19.745-44.016 44.016v11.495h-4.191c-5.523 0-10 4.477-10 10v88.24c0 5.522 4.477 10 10 10h96.414c5.523 0 10-4.478 10-10v-88.24c0-5.522-4.477-10-10-10zm-72.223-11.495c0-13.242 10.773-24.016 24.016-24.016s24.016 10.773 24.016 24.016v11.495h-48.032zm62.223 99.736h-76.414v-68.24h76.414z"/><path d="m197.139 334.175h-14.19c-5.523 0-10 4.478-10 10 0 4.512 2.989 8.326 7.095 9.571v.029c0 5.522 4.477 10 10 10s10-4.478 10-10v-.029c4.106-1.245 7.095-5.059 7.095-9.571 0-5.523-4.477-10-10-10z"/></g></g></svg>