<svg id="Capa_1" enable-background="new 0 0 512 512" height="512" viewBox="0 0 512 512" width="512" xmlns="http://www.w3.org/2000/svg"><g><g fill="#020288"><path d="m410.024 240.659c5.523 0 10-4.478 10-10v-154.98c0-6.979-2.915-13.725-7.997-18.51l-50.646-47.662c-6.515-6.131-15.029-9.507-23.974-9.507h-295.211c-14.015 0-25.417 11.402-25.417 25.417v461.167c0 14.015 11.402 25.416 25.416 25.416h352.412c14.015 0 25.417-11.401 25.417-25.416v-85.031c0-5.522-4.477-10-10-10s-10 4.478-10 10v85.031c0 2.986-2.43 5.416-5.417 5.416h-40.957v-125.511c0-5.522-4.477-10-10-10s-10 4.478-10 10v125.511h-230.497v-159.772h232.844c5.523 0 10-4.478 10-10s-4.477-10-10-10h-242.844c-5.523 0-10 4.478-10 10v169.772h-40.957c-2.987 0-5.417-2.43-5.417-5.416v-461.167c0-2.987 2.43-5.417 5.417-5.417h60.958v94.684c0 5.522 4.477 10 10 10h210.496c5.523 0 10-4.478 10-10v-94.684h3.757c3.831 0 7.478 1.446 10.267 4.071l50.645 47.661c1.083 1.021 1.705 2.459 1.705 3.946v154.98c0 5.524 4.477 10.001 10 10.001zm-96.374-135.975h-190.496v-84.684h190.496z"/><path d="m283.932 86.64c5.523 0 10-4.478 10-10v-28.596c0-5.522-4.477-10-10-10s-10 4.478-10 10v28.596c0 5.522 4.477 10 10 10z"/><path d="m298.487 389.519c0-5.522-4.477-10-10-10h-140.17c-5.523 0-10 4.478-10 10s4.477 10 10 10h140.17c5.523 0 10-4.478 10-10z"/><path d="m174.359 424.71c-5.523 0-10 4.478-10 10s4.477 10 10 10h88.085c5.523 0 10-4.478 10-10s-4.477-10-10-10z"/></g><g><g><path d="m461.748 212.109h-103.446c0 18.257-15.016 33.11-33.473 33.11v100.262c0 26.344 15.597 50.246 39.866 61.094l45.33 20.263 45.33-20.263c24.269-10.849 39.866-34.751 39.866-61.094v-100.262c-18.458 0-33.473-14.853-33.473-33.11z" fill="#b2f0fb"/></g><g><g><path d="m406.903 346.795c-2.515 0-4.954-.949-6.813-2.681l-15.963-14.862c-4.042-3.764-4.269-10.092-.505-14.134 3.763-4.041 10.091-4.268 14.133-.505l7.527 7.008 15.62-22.439c3.154-4.533 9.386-5.651 13.92-2.494 4.533 3.154 5.65 9.387 2.495 13.92l-22.205 31.9c-1.656 2.379-4.262 3.922-7.145 4.23-.355.038-.71.057-1.064.057z" fill="#020288"/></g></g></g></g></svg>