<svg id="Capa_1" enable-background="new 0 0 512 512" height="512" viewBox="0 0 512 512" width="512" xmlns="http://www.w3.org/2000/svg"><g><g fill="#020288"><path d="m476.566 44.91h-441.132c-19.538 0-35.434 16.01-35.434 35.688v350.805c0 19.678 15.896 35.688 35.434 35.688h441.133c19.538 0 35.434-16.01 35.434-35.688v-350.805c-.001-19.678-15.897-35.688-35.435-35.688zm-456.566 35.688c0-8.65 6.924-15.688 15.434-15.688h441.133c8.51 0 15.434 7.037 15.434 15.688v39.766h-472.001zm472 350.804c0 8.65-6.924 15.688-15.434 15.688h-441.132c-8.51 0-15.434-7.037-15.434-15.688v-291.039h472z"/><path d="m82.894 82.637h-13.788c-5.522 0-10 4.478-10 10s4.478 10 10 10h13.787c5.522 0 10-4.478 10-10 .001-5.523-4.477-10-9.999-10z"/><path d="m139.957 82.637h-13.787c-5.522 0-10 4.478-10 10s4.478 10 10 10h13.787c5.523 0 10-4.478 10-10 0-5.523-4.477-10-10-10z"/><path d="m197.021 82.637h-13.787c-5.523 0-10 4.478-10 10s4.477 10 10 10h13.787c5.522 0 10-4.478 10-10 0-5.523-4.477-10-10-10z"/><path d="m442.894 82.637h-48.937c-5.522 0-10 4.478-10 10s4.478 10 10 10h48.937c5.522 0 10-4.478 10-10 0-5.523-4.478-10-10-10z"/><path d="m329.117 279.919c22.396 0 40.615-17.108 40.615-38.138 0-5.522-4.477-10-10-10-5.522 0-10 4.478-10 10 0 10.001-9.248 18.138-20.615 18.138-5.522 0-10 4.478-10 10s4.478 10 10 10z"/><path d="m329.117 375.745c11.367 0 20.615 8.137 20.615 18.138 0 5.522 4.478 10 10 10 5.523 0 10-4.478 10-10 0-21.029-18.22-38.138-40.615-38.138-5.522 0-10 4.478-10 10 0 5.523 4.478 10 10 10z"/><path d="m347.2 307.688c-5.522 0-10 4.478-10 10s4.478 10 10 10h17.539c5.522 0 10-4.478 10-10s-4.478-10-10-10z"/><path d="m182.883 279.919c5.523 0 10-4.478 10-10s-4.477-10-10-10c-11.367 0-20.615-8.137-20.615-18.138 0-5.522-4.478-10-10-10s-10 4.478-10 10c0 21.029 18.219 38.138 40.615 38.138z"/><path d="m182.883 355.745c-22.395 0-40.615 17.108-40.615 38.138 0 5.522 4.478 10 10 10s10-4.478 10-10c0-10.001 9.248-18.138 20.615-18.138 5.523 0 10-4.477 10-10 0-5.522-4.478-10-10-10z"/><path d="m147.261 327.688h17.539c5.522 0 10-4.478 10-10s-4.478-10-10-10h-17.539c-5.522 0-10 4.478-10 10s4.477 10 10 10z"/></g><g><path d="m213.938 234.573c-2.594-5.766-4.038-12.162-4.038-18.895 0-25.46 20.64-46.1 46.1-46.1s46.1 20.639 46.1 46.1c0 6.73-1.442 13.122-4.034 18.886" fill="#ffbdbc"/><g><ellipse cx="256" cy="319.423" fill="#ffbdbc" rx="96.715" ry="98.452"/></g></g></g></svg>