<svg id="Capa_1" enable-background="new 0 0 512 512" height="512" viewBox="0 0 512 512" width="512" xmlns="http://www.w3.org/2000/svg"><g><g fill="#020288"><path d="m395.767 355.894c-5.523 0-10 4.478-10 10v57.063c0 5.522 4.477 10 10 10 5.522 0 10-4.478 10-10v-57.063c0-5.523-4.478-10-10-10z"/><path d="m395.767 264.447c-5.523 0-10 4.478-10 10v51.957c0 5.522 4.477 10 10 10 5.522 0 10-4.478 10-10v-51.957c0-5.522-4.478-10-10-10z"/><path d="m395.767 181.627h-27.327v-58.962c0-67.638-55.027-122.665-122.665-122.665h-.001c-67.638 0-122.665 55.027-122.665 122.665v58.962h-27.326c-5.523 0-10 4.478-10 10v310.373c0 5.522 4.477 10 10 10h299.984c5.522 0 10-4.478 10-10v-45.681c0-5.522-4.478-10-10-10-5.523 0-10 4.478-10 10v35.681h-279.984v-290.373h279.984v31.543c0 5.522 4.477 10 10 10 5.522 0 10-4.478 10-10v-41.543c0-5.522-4.478-10-10-10zm-91.328 0h-117.33v-58.962c0-32.348 26.317-58.665 58.665-58.665s58.665 26.317 58.665 58.665zm20 0v-58.962c0-43.376-35.289-78.665-78.665-78.665s-78.665 35.289-78.665 78.665v58.962h-24v-58.962c0-56.609 46.056-102.665 102.666-102.665s102.665 46.056 102.665 102.665v58.962z"/><path d="m245.774 398.819c5.523 0 10-4.478 10-10v-16.425c12.166-4.167 20.937-15.717 20.937-29.277 0-17.059-13.878-30.936-30.937-30.936-17.058 0-30.936 13.878-30.936 30.936 0 13.56 8.77 25.11 20.936 29.277v16.425c0 5.523 4.477 10 10 10zm0-66.638c6.03 0 10.937 4.906 10.937 10.936s-4.906 10.936-10.937 10.936-10.936-4.905-10.936-10.936c0-6.03 4.906-10.936 10.936-10.936z"/></g><g><g><path d="m303.732 412.68h122.485v54.063h-122.485z" fill="#b2f0fb"/></g><g><path d="m303.732 319.782h122.485v54.063h-122.485z" fill="#b2f0fb"/></g><g><path d="m303.732 226.885h122.485v54.063h-122.485z" fill="#b2f0fb"/></g></g></g></svg>