<svg id="Capa_1" enable-background="new 0 0 512 512" height="512" viewBox="0 0 512 512" width="512" xmlns="http://www.w3.org/2000/svg"><g><g><path d="m475.715 96.817h-116.208v-42.233c0-14.407-11.721-26.129-26.129-26.129h-154.756c-14.408 0-26.129 11.722-26.129 26.129v42.233h-116.208c-20.008 0-36.285 16.278-36.285 36.285v314.158c0 20.008 16.277 36.285 36.285 36.285h439.43c20.008 0 36.285-16.277 36.285-36.285v-314.158c0-20.007-16.277-36.285-36.285-36.285zm-303.222-42.233c0-3.38 2.749-6.129 6.129-6.129h154.757c3.379 0 6.129 2.749 6.129 6.129v42.233h-167.015zm303.222 408.961h-439.43c-8.979 0-16.285-7.306-16.285-16.285v-171.279c11.099 10.283 25.935 16.576 42.211 16.576h11.091v26.673c0 5.522 4.477 10 10 10h42.443c5.523 0 10-4.478 10-10v-26.673h41.624c5.523 0 10-4.477 10-10 0-5.522-4.477-10-10-10h-41.624v-26.672c0-5.522-4.477-10-10-10h-42.442c-5.523 0-10 4.478-10 10v26.672h-11.092c-23.275.001-42.211-18.977-42.211-42.304v-97.15c0-8.979 7.306-16.285 16.285-16.285h439.43c8.979 0 16.285 7.306 16.285 16.285v97.15c0 23.327-18.936 42.305-42.211 42.305h-11.091v-26.672c0-5.522-4.477-10-10-10h-42.443c-5.523 0-10 4.478-10 10v26.672h-41.491c-5.523 0-10 4.478-10 10 0 5.523 4.477 10 10 10h41.491v26.673c0 5.522 4.477 10 10 10h42.443c5.523 0 10-4.478 10-10v-26.673h11.091c16.276 0 31.113-6.293 42.211-16.576v171.278c0 8.979-7.306 16.285-16.285 16.285zm-382.412-154.315v-53.345h22.443v53.345zm325.394-53.344v53.345h-22.443v-53.345z" fill="#020288"/></g><g><g><path d="m309.739 168.544h-107.478c0 19.002-15.601 34.462-34.778 34.462v104.356c0 27.419 16.205 52.297 41.42 63.589l47.097 21.091 47.096-21.091c25.215-11.292 41.42-36.17 41.42-63.589v-104.356c-19.176 0-34.777-15.459-34.777-34.462z" fill="#e2c4ff"/></g><g><path d="m252.757 308.32c-2.518 0-4.959-.951-6.82-2.688l-16.585-15.469c-4.039-3.767-4.259-10.095-.492-14.133 3.768-4.039 10.095-4.259 14.134-.492l8.141 7.593 16.481-23.72c3.152-4.536 9.384-5.657 13.918-2.506 4.536 3.151 5.658 9.383 2.506 13.918l-23.07 33.202c-1.656 2.383-4.265 3.929-7.15 4.237-.355.04-.71.058-1.063.058z" fill="#020288"/></g></g></g></svg>