<svg id="Capa_1" enable-background="new 0 0 512 512" height="512" viewBox="0 0 512 512" width="512" xmlns="http://www.w3.org/2000/svg"><g><g><path d="m428.396 32.467h-34.967v-22.467c0-5.523-4.477-10-10-10h-331.004c-17 0-30.831 13.831-30.831 30.832v450.336c0 17.001 13.831 30.832 30.831 30.832h331.004c5.523 0 10-4.478 10-10v-65.298c0-5.522-4.477-10-10-10s-10 4.478-10 10v55.298h-279.241v-472h279.241v242.574c0 5.523 4.477 10 10 10s10-4.477 10-10v-55.759h34.967c5.523 0 10-4.477 10-10v-154.348c0-5.523-4.477-10-10-10zm-354.208 459.533h-21.763c-5.973 0-10.832-4.859-10.832-10.832v-450.336c0-5.973 4.859-10.832 10.832-10.832h21.763zm319.241-388.084h24.967v31.449h-24.967zm24.967-51.449v31.449h-24.967v-31.449zm0 134.348h-24.967v-31.45h24.967z" fill="#020288"/></g><g><g><ellipse cx="383.429" cy="351.81" fill="#fff59b" rx="106.978" ry="106.925"/></g><g fill="#020288"><path d="m428.715 317.847h-3.331v-2.413c0-23.126-18.821-41.939-41.955-41.939s-41.955 18.813-41.955 41.939v2.413h-3.331c-5.523 0-10 4.477-10 10v82.853c0 5.522 4.477 10 10 10h90.572c5.523 0 10-4.478 10-10v-82.853c0-5.523-4.477-10-10-10zm-67.241-2.413c0-12.098 9.849-21.939 21.955-21.939s21.955 9.842 21.955 21.939v2.413h-43.91zm57.241 85.266h-70.572v-62.853h70.572z"/><path d="m390.095 354.767h-13.331c-5.523 0-10 4.478-10 10 0 4.357 2.787 8.063 6.675 9.433.22 5.328 4.608 9.581 9.991 9.581 5.382 0 9.771-4.253 9.991-9.581 3.888-1.371 6.675-5.076 6.675-9.433-.001-5.523-4.478-10-10.001-10z"/></g></g></g></svg>