<svg id="Capa_1" enable-background="new 0 0 512 512" height="512" viewBox="0 0 512 512" width="512" xmlns="http://www.w3.org/2000/svg"><g><g><path d="m482.282 161.107c-.005-.005-.011-.009-.016-.014-.03-.026-.059-.052-.089-.077-6.512-5.669-14.833-8.79-23.446-8.79h-104.253c-5.522 0-10 4.477-10 10 0 5.522 4.478 10 10 10h102.842l-185.174 175.056c-4.53 3.815-10.255 5.913-16.146 5.913s-11.615-2.099-16.145-5.913l-185.175-175.056h86.957c5.522 0 10-4.478 10-10 0-5.523-4.478-10-10-10h-88.367c-8.615 0-16.937 3.122-23.435 8.781-.082.07-.163.141-.243.214-7.775 6.868-12.23 16.763-12.23 27.18v287.425c0 9.824 4.032 19.329 11.068 26.119.108.108.219.213.331.316 6.68 6.283 15.374 9.741 24.51 9.741h405.459c9.131 0 17.82-3.453 24.497-9.729.122-.111.242-.225.36-.343 7.026-6.788 11.052-16.286 11.052-26.102v-287.428c.001-10.479-4.508-20.431-12.357-27.293zm-186.055 190.932 177.799-168.084c.403 1.431.614 2.925.614 4.445v287.425c0 1.663-.242 3.281-.709 4.815zm-15.301 13.616 174.587 126.345h-399.026l174.587-126.345c7.363 4.893 16.035 7.541 24.926 7.541 8.89-.001 17.563-2.649 24.926-7.541zm-243.566 110.17v-287.425c0-1.52.21-3.014.614-4.445l177.799 168.084-177.704 128.602c-.467-1.535-.709-3.153-.709-4.816z" fill="#020288"/></g><g><g><ellipse cx="256" cy="133.609" fill="#fff59b" rx="133.674" ry="133.609"/></g><g fill="#020288"><path d="m312.588 93.665h-6.658v-5.511c0-27.52-22.398-49.91-49.93-49.91-27.531 0-49.93 22.39-49.93 49.91v5.511h-6.658c-5.522 0-10 4.478-10 10v103.53c0 5.523 4.478 10 10 10h113.176c5.523 0 10-4.477 10-10v-103.53c0-5.522-4.478-10-10-10zm-86.518-5.511c0-16.492 13.427-29.91 29.93-29.91s29.93 13.418 29.93 29.91v5.511h-59.86zm76.518 109.041h-93.176v-83.53h93.176z"/><path d="m264.329 139.799h-16.658c-5.522 0-10 4.478-10 10 0 4.953 3.602 9.065 8.329 9.86v1.402c0 5.523 4.477 10 10 10 5.522 0 10-4.477 10-10v-1.402c4.727-.796 8.329-4.907 8.329-9.86 0-5.523-4.477-10-10-10z"/></g></g></g></svg>