<svg id="Capa_1" enable-background="new 0 0 512 512" height="512" viewBox="0 0 512 512" width="512" xmlns="http://www.w3.org/2000/svg"><g><g><path d="m314.628 215.546v-112.63c-24.806 0-44.916-20.101-44.916-44.896 0-.251.003-.501.007-.75h-107.346c.004.25.007.5.007.75 0 24.795-20.109 44.896-44.916 44.896v112.631h197.164z" fill="#a4fcc4"/><g><ellipse cx="102.668" cy="358.773" fill="#a4fcc4" rx="23.246" ry="23.227"/></g></g><g><g fill="#020288"><path d="m488.461 373.546h-9.041v-7.746c0-27.278-19.717-50.037-45.643-54.762v-69.952c0-19.597-15.953-35.539-35.56-35.539h-29.124v-173.495c1.496-7.632-.271-15.104-5.035-21.171-5.351-6.814-13.993-10.881-23.116-10.881h-249.791c-17.081 0-30.977 13.896-30.977 30.978v174.569h-11.075c-19.608 0-35.56 15.942-35.56 35.539v235.374c0 19.597 15.952 35.54 35.56 35.54h439.363c5.523 0 10-4.478 10-10v-118.454c-.001-5.523-4.478-10-10.001-10zm-29.041-7.746v7.746h-71.286v-7.746c0-19.665 15.989-35.663 35.643-35.663s35.643 15.998 35.643 35.663zm-45.643-124.714v69.952c-22.576 4.115-40.444 21.904-44.684 44.445v-129.936h29.124c8.58 0 15.56 6.971 15.56 15.539zm-333.603-210.108c0-6.053 4.924-10.978 10.977-10.978h249.791c3.035 0 5.796 1.209 7.387 3.234 1.195 1.521 1.548 3.329 1.049 5.373-.189.776-.285 1.571-.285 2.37v174.569h-268.919zm-46.635 279.619h123.983v96.353h-123.983zm0 165.863v-49.51h133.983c5.523 0 10-4.478 10-10v-116.353c0-5.523-4.477-10-10-10h-133.983v-49.511c0-8.568 6.98-15.539 15.56-15.539h299.994v266.453h-299.994c-8.58 0-15.56-6.972-15.56-15.54zm444.922 15.54h-109.368v-98.454h109.369v98.454z"/><path d="m433.298 426.33h-19.042c-5.523 0-10 4.477-10 10 0 5.362 4.221 9.738 9.521 9.988v2.898c0 5.522 4.477 10 10 10s10-4.478 10-10v-2.898c5.3-.25 9.521-4.626 9.521-9.988 0-5.522-4.477-10-10-10z"/></g></g></g></svg>