<svg id="Capa_1" enable-background="new 0 0 512 512" height="512" viewBox="0 0 512 512" width="512" xmlns="http://www.w3.org/2000/svg"><g><g><path d="m479.687 223.166c-.339-8.37-1.876-18.398-4.569-29.807-11.206-47.465-35.998-89.963-71.695-122.901-34.083-31.448-78.071-54.285-127.223-66.053-5.975-1.993-12.262-3.429-18.869-4.316-.069-.01-1.285-.089-1.331-.089s-1.249.078-1.331.089c-6.607.887-12.893 2.323-18.869 4.316-49.153 11.768-93.14 34.605-127.223 66.053-35.697 32.938-60.489 75.437-71.695 122.901-2.693 11.408-4.23 21.436-4.569 29.807-.168 4.174 2.276 8.014 6.13 9.627 3.854 1.615 8.304.662 11.16-2.387 11.328-12.094 27.867-19.029 45.375-19.029 18.132 0 36.23 7.391 47.233 19.287 1.917 2.072 4.572 3.171 7.289 3.171 1.207 0 2.426-.217 3.598-.661 1.858-.704 3.417-1.936 4.537-3.485 11.306-11.652 27.526-18.312 44.69-18.312 16.485 0 32.522 6.123 43.675 16.53v145.694c0 5.522 4.478 10 10 10 5.523 0 10-4.478 10-10v-145.694c11.153-10.407 27.189-16.53 43.675-16.53 17.072 0 33.209 6.589 44.507 18.124 1.124 1.651 2.74 2.965 4.688 3.711 1.164.446 2.376.662 3.576.662 2.735 0 5.414-1.124 7.344-3.21 11.003-11.896 29.102-19.287 47.233-19.287 17.508 0 34.047 6.936 45.375 19.029 2.854 3.048 7.306 4.002 11.16 2.387 3.853-1.613 6.297-5.453 6.129-9.627zm-424.047-22.127c.225-1.013.46-2.041.706-3.084 16.272-68.923 63.437-124.301 130.115-155.387-4.117 5.869-7.945 12.345-11.493 19.436-19.287 38.559-31.375 88.299-34.622 141.743-13.201-7.919-29.114-12.37-45.369-12.37-13.955 0-27.483 3.396-39.337 9.662zm104.828 1.389c3.296-49.809 14.579-95.875 32.388-131.477 13.37-26.725 30.442-42.464 53.145-48.746v180.963c-12.878-7.557-28.163-11.792-43.675-11.792-14.96.001-29.422 3.901-41.858 11.052zm149.207-11.051c-15.512 0-30.797 4.235-43.675 11.792v-180.963c22.702 6.282 39.774 22.021 53.145 48.746v-.001c17.809 35.603 29.092 81.669 32.388 131.478-12.437-7.152-26.899-11.052-41.858-11.052zm107.347 0c-16.254 0-32.168 4.451-45.369 12.37-3.248-53.444-15.335-103.184-34.622-141.743 0 0 0 0 0-.001-3.548-7.091-7.375-13.566-11.492-19.435 66.678 31.086 113.842 86.465 130.114 155.387.246 1.043.482 2.071.706 3.084-11.853-6.266-25.382-9.662-39.337-9.662z" fill="#020288"/></g><g><g><path d="m343.632 403.426c-13.982 0-25.317 11.328-25.317 25.302v14.177c0 10.195-8.299 18.49-18.5 18.49s-18.499-8.294-18.499-18.49v-104.447h-50.633v104.447c0 38.099 31.013 69.094 69.133 69.094 38.119 0 69.132-30.995 69.132-69.094v-14.177c0-13.974-11.335-25.302-25.316-25.302z" fill="#ffbdbc"/></g></g></g></svg>