<svg id="Capa_1" enable-background="new 0 0 512 512" height="512" viewBox="0 0 512 512" width="512" xmlns="http://www.w3.org/2000/svg"><g><g><path d="m372.631 283.419h17.415v-81.092c-.25.004-.5.007-.75.007-24.795 0-44.896-20.109-44.896-44.915h-241.484c0 24.806-20.101 44.915-44.896 44.915-.251 0-.501-.003-.75-.007v107.346c.25-.004.5-.007.75-.007 24.795 0 44.896 20.109 44.896 44.916h241.484c0-18.915 11.687-35.099 28.231-41.719z" fill="#a4fcc4"/></g><g fill="#020288"><path d="m234.689 247.602c-.74-.262-1.458-.517-2.155-.766v-19.663c.918.565 1.598 1.188 2.02 1.79 3.172 4.52 9.407 5.615 13.929 2.443 4.521-3.172 5.616-9.408 2.444-13.93-3.668-5.229-10.081-9.662-18.396-11.477-.14-5.4-4.562-9.735-9.996-9.735-5.523 0-10 4.478-10 10v.41c-.639.167-1.283.347-1.932.543-10.554 3.181-18.519 13.407-19.369 24.868-.845 11.389 5.182 21.268 16.123 26.43 1.207.57 2.972 1.316 5.178 2.193v24.796c-2.377-1.053-4.443-2.463-5.88-4.248-3.463-4.302-9.759-4.979-14.061-1.518-4.302 3.464-4.981 9.759-1.518 14.061 5.561 6.906 13.542 10.823 21.486 12.694.387 5.168 4.704 9.242 9.972 9.242 5.02 0 9.175-3.699 9.891-8.519 14.199-2.514 24.166-11.955 25.799-24.812 1.895-14.92-7.783-29.231-23.535-34.802zm-23.51-14.038c.105-1.418.603-2.822 1.355-4.02v8.451c-1.036-1.241-1.483-2.71-1.355-4.431zm27.204 46.321c-.384 3.025-2.448 5.326-5.849 6.669v-17.831c4.563 3.141 6.296 7.646 5.849 11.162z"/><path d="m502 273.419h-9.041v-7.747c0-27.278-19.718-50.037-45.644-54.763v-79.805c0-17.081-13.896-30.978-30.977-30.978h-385.361c-17.081.001-30.977 13.897-30.977 30.979v249.791c0 17.081 13.896 30.977 30.977 30.977h471.023c5.522 0 10-4.477 10-10v-118.454c0-5.522-4.478-10-10-10zm-29.041-7.747v7.747h-71.286v-7.747c0-19.665 15.989-35.663 35.642-35.663 19.655 0 35.644 15.998 35.644 35.663zm-452.959 115.224v-249.791c0-6.053 4.924-10.978 10.977-10.978h385.362c6.053 0 10.977 4.925 10.977 10.978v79.805c-25.926 4.726-45.642 27.484-45.642 54.762v7.747h-9.041c-5.522 0-10 4.478-10 10v108.454h-331.656c-6.053 0-10.977-4.925-10.977-10.977zm472 10.977h-109.368v-98.454h109.368z"/><path d="m446.836 326.202h-19.041c-5.522 0-10 4.478-10 10 0 5.362 4.221 9.738 9.521 9.988v2.898c0 5.522 4.478 10 10 10s10-4.478 10-10v-2.898c5.3-.25 9.521-4.627 9.521-9.988-.001-5.522-4.479-10-10.001-10z"/></g></g></svg>