<svg id="Capa_1" enable-background="new 0 0 512 512" height="512" viewBox="0 0 512 512" width="512" xmlns="http://www.w3.org/2000/svg"><g><g><path d="m494.981 258.369c-8.429-10.263-19.343-17.961-31.462-22.331 3.623-11.842 5.755-23.374 5.755-38.186 0-84.372-67.425-153.013-150.302-153.013-51.914 0-99.734 27.111-127.175 71.419-15.44-8.342-32.656-12.709-50.37-12.709-59.108 0-107.196 48.703-107.196 108.567 0 8.6.989 17.103 2.947 25.378-15.232 8.456-37.178 27.712-37.178 68.43 0 40.512 32.438 73.471 72.308 73.471h29.203c5.523 0 10-4.477 10-10s-4.477-10-10-10h-29.203c-28.843-.001-52.308-23.988-52.308-53.472 0-33.805 18.726-47.61 31.069-53.033h46.953c5.522 0 10-4.477 10-10s-4.478-10-10-10h-41.38c-1.601-6.769-2.41-13.729-2.41-20.774 0-48.836 39.116-88.567 87.196-88.567 17.3 0 34.015 5.133 48.338 14.843 2.353 1.595 5.274 2.113 8.031 1.425 2.758-.688 5.093-2.517 6.421-5.03 22.806-43.146 66.777-69.949 114.755-69.949 71.849 0 130.302 59.669 130.302 133.013 0 13.586-2.069 23.763-5.732 35.038h-42.139c-5.522 0-10 4.477-10 10s4.478 10 10 10h48.321c24.16 4.881 42.275 27.52 42.275 53.035 0 29.484-23.465 53.471-52.308 53.471h-27.714c-5.522 0-10 4.477-10 10s4.478 10 10 10h27.714c39.87 0 72.308-32.959 72.308-73.471 0-17.304-6.044-34.192-17.019-47.555z" fill="#020288"/></g><g><path d="m340.114 271.628c-46.576 0-85.463 33.272-94.665 77.583h-170.291v40.366h18.258v49.531h29.805v-13.96h33.709v13.96h29.805v-49.531h58.713c9.202 44.311 48.089 77.583 94.665 77.583 53.422 0 96.729-43.771 96.729-97.766 0-53.994-43.307-97.766-96.728-97.766zm0 141.021c-23.575 0-42.755-19.404-42.755-43.255 0-23.85 19.18-43.254 42.755-43.254 23.574 0 42.754 19.404 42.754 43.254 0 23.851-19.179 43.255-42.754 43.255z" fill="#e2c4ff"/></g></g></svg>