<svg id="Capa_1" enable-background="new 0 0 512 512" height="512" viewBox="0 0 512 512" width="512" xmlns="http://www.w3.org/2000/svg"><g><g><path d="m359.06 125.91h-206.12l14.68-70.27h176.76z" fill="#ffbdbc"/><g><path d="m386.31 256.41h-260.62l14.68-70.27h231.26z" fill="#ffbdbc"/></g><path d="m413.56 386.91h-315.12l14.67-70.27h285.78z" fill="#ffbdbc"/></g><g><path d="m473.691 432.782h-40.333l-88.719-424.826c-.968-4.635-5.054-7.956-9.789-7.956h-157.7c-4.735 0-8.821 3.321-9.789 7.956l-88.719 424.826h-40.333c-5.523 0-10 4.478-10 10v59.218c0 5.522 4.477 10 10 10h435.383c5.522 0 10-4.478 10-10v-59.218c-.001-5.522-4.478-10-10.001-10zm-288.414-412.782h141.444l86.204 412.78h-313.85zm278.414 472h-415.382v-39.218h415.383v39.218z" fill="#020288"/></g></g></svg>