<svg id="Capa_1" enable-background="new 0 0 512 512" height="512" viewBox="0 0 512 512" width="512" xmlns="http://www.w3.org/2000/svg"><g><g><path d="m439.692 346.46c39.871 0 72.308-32.959 72.308-73.472 0-17.304-6.044-34.191-17.018-47.554-8.429-10.263-19.344-17.961-31.463-22.33 3.623-11.843 5.755-23.374 5.755-38.187 0-84.372-67.425-153.014-150.301-153.014-51.914 0-99.735 27.111-127.174 71.419-15.441-8.342-32.657-12.709-50.371-12.709-59.108 0-107.196 48.703-107.196 108.567 0 8.601.989 17.104 2.947 25.379-15.233 8.457-37.179 27.711-37.179 68.43 0 40.512 32.437 73.471 72.308 73.471h50.416v50.87h-44.448c-5.523 0-10 4.477-10 10 0 5.522 4.477 10 10 10h54.447c5.523 0 10-4.478 10-10v-60.87h48.851v53.423c0 5.522 4.477 10 10 10s10-4.478 10-10v-53.423h88.851v83.423c0 5.522 4.477 10 10 10s10-4.478 10-10v-83.423h48.851v60.87c0 5.522 4.477 10 10 10h54.447c5.523 0 10-4.478 10-10 0-5.523-4.477-10-10-10h-44.447v-50.87zm-419.692-73.472c0-33.806 18.726-47.61 31.069-53.032h46.953c5.523 0 10-4.478 10-10 0-5.523-4.477-10-10-10h-41.38c-1.601-6.768-2.41-13.729-2.41-20.775 0-48.836 39.116-88.567 87.196-88.567 17.299 0 34.015 5.133 48.338 14.844 2.353 1.596 5.274 2.114 8.031 1.426 2.758-.688 5.093-2.518 6.421-5.03 22.805-43.146 66.777-69.949 114.755-69.949 71.848 0 130.301 59.67 130.301 133.014 0 13.586-2.069 23.763-5.732 35.038h-42.139c-5.523 0-10 4.477-10 10 0 5.522 4.477 10 10 10h48.319c24.162 4.877 42.278 27.516 42.278 53.032 0 29.483-23.465 53.471-52.308 53.471h-367.384c-28.843 0-52.308-23.987-52.308-53.472z" fill="#020288"/></g><g><g><ellipse cx="456.25" cy="407.33" fill="#b2f0fb" rx="40.106" ry="40.106" transform="matrix(.865 -.502 .502 .865 -142.83 284.102)"/></g><g><ellipse cx="55.75" cy="407.33" fill="#b2f0fb" rx="40.106" ry="40.106" transform="matrix(.246 -.969 .969 .246 -352.802 361.379)"/></g><g><ellipse cx="201.575" cy="429.989" fill="#b2f0fb" rx="40.106" ry="40.106" transform="matrix(.944 -.329 .329 .944 -130.298 90.308)"/></g><g><ellipse cx="310.425" cy="459.989" fill="#b2f0fb" rx="40.106" ry="40.106" transform="matrix(.13 -.992 .992 .13 -185.916 708.182)"/></g></g></g></svg>