<svg id="Capa_1" enable-background="new 0 0 512 512" height="512" viewBox="0 0 512 512" width="512" xmlns="http://www.w3.org/2000/svg"><g><g fill="#020288"><path d="m476.566 44.91h-441.132c-19.538 0-35.434 16.009-35.434 35.688v350.804c0 19.679 15.896 35.688 35.434 35.688h441.133c19.538 0 35.434-16.01 35.434-35.688v-350.804c-.001-19.679-15.897-35.688-35.435-35.688zm-456.566 35.688c0-8.651 6.924-15.688 15.434-15.688h441.133c8.51 0 15.434 7.038 15.434 15.688v39.765h-472.001zm472 350.804c0 8.65-6.924 15.688-15.434 15.688h-441.132c-8.51 0-15.434-7.038-15.434-15.688v-291.039h472z"/><path d="m82.894 82.637h-13.788c-5.522 0-10 4.477-10 10s4.478 10 10 10h13.787c5.522 0 10-4.477 10-10 .001-5.523-4.477-10-9.999-10z"/><path d="m139.957 82.637h-13.787c-5.522 0-10 4.477-10 10s4.478 10 10 10h13.787c5.523 0 10-4.477 10-10s-4.477-10-10-10z"/><path d="m197.021 82.637h-13.787c-5.523 0-10 4.477-10 10s4.477 10 10 10h13.787c5.522 0 10-4.477 10-10s-4.477-10-10-10z"/><path d="m442.894 82.637h-48.937c-5.522 0-10 4.477-10 10s4.478 10 10 10h48.937c5.522 0 10-4.477 10-10s-4.478-10-10-10z"/></g><g><path d="m376.819 274.993-14.837-7.216c-2.473-9.234-6.151-18.09-10.965-26.407l5.104-15.307c.877-2.631.19-5.531-1.769-7.491l-20.706-20.706c-1.96-1.959-4.862-2.643-7.491-1.769l-15.307 5.104c-8.319-4.817-17.173-8.492-26.407-10.965l-7.216-14.837c-1.225-2.519-3.782-4.118-6.583-4.118h-29.282c-2.801 0-5.358 1.599-6.583 4.118l-7.216 14.837c-9.234 2.473-18.088 6.149-26.407 10.965l-15.307-5.104c-2.631-.877-5.531-.191-7.491 1.769l-20.706 20.706c-1.959 1.96-2.646 4.86-1.769 7.491l5.104 15.307c-4.814 8.317-8.492 17.173-10.965 26.407l-14.837 7.216c-2.519 1.225-4.118 3.782-4.118 6.583v29.282c0 2.801 1.599 5.358 4.118 6.583l14.837 7.216c2.473 9.234 6.151 18.09 10.965 26.407l-5.104 15.307c-.877 2.629-.191 5.531 1.769 7.491l20.706 20.706c1.96 1.959 4.862 2.643 7.491 1.769l15.307-5.104c8.317 4.814 17.173 8.492 26.407 10.965l7.216 14.837c1.225 2.519 3.782 4.118 6.583 4.118h29.282c2.801 0 5.358-1.599 6.583-4.118l7.216-14.837c9.232-2.473 18.088-6.151 26.407-10.965l15.307 5.104c2.629.877 5.531.191 7.491-1.769l20.706-20.706c1.959-1.96 2.646-4.86 1.769-7.491l-5.104-15.307c4.814-8.317 8.492-17.173 10.965-26.407l14.837-7.216c2.519-1.225 4.118-3.782 4.118-6.583v-29.282c-.001-2.801-1.599-5.357-4.118-6.583zm-120.819 80.619c-32.803 0-59.395-26.592-59.395-59.395s26.592-59.395 59.395-59.395 59.395 26.592 59.395 59.395-26.592 59.395-59.395 59.395z" fill="#e2c4ff"/></g></g></svg>