<svg id="Capa_1" enable-background="new 0 0 512 512" height="512" viewBox="0 0 512 512" width="512" xmlns="http://www.w3.org/2000/svg"><g><g fill="#020288"><path d="m476.566 34.565h-441.132c-19.539 0-35.434 16.01-35.434 35.688v320.804c0 19.679 15.895 35.689 35.434 35.689h138.194v30.689h-61.905c-5.523 0-10 4.477-10 10s4.477 10 10 10h288.555c5.522 0 10-4.477 10-10s-4.478-10-10-10h-61.905v-30.689h138.194c19.538 0 35.434-16.01 35.434-35.689v-320.804c-.001-19.678-15.897-35.688-35.435-35.688zm-456.566 35.688c0-8.65 6.924-15.688 15.434-15.688h441.132c8.51 0 15.434 7.038 15.434 15.688v261.039h-472zm298.372 387.182h-124.744v-30.689h124.744zm173.628-66.378c0 8.651-6.924 15.689-15.434 15.689h-441.132c-8.51 0-15.434-7.038-15.434-15.689v-39.765h472z"/><path d="m241.702 389.019h28.596c5.522 0 10-4.477 10-10s-4.478-10-10-10h-28.596c-5.523 0-10 4.477-10 10s4.477 10 10 10z"/></g><g><path d="m340.114 95.162c-46.576 0-85.463 33.272-94.665 77.583h-170.292v40.366h18.259v49.531h29.805v-13.96h33.709v13.96h29.805v-49.531h58.713c9.202 44.311 48.089 77.583 94.665 77.583 53.422 0 96.729-43.771 96.729-97.766 0-53.994-43.307-97.766-96.728-97.766zm0 141.021c-23.575 0-42.755-19.404-42.755-43.255 0-23.85 19.18-43.254 42.755-43.254 23.574 0 42.754 19.404 42.754 43.254 0 23.851-19.179 43.255-42.754 43.255z" fill="#b2f0fb"/></g></g></svg>