<svg id="Capa_1" enable-background="new 0 0 512 512" height="512" viewBox="0 0 512 512" width="512" xmlns="http://www.w3.org/2000/svg"><g><g><path d="m502 84.725h-492c-5.523 0-10 4.477-10 10v241.791c0 5.523 4.477 10 10 10h175.511c5.523 0 10-4.477 10-10s-4.477-10-10-10h-165.511v-60.597h165.511c5.523 0 10-4.477 10-10s-4.477-10-10-10h-33.234v-60.597h119.915v47.767c0 5.523 4.478 10 10 10s10-4.477 10-10v-47.767h199.808v60.597h-185.639c-5.522 0-10 4.477-10 10s4.478 10 10 10h60.087v60.597h-60.087c-5.522 0-10 4.477-10 10s4.478 10 10 10h195.639c5.522 0 10-4.477 10-10v-241.791c0-5.523-4.478-10-10-10zm-482 20h186.83v60.597h-186.83zm112.276 141.194h-112.276v-60.597h112.276zm94.554-141.194h139.619v60.597h-139.619zm159.618 60.597v-60.597h105.552v60.597zm105.552 161.194h-105.552v-60.597h105.552z" fill="#020288"/></g><g><g><path d="m307.723 212.545h-103.446c0 18.257-15.016 33.11-33.473 33.11v100.262c0 26.344 15.597 50.245 39.866 61.094l45.33 20.264 45.33-20.263c24.269-10.849 39.866-34.751 39.866-61.094v-100.263c-18.457 0-33.473-14.853-33.473-33.11z" fill="#e2c4ff"/></g><g><g><path d="m252.879 347.231c-2.515 0-4.954-.949-6.814-2.681l-15.963-14.862c-4.043-3.763-4.269-10.091-.505-14.133 3.763-4.042 10.091-4.269 14.133-.505l7.527 7.008 15.62-22.439c3.154-4.534 9.386-5.65 13.92-2.495 4.533 3.155 5.649 9.388 2.494 13.921l-22.204 31.9c-1.656 2.379-4.262 3.922-7.145 4.23-.355.037-.71.056-1.063.056z" fill="#020288"/></g></g></g></g></svg>