<svg id="Capa_1" enable-background="new 0 0 512 512" height="512" viewBox="0 0 512 512" width="512" xmlns="http://www.w3.org/2000/svg"><g><g><g><path d="m336.71 231.273-91.18 111.18h-70.24l91.18-111.18z" fill="#fff59b"/></g><g><path d="m490.29 231.273-91.18 111.18h-70.24l91.18-111.18z" fill="#fff59b"/></g><g><path d="m183.13 231.273-91.18 111.18h-70.24l91.18-111.18z" fill="#fff59b"/></g><g><g><path d="m336.71 70.671-91.18 111.18h-70.24l91.18-111.18z" fill="#fff59b"/></g><g><path d="m490.29 70.671-91.18 111.18h-70.24l91.18-111.18z" fill="#fff59b"/></g><g><path d="m183.13 70.671-91.18 111.18h-70.24l91.18-111.18z" fill="#fff59b"/></g></g></g><g><path d="m502 191.851c5.522 0 10-4.477 10-10v-111.18c0-5.523-4.478-10-10-10h-21.043v-30.671c0-5.523-4.478-10-10-10h-61.377c-5.523 0-10 4.477-10 10v30.671h-287.16v-30.671c0-5.523-4.478-10-10-10h-61.377c-5.522 0-10 4.477-10 10v30.671h-21.043c-5.523 0-10 4.477-10 10v111.18c0 5.523 4.477 10 10 10h21.043v29.422h-21.043c-5.523 0-10 4.477-10 10v111.18c0 5.523 4.477 10 10 10h21.043v129.547c0 5.523 4.478 10 10 10h61.377c5.522 0 10-4.477 10-10v-129.546h287.16v129.546c0 5.523 4.477 10 10 10h61.377c5.522 0 10-4.477 10-10v-129.546h21.043c5.522 0 10-4.477 10-10v-111.18c0-5.523-4.478-10-10-10h-21.043v-29.422h21.043zm-82.42-151.851h41.377v20.671h-41.377zm-368.537 0h41.377v20.671h-41.377zm-31.043 40.671h472v91.18h-472zm92.42 140.602v-29.422h287.16v29.422zm-61.377-29.422h41.377v29.422h-41.377zm41.377 280.149h-41.377v-119.546h41.377zm368.537 0h-41.377v-119.546h41.377zm31.043-139.546h-472v-91.18h472zm-31.043-111.181h-41.377v-29.422h41.377z" fill="#020288"/></g></g></svg>