<svg id="Capa_1" enable-background="new 0 0 512 512" height="512" viewBox="0 0 512 512" width="512" xmlns="http://www.w3.org/2000/svg"><g><g fill="#020288"><path d="m377.115 236.127c5.315-.345 9.333-4.995 9.333-10.321v-152.715-.22c0-2.585-1.072-5.048-2.926-6.848-.001-.001-.002-.002-.002-.002l-63.091-63.092c-2.679-2.679-7.052-2.929-7.071-2.929h-292.028c-5.523 0-10 4.477-10 10v492c0 5.523 4.477 10 10 10h355.119c5.523 0 10-4.477 10-10v-84.529c0-5.326-4.019-9.977-9.333-10.321-5.824-.378-10.667 4.235-10.667 9.978v74.872h-335.119v-472h272.028v53.091c0 5.523 4.477 10 10 10h53.091v143.058c-.001 5.744 4.842 10.356 10.666 9.978zm-53.757-201.984 28.949 28.949h-28.949z"/><path d="m94.442 104.362h83.234c5.523 0 10-4.477 10-10s-4.477-10-10-10h-83.234c-5.523 0-10 4.477-10 10s4.477 10 10 10z"/><path d="m94.442 151.128h83.234c5.523 0 10-4.477 10-10s-4.477-10-10-10h-83.234c-5.523 0-10 4.477-10 10s4.477 10 10 10z"/><path d="m305.868 223.043h-213.958c-5.523 0-10 4.477-10 10s4.477 10 10 10h213.958c5.522 0 10-4.477 10-10s-4.477-10-10-10z"/><path d="m305.868 286.895h-213.958c-5.523 0-10 4.477-10 10s4.477 10 10 10h213.958c5.522 0 10-4.477 10-10s-4.477-10-10-10z"/><path d="m305.868 350.747h-213.958c-5.523 0-10 4.477-10 10s4.477 10 10 10h213.958c5.522 0 10-4.477 10-10s-4.477-10-10-10z"/></g><g><g><circle cx="376.448" cy="311.863" fill="#fff59b" r="124.222"/></g><g fill="#020288"><path d="m429.034 274.023h-5.479v-4.421c0-25.974-21.132-47.106-47.107-47.106s-47.106 21.132-47.106 47.106v4.421h-5.48c-5.522 0-10 4.477-10 10v96.256c0 5.523 4.478 10 10 10h105.172c5.522 0 10-4.477 10-10v-96.256c0-5.522-4.477-10-10-10zm-79.692-4.421c0-14.946 12.16-27.106 27.106-27.106s27.107 12.16 27.107 27.106v4.421h-54.213zm69.692 100.678h-85.172v-76.256h85.172z"/><path d="m384.189 316.915h-15.48c-5.522 0-10 4.477-10 10 0 4.746 3.306 8.719 7.74 9.744v.728c0 5.523 4.478 10 10 10s10-4.477 10-10v-.728c4.434-1.024 7.74-4.998 7.74-9.744 0-5.522-4.478-10-10-10z"/></g></g></g></svg>