<svg id="Capa_1" enable-background="new 0 0 512 512" height="512" viewBox="0 0 512 512" width="512" xmlns="http://www.w3.org/2000/svg"><g><g fill="#020288"><path d="m71.049 323.966c-5.522 0-10 4.477-10 10s4.478 10 10 10h154.712c5.523 0 10-4.477 10-10s-4.477-10-10-10z"/><path d="m71.049 366.521c-5.522 0-10 4.477-10 10s4.478 10 10 10h92.937c5.522 0 10-4.477 10-10s-4.478-10-10-10z"/><g><path d="m481.401 127.927h-173.432c-5.522 0-10 4.477-10 10s4.478 10 10 10h173.433c5.844 0 10.599 4.755 10.599 10.599v25.998h-184.032c-5.522 0-10 4.477-10 10s4.478 10 10 10h184.031v40.604h-190.745c-5.522 0-10 4.477-10 10s4.478 10 10 10h190.745v154.762c0 11.548-9.396 20.944-20.943 20.944h-430.118c-11.546 0-20.939-9.394-20.939-20.94v-154.766h202.617c5.522 0 10-4.477 10-10s-4.478-10-10-10h-202.617v-40.604h181.17c5.522 0 10-4.477 10-10s-4.478-10-10-10h-181.17v-25.998c0-5.844 4.755-10.599 10.599-10.599h156.954c5.522 0 10-4.477 10-10s-4.478-10-10-10h-156.954c-16.872 0-30.599 13.727-30.599 30.599v261.368c0 22.574 18.365 40.94 40.939 40.94h430.117c22.576 0 40.943-18.367 40.943-40.944v-261.364c.001-16.872-13.726-30.599-30.598-30.599z"/><path d="m455.657 354.544c0-28.067-22.845-50.901-50.924-50.901s-50.923 22.834-50.923 50.901 22.844 50.902 50.923 50.902 50.924-22.834 50.924-50.902zm-81.846 0c0-17.039 13.872-30.901 30.923-30.901 17.052 0 30.924 13.862 30.924 30.901 0 17.04-13.872 30.902-30.924 30.902-17.051 0-30.923-13.862-30.923-30.902z"/></g></g><g><g><path d="m312.823 51.166h-113.645c0 20.057-16.496 36.374-36.773 36.374v110.147c0 28.941 17.135 55.199 43.797 67.118l49.798 22.26 49.799-22.261c26.662-11.919 43.797-38.177 43.797-67.118v-110.146c-20.277 0-36.773-16.318-36.773-36.374z" fill="#a4fcc4"/></g><g><g><path d="m252.818 196.775c-2.516 0-4.954-.949-6.814-2.681l-16.276-15.153c-4.042-3.763-4.267-10.091-.505-14.133 3.765-4.043 10.093-4.267 14.134-.505l7.84 7.299 16.055-23.064c3.155-4.533 9.386-5.65 13.92-2.495 4.533 3.155 5.649 9.388 2.494 13.92l-22.64 32.525c-1.655 2.379-4.262 3.922-7.144 4.23-.356.039-.711.057-1.064.057z" fill="#020288"/></g></g></g></g></svg>