<svg id="Capa_1" enable-background="new 0 0 512 512" height="512" viewBox="0 0 512 512" width="512" xmlns="http://www.w3.org/2000/svg"><g><g><g><path d="m320.262 420.356v13.27c-17.412 14.521-39.816 23.252-64.262 23.252s-46.85-8.731-64.262-23.252v-13.27c0-26.935 16.535-50.014 39.988-59.608 3.193 2.942 6.919 5.315 11.018 6.948s8.573 2.532 13.255 2.532c9.364 0 17.887-3.596 24.273-9.479 7.983 3.265 15.168 8.091 21.166 14.104 11.632 11.649 18.824 27.738 18.824 45.503z" fill="#ffbdbc"/></g><g fill="#020288"><path d="m410.992 201.627h-27.327v-74.585c0-70.051-56.991-127.042-127.042-127.042h-1.246c-70.051 0-127.042 56.991-127.042 127.043v74.585h-27.327c-5.522 0-10 4.477-10 10v290.372c0 5.523 4.478 10 10 10h309.984c5.522 0 10-4.477 10-10v-290.373c0-5.522-4.477-10-10-10zm-262.657-74.584c0-59.024 48.019-107.043 107.042-107.043h1.246c59.024 0 107.042 48.019 107.042 107.043v74.585h-24v-74.585c0-45.79-37.253-83.043-83.042-83.043h-1.246c-45.789 0-83.042 37.253-83.042 83.043v74.585h-24zm44 74.584v-74.585c0-34.762 28.28-63.043 63.042-63.043h1.246c34.762 0 63.042 28.281 63.042 63.043v74.585zm208.657 290.373h-289.984v-270.373h289.984z"/><path d="m256 278.882c-25.295 0-45.873 20.578-45.873 45.873v9.596c0 25.294 20.578 45.872 45.873 45.872s45.873-20.578 45.873-45.872v-9.596c0-25.295-20.578-45.873-45.873-45.873zm25.873 55.469c0 14.266-11.606 25.872-25.873 25.872s-25.873-11.606-25.873-25.872v-9.596c0-14.266 11.606-25.873 25.873-25.873s25.873 11.607 25.873 25.873z"/><path d="m256 246.016c-60.892 0-110.431 49.539-110.431 110.431 0 32.869 14.494 63.799 39.765 84.858 19.773 16.491 44.87 25.573 70.666 25.573s50.893-9.082 70.664-25.57c25.272-21.061 39.767-51.992 39.767-84.861 0-60.892-49.539-110.431-110.431-110.431zm57.857 179.929c-16.186 13.498-36.733 20.932-57.857 20.932s-41.671-7.434-57.859-20.935c-20.699-17.25-32.571-42.581-32.571-69.497 0-49.864 40.567-90.431 90.431-90.431s90.431 40.567 90.431 90.431c-.001 26.917-11.873 52.247-32.575 69.5z"/></g></g></g></svg>