<svg id="Capa_1" enable-background="new 0 0 512 512" height="512" viewBox="0 0 512 512" width="512" xmlns="http://www.w3.org/2000/svg"><g><g><path d="m254.488 368.331v15.49c-20.326 16.951-46.479 27.143-75.016 27.143s-54.69-10.193-75.016-27.143v-15.49c0-31.442 19.302-58.384 46.68-69.584 3.728 3.434 8.077 6.204 12.862 8.11 4.786 1.906 10.008 2.955 15.473 2.955 10.931 0 20.88-4.198 28.336-11.066 9.319 3.812 17.707 9.445 24.709 16.464 13.576 13.603 21.972 32.384 21.972 53.121z" fill="#e2c4ff"/></g><g fill="#020288"><path d="m476.566 44.91h-441.132c-19.539 0-35.434 16.009-35.434 35.688v350.804c0 19.679 15.895 35.688 35.434 35.688h441.132c19.539 0 35.434-16.01 35.434-35.688v-350.804c0-19.679-15.896-35.688-35.434-35.688zm-456.566 35.688c0-8.651 6.924-15.688 15.434-15.688h441.132c8.51 0 15.434 7.038 15.434 15.688v39.765h-472zm472 350.804c0 8.65-6.924 15.688-15.434 15.688h-441.132c-8.51 0-15.434-7.038-15.434-15.688v-291.039h472z"/><path d="m82.894 82.637h-13.788c-5.523 0-10 4.477-10 10s4.477 10 10 10h13.787c5.523 0 10-4.477 10-10 .001-5.523-4.477-10-9.999-10z"/><path d="m139.957 82.637h-13.787c-5.523 0-10 4.477-10 10s4.477 10 10 10h13.787c5.523 0 10-4.477 10-10s-4.477-10-10-10z"/><path d="m197.021 82.637h-13.788c-5.523 0-10 4.477-10 10s4.477 10 10 10h13.788c5.523 0 10-4.477 10-10s-4.477-10-10-10z"/><path d="m442.894 82.637h-48.936c-5.523 0-10 4.477-10 10s4.477 10 10 10h48.936c5.523 0 10-4.477 10-10s-4.478-10-10-10z"/><path d="m341.767 259.016h108c5.523 0 10-4.477 10-10s-4.477-10-10-10h-108c-5.523 0-10 4.477-10 10s4.477 10 10 10z"/><path d="m341.767 303.727h108c5.523 0 10-4.477 10-10s-4.477-10-10-10h-108c-5.523 0-10 4.477-10 10s4.477 10 10 10z"/><path d="m341.767 348.438h108c5.523 0 10-4.477 10-10s-4.477-10-10-10h-108c-5.523 0-10 4.477-10 10s4.477 10 10 10z"/><path d="m179.472 319.809c28.605 0 51.876-23.272 51.876-51.877v-11.201c0-28.605-23.271-51.876-51.876-51.876s-51.876 23.271-51.876 51.876v11.201c0 28.606 23.271 51.877 51.876 51.877zm-31.876-63.077c0-17.577 14.299-31.876 31.876-31.876s31.876 14.3 31.876 31.876v11.201c0 17.577-14.3 31.877-31.876 31.877-17.577 0-31.876-14.3-31.876-31.877z"/><path d="m98.051 391.501c22.783 19 51.699 29.464 81.421 29.464s58.638-10.464 81.418-29.461c29.12-24.268 45.82-59.906 45.82-97.777 0-70.159-57.079-127.238-127.238-127.238s-127.239 57.078-127.239 127.238c0 37.87 16.701 73.508 45.818 97.774zm81.421-205.013c59.131 0 107.238 48.107 107.238 107.238 0 31.918-14.078 61.957-38.627 82.415-19.195 16.007-43.562 24.823-68.611 24.823s-49.417-8.816-68.614-24.826c-24.546-20.457-38.625-50.495-38.625-82.413 0-59.13 48.107-107.237 107.239-107.237z"/></g></g></svg>