<svg id="Capa_1" enable-background="new 0 0 512 512" height="512" viewBox="0 0 512 512" width="512" xmlns="http://www.w3.org/2000/svg"><g><g><path d="m176.624 400.795c-33.915-15.161-55.83-48.606-55.83-85.206v-183.526c27.135-13.231 49.241-35.138 62.63-62.063h145.152c13.389 26.925 35.495 48.832 62.63 62.063v183.526c0 36.6-21.915 70.045-55.83 85.206l-79.376 35.483z" fill="#fff59b"/></g><g fill="#020288"><path d="m451.207 75.862c-36.776 0-66.696-29.546-66.696-65.862 0-5.523-4.477-10-10-10h-237.022c-5.523 0-10 4.477-10 10 0 36.316-29.92 65.862-66.696 65.862-5.523 0-10 4.478-10 10v229.727c0 64.171 38.178 122.701 97.263 149.112l103.862 46.428c1.298.581 2.69.871 4.081.871s2.783-.29 4.081-.871l103.862-46.428c59.085-26.411 97.263-84.941 97.263-149.112v-229.727c.002-5.522-4.476-10-9.998-10zm-10 239.727c0 56.293-33.531 107.656-85.425 130.854l-99.782 44.604-99.781-44.604c-51.894-23.198-85.425-74.562-85.425-130.854v-220.294c39.798-4.548 71.477-35.892 76.111-75.295h218.19c4.634 39.403 36.313 70.747 76.111 75.295v220.294z"/><path d="m256 152.564c-56.196 0-101.915 45.719-101.915 101.914 0 56.196 45.719 101.915 101.915 101.915s101.915-45.719 101.915-101.915c0-56.195-45.719-101.914-101.915-101.914zm0 183.83c-45.168 0-81.915-36.747-81.915-81.915s36.747-81.914 81.915-81.914 81.915 36.746 81.915 81.914-36.747 81.915-81.915 81.915z"/><path d="m267.476 245.744c-.92-.325-1.807-.641-2.664-.948v-22.154c1.504.756 2.582 1.663 3.188 2.526 3.172 4.521 9.409 5.615 13.93 2.441 4.521-3.173 5.613-9.409 2.441-13.93-3.871-5.517-10.696-10.178-19.559-11.999v-.184c0-5.523-4.477-10-10-10s-10 4.477-10 10v.877c-.81.204-1.628.429-2.453.678-10.941 3.296-19.198 13.9-20.08 25.788-.874 11.795 5.378 22.032 16.725 27.383 1.333.628 3.316 1.463 5.809 2.45v27.464c-2.938-1.179-5.511-2.835-7.249-4.993-3.464-4.3-9.759-4.978-14.061-1.515-4.301 3.465-4.979 9.76-1.515 14.061 5.892 7.314 14.4 11.411 22.83 13.32.181 5.363 4.586 9.656 9.993 9.656 5.16 0 9.407-3.909 9.942-8.926 14.988-2.503 25.526-12.355 27.236-25.816 1.969-15.503-8.112-30.382-24.513-36.179zm-25.252-15.425c.165-2.227 1.153-4.38 2.588-5.943v12.063c-1.922-1.61-2.773-3.632-2.588-6.12zm29.925 49.086c-.464 3.655-3.065 6.366-7.337 7.805v-20.731c5.699 3.459 7.86 8.803 7.337 12.926z"/></g></g></svg>