<svg id="Capa_1" enable-background="new 0 0 512 512" height="512" viewBox="0 0 512 512" width="512" xmlns="http://www.w3.org/2000/svg"><g><g><path d="m171.042 435.814v-210.795c0-46.612 38.112-84.534 84.958-84.534s84.958 37.922 84.958 84.534v210.795z" fill="#ffbdbc"/></g><g fill="#020288"><path d="m481.616 492h-30.666v-56.186c0-5.523-4.478-10-10-10h-22.315v-200.415c0-89.467-72.787-162.254-162.255-162.254h-.761c-89.468 0-162.255 72.787-162.255 162.254v200.415h-22.315c-5.522 0-10 4.477-10 10v56.186h-30.667c-5.522 0-10 4.477-10 10s4.478 10 10 10h451.234c5.522 0 10-4.477 10-10s-4.477-10-10-10zm-368.252-266.601c0-78.439 63.815-142.254 142.255-142.254h.761c78.439 0 142.255 63.815 142.255 142.254v200.415h-132.635v-93.794c17.366-4.441 30.239-20.168 30.239-38.835 0-22.105-18.051-40.088-40.239-40.088s-40.239 17.983-40.239 40.088c0 18.667 12.873 34.395 30.239 38.835v93.794h-132.636zm142.636 87.874c-11.16 0-20.239-9.012-20.239-20.088 0-11.077 9.079-20.088 20.239-20.088s20.239 9.012 20.239 20.088-9.079 20.088-20.239 20.088zm-174.951 178.727v-46.186h349.901v46.186z"/><path d="m256 37.438c5.522 0 10-4.477 10-10v-17.438c0-5.523-4.478-10-10-10-5.523 0-10 4.477-10 10v17.438c0 5.522 4.477 10 10 10z"/><path d="m490.676 233.507h-17.524c-5.522 0-10 4.477-10 10s4.478 10 10 10h17.524c5.522 0 10-4.477 10-10s-4.478-10-10-10z"/><path d="m38.849 253.507c5.523 0 10-4.477 10-10s-4.477-10-10-10h-17.525c-5.522 0-10 4.477-10 10s4.478 10 10 10z"/><path d="m409.549 100.723c2.551 0 5.103-.97 7.054-2.911l12.392-12.33c3.915-3.896 3.931-10.228.035-14.142-3.896-3.916-10.228-3.931-14.143-.036l-12.392 12.33c-3.915 3.896-3.931 10.227-.035 14.142 1.954 1.964 4.521 2.947 7.089 2.947z"/><path d="m95.397 97.812c1.951 1.941 4.503 2.911 7.054 2.911 2.567 0 5.135-.983 7.089-2.947 3.896-3.915 3.88-10.247-.035-14.142l-12.392-12.33c-3.915-3.896-10.247-3.879-14.143.036-3.896 3.914-3.88 10.246.035 14.142z"/></g></g></svg>