<svg id="Capa_1" enable-background="new 0 0 512 512" height="512" viewBox="0 0 512 512" width="512" xmlns="http://www.w3.org/2000/svg"><g><g><path d="m137.976 270.611 100.61-175.138c7.72-13.439 27.107-13.439 34.827 0l100.611 175.138c7.691 13.388-1.974 30.086-17.414 30.086h-201.221c-15.44 0-25.104-16.698-17.413-30.086z" fill="#ffbdbc"/></g><g fill="#020288"><path d="m476.566 34.565h-441.132c-19.538 0-35.434 16.01-35.434 35.688v320.804c0 19.679 15.896 35.689 35.434 35.689h138.194v30.689h-61.905c-5.523 0-10 4.477-10 10s4.477 10 10 10h288.555c5.523 0 10-4.477 10-10s-4.477-10-10-10h-61.905v-30.689h138.194c19.539 0 35.434-16.01 35.434-35.689v-320.804c-.001-19.678-15.897-35.688-35.435-35.688zm-456.566 35.688c0-8.65 6.924-15.688 15.434-15.688h441.132c8.51 0 15.434 7.038 15.434 15.688v261.039h-472zm298.372 387.182h-124.744v-30.689h124.744zm173.628-66.378c0 8.651-6.924 15.689-15.434 15.689h-441.132c-8.51 0-15.434-7.038-15.434-15.689v-39.765h472z"/><path d="m241.702 389.019h28.596c5.523 0 10-4.477 10-10s-4.477-10-10-10h-28.596c-5.523 0-10 4.477-10 10s4.477 10 10 10z"/><path d="m256 154.277c-5.523 0-10 4.477-10 10v56.298c0 5.523 4.477 10 10 10s10-4.477 10-10v-56.298c0-5.523-4.477-10-10-10z"/><circle cx="256" cy="260.002" r="9.998"/></g></g></svg>