<svg id="Capa_1" enable-background="new 0 0 512 512" height="512" viewBox="0 0 512 512" width="512" xmlns="http://www.w3.org/2000/svg"><g><g><path d="m483.948 48.08h-288.814c-15.492 0-28.051 12.559-28.051 28.051v87.379h159.784c15.492 0 28.051 12.559 28.051 28.052v114.923h32.259l40.332 32.006 13.904-32.006h42.537c15.492 0 28.052-12.559 28.052-28.051v-202.303c-.002-15.492-12.561-28.051-28.054-28.051z" fill="#a4fcc4"/></g><g fill="#020288"><path d="m326.866 153.51h-288.814c-20.982 0-38.052 17.07-38.052 38.051v202.302c0 20.981 17.07 38.051 38.052 38.051h35.978l11.29 25.991c1.238 2.85 3.73 4.963 6.745 5.717.803.201 1.616.299 2.427.299 2.233 0 4.43-.749 6.216-2.167l37.602-29.839h188.557c20.981 0 38.052-17.07 38.052-38.051v-202.303c-.001-20.981-17.071-38.051-38.053-38.051zm18.052 240.353c0 9.954-8.098 18.051-18.052 18.051h-192.042c-2.257 0-4.448.764-6.216 2.167l-30.133 23.912-8.715-20.063c-1.587-3.652-5.189-6.016-9.172-6.016h-42.536c-9.954 0-18.052-8.098-18.052-18.051v-202.302c0-9.954 8.098-18.051 18.052-18.051h288.814c9.954 0 18.052 8.098 18.052 18.051z"/><path d="m152.863 257.5h-3.739v-10.81c0-23.673-19.26-42.933-42.933-42.933s-42.933 19.259-42.933 42.933v10.81h-3.738c-5.522 0-10 4.477-10 10v85.43c0 5.523 4.478 10 10 10h93.344c5.522 0 10-4.477 10-10v-85.43c-.001-5.523-4.478-10-10.001-10zm-69.604-10.811c0-12.645 10.287-22.933 22.933-22.933s22.933 10.288 22.933 22.933v10.81h-45.866zm59.604 96.241h-73.343v-65.43h73.344v65.43z"/><path d="m96.194 315.068c.11 5.428 4.544 9.794 9.997 9.794s9.888-4.366 9.997-9.794c3.991-1.313 6.872-5.07 6.872-9.5 0-5.523-4.478-10-10-10h-13.738c-5.523 0-10 4.477-10 10 0 4.43 2.882 8.187 6.872 9.5z"/><path d="m309.672 228.632h-108c-5.523 0-10 4.477-10 10s4.477 10 10 10h108c5.522 0 10-4.477 10-10s-4.478-10-10-10z"/><path d="m309.672 273.343h-108c-5.523 0-10 4.477-10 10s4.477 10 10 10h108c5.522 0 10-4.477 10-10s-4.478-10-10-10z"/><path d="m309.672 318.055h-108c-5.523 0-10 4.477-10 10s4.477 10 10 10h108c5.522 0 10-4.477 10-10s-4.478-10-10-10z"/></g></g></svg>