<svg id="Capa_1" enable-background="new 0 0 512 512" height="512" viewBox="0 0 512 512" width="512" xmlns="http://www.w3.org/2000/svg"><g><g><path d="m303.522 157.862h-95.044c0 16.774-13.796 30.42-30.755 30.42v92.119c0 24.204 14.33 46.165 36.628 56.132l41.649 18.618 41.648-18.617c22.298-9.968 36.628-31.928 36.628-56.132v-92.119c-16.958 0-30.754-13.647-30.754-30.421z" fill="#fff59b"/></g><g fill="#020288"><path d="m349.816 0h-187.632c-26.753 0-48.518 21.765-48.518 48.518v381.158.024.024 33.759c0 26.753 21.765 48.518 48.518 48.518h187.632c26.753 0 48.518-21.765 48.518-48.518v-414.965c0-26.753-21.765-48.518-48.518-48.518zm28.518 66.276v353.445l-244.668-.044v-353.401zm-216.15-46.276h187.632c14.97 0 27.283 11.595 28.431 26.275l-244.49-.045c1.169-14.658 13.472-26.23 28.427-26.23zm216.15 443.482c0 15.725-12.793 28.518-28.518 28.518h-187.632c-15.725 0-28.518-12.793-28.518-28.518v-23.759h244.668z"/><path d="m245.66 475.861h20.681c5.523 0 10-4.478 10-10s-4.477-10-10-10h-20.681c-5.523 0-10 4.478-10 10 0 5.523 4.477 10 10 10z"/><path d="m230.102 266.284 15.963 14.862c1.86 1.731 4.298 2.681 6.814 2.681.354 0 .708-.018 1.063-.057 2.882-.309 5.489-1.852 7.145-4.23l22.205-31.899c3.155-4.532 2.038-10.765-2.495-13.92-4.533-3.156-10.766-2.039-13.92 2.494l-15.619 22.438-7.527-7.008c-4.042-3.763-10.37-3.536-14.133.505-3.765 4.042-3.538 10.371.504 14.134z"/></g></g></svg>