<svg id="Capa_1" enable-background="new 0 0 512 512" height="512" viewBox="0 0 512 512" width="512" xmlns="http://www.w3.org/2000/svg"><g><g><path d="m256 412.375c-67.466 0-122.354-54.888-122.354-122.354v-68.043c0-67.466 54.888-122.354 122.354-122.354s122.354 54.888 122.354 122.354v68.043c0 67.466-54.888 122.354-122.354 122.354z" fill="#fff59b"/></g><g fill="#020288"><path d="m316.835 320.963c-4.5-3.205-10.743-2.154-13.947 2.343-10.811 15.178-28.339 24.239-46.887 24.239-31.719 0-57.524-25.805-57.524-57.524v-8.621c0-5.523-4.477-10-10-10s-10 4.477-10 10v8.622c0 42.747 34.777 77.524 77.524 77.524 25.004 0 48.622-12.2 63.178-32.636 3.204-4.499 2.154-10.743-2.344-13.947z"/><path d="m313.524 238.13v51.892c0 5.523 4.478 10 10 10s10-4.477 10-10v-51.892c0-5.523-4.478-10-10-10s-10 4.477-10 10z"/><path d="m178.476 225.404c0 5.523 4.477 10 10 10s10-4.477 10-10v-3.425c0-31.719 25.805-57.524 57.524-57.524 22.68 0 43.318 13.421 52.578 34.193 2.249 5.045 8.163 7.311 13.205 5.062 5.045-2.249 7.311-8.161 5.063-13.206-12.471-27.974-40.279-46.049-70.845-46.049-42.747 0-77.524 34.777-77.524 77.524v3.425z"/><path d="m283.68 221.979c0-15.262-12.417-27.679-27.679-27.679s-27.679 12.417-27.679 27.679c0 5.523 4.477 10 10 10s10-4.477 10-10c0-4.234 3.445-7.679 7.679-7.679s7.679 3.445 7.679 7.679v19.386c0 5.523 4.477 10 10 10 5.522 0 10-4.477 10-10z"/><path d="m238.321 252.31c-5.523 0-10 4.477-10 10v27.711c0 15.262 12.417 27.679 27.679 27.679s27.679-12.417 27.679-27.679c0-5.523-4.478-10-10-10-5.523 0-10 4.477-10 10 0 4.234-3.445 7.679-7.679 7.679s-7.679-3.445-7.679-7.679v-27.711c0-5.523-4.477-10-10-10z"/><path d="m10 193.862h43.488c5.523 0 10-4.477 10-10v-120.373h120.374c5.523 0 10-4.477 10-10v-43.489c0-5.523-4.477-10-10-10h-173.862c-5.523 0-10 4.477-10 10v173.862c0 5.523 4.477 10 10 10zm10-173.862h153.862v23.489h-120.374c-5.523 0-10 4.477-10 10v120.373h-23.488z"/><path d="m183.862 448.511h-120.374v-120.373c0-5.523-4.477-10-10-10h-43.488c-5.523 0-10 4.477-10 10v173.862c0 5.523 4.477 10 10 10h173.862c5.523 0 10-4.477 10-10v-43.489c0-5.523-4.477-10-10-10zm-10 43.489h-153.862v-153.862h23.488v120.374c0 5.523 4.477 10 10 10h120.374z"/><path d="m502 0h-173.862c-5.522 0-10 4.477-10 10v43.489c0 5.523 4.478 10 10 10h120.374v120.373c0 5.523 4.478 10 10 10h43.488c5.522 0 10-4.477 10-10v-173.862c0-5.523-4.478-10-10-10zm-10 173.862h-23.488v-120.373c0-5.523-4.477-10-10-10h-120.374v-23.489h153.862z"/><path d="m502 318.138h-43.488c-5.522 0-10 4.477-10 10v120.374h-120.374c-5.522 0-10 4.477-10 10v43.488c0 5.523 4.478 10 10 10h173.862c5.522 0 10-4.477 10-10v-173.862c0-5.523-4.478-10-10-10zm-10 173.862h-153.862v-23.489h120.374c5.523 0 10-4.477 10-10v-120.373h23.488z"/></g></g></svg>