<svg id="Capa_1" enable-background="new 0 0 512 512" height="512" viewBox="0 0 512 512" width="512" xmlns="http://www.w3.org/2000/svg"><g><g><path d="m0 355.514h512v117.211h-512z" fill="#ffbdbc"/></g><g fill="#020288"><path d="m268.872 211.305h-25.743c-5.523 0-10 4.477-10 10s4.477 10 10 10h2.871v7.415c0 5.523 4.477 10 10 10s10-4.477 10-10v-7.415h2.872c5.523 0 10-4.477 10-10s-4.477-10-10-10z"/><path d="m393.705 237.08c3.983 9.964 13.734 17.021 25.103 17.021 14.9 0 27.021-12.122 27.021-27.021 0-14.9-12.122-27.021-27.021-27.021-11.369 0-21.12 7.057-25.103 17.021h-40.254v-40.203h28.311c2.427 0 4.771-.883 6.596-2.483l9.104-7.989c4.948 6.368 12.676 10.472 21.346 10.472 14.9 0 27.021-12.122 27.021-27.021s-12.122-27.021-27.021-27.021c-12.983 0-23.857 9.204-26.439 21.43l-14.373 12.612h-24.545v-6.901c0-5.523-4.477-10-10-10h-15.743v-28.993c0-39.54-32.168-71.708-71.707-71.708s-71.708 32.168-71.708 71.708v28.993h-15.743c-5.523 0-10 4.477-10 10v6.901h-24.545l-14.373-12.612c-2.582-12.226-13.456-21.43-26.439-21.43-14.9 0-27.021 12.122-27.021 27.021 0 14.9 12.122 27.021 27.021 27.021 8.67 0 16.399-4.105 21.346-10.472l9.104 7.989c1.824 1.6 4.168 2.483 6.596 2.483h28.311v40.203h-40.254c-3.983-9.964-13.734-17.021-25.103-17.021-14.9 0-27.021 12.122-27.021 27.021s12.122 27.021 27.021 27.021c11.368 0 21.119-7.057 25.103-17.021h40.254v40.203h-28.311c-2.368 0-4.658.84-6.464 2.371l-9.365 7.935c-4.953-6.273-12.622-10.306-21.216-10.306-14.9 0-27.021 12.122-27.021 27.021 0 14.9 12.122 27.022 27.021 27.022 13.203 0 24.224-9.518 26.563-22.054l14.15-11.989h24.644v12.766c0 5.523 4.477 10 10 10h174.901c5.523 0 10-4.477 10-10v-12.766h24.644l14.15 11.989c2.339 12.535 13.36 22.054 26.563 22.054 14.9 0 27.021-12.122 27.021-27.022 0-14.899-12.122-27.021-27.021-27.021-8.594 0-16.264 4.033-21.216 10.306l-9.365-7.935c-1.806-1.531-4.097-2.371-6.464-2.371h-28.311v-40.203zm25.103-17.021c3.872 0 7.021 3.15 7.021 7.021s-3.15 7.021-7.021 7.021c-3.872 0-7.021-3.149-7.021-7.021s3.149-7.021 7.021-7.021zm0-77.224c3.872 0 7.021 3.149 7.021 7.021s-3.15 7.021-7.021 7.021c-3.872 0-7.021-3.15-7.021-7.021 0-3.872 3.149-7.021 7.021-7.021zm-325.616 14.042c-3.872 0-7.021-3.15-7.021-7.021 0-3.872 3.15-7.021 7.021-7.021 3.872 0 7.021 3.149 7.021 7.021 0 3.871-3.149 7.021-7.021 7.021zm0 77.224c-3.872 0-7.021-3.149-7.021-7.021s3.15-7.021 7.021-7.021c3.872 0 7.021 3.15 7.021 7.021s-3.149 7.021-7.021 7.021zm0 77.225c-3.872 0-7.021-3.15-7.021-7.022s3.15-7.021 7.021-7.021c3.872 0 7.021 3.149 7.021 7.021s-3.149 7.022-7.021 7.022zm325.616-14.043c3.872 0 7.021 3.149 7.021 7.021s-3.15 7.022-7.021 7.022c-3.872 0-7.021-3.15-7.021-7.022 0-3.871 3.149-7.021 7.021-7.021zm-214.516-186.301c0-28.512 23.196-51.708 51.708-51.708s51.707 23.196 51.707 51.708v28.993h-103.415zm129.159 189.067h-154.902v-140.073h154.901v140.073z"/><path d="m439.932 395.432c-3.905-3.905-10.237-3.905-14.143 0l-4.546 4.546-4.545-4.546c-3.905-3.905-10.237-3.905-14.143 0-3.905 3.905-3.905 10.237 0 14.143l4.545 4.545-4.545 4.545c-3.905 3.905-3.905 10.237 0 14.143 1.953 1.953 4.512 2.929 7.071 2.929s5.119-.976 7.071-2.929l4.545-4.545 4.546 4.545c1.953 1.953 4.512 2.929 7.071 2.929s5.119-.976 7.071-2.929c3.905-3.905 3.905-10.237 0-14.143l-4.545-4.545 4.545-4.545c3.907-3.906 3.907-10.238.002-14.143z"/><path d="m329.77 395.432c-3.905-3.905-10.237-3.905-14.142 0l-4.546 4.546-4.545-4.546c-3.905-3.905-10.237-3.905-14.143 0-3.905 3.905-3.905 10.237 0 14.143l4.545 4.545-4.545 4.545c-3.905 3.905-3.905 10.237 0 14.143 1.953 1.953 4.512 2.929 7.071 2.929s5.119-.976 7.071-2.929l4.545-4.545 4.546 4.545c1.953 1.953 4.512 2.929 7.071 2.929s5.119-.976 7.071-2.929c3.905-3.905 3.905-10.237 0-14.143l-4.545-4.545 4.545-4.545c3.905-3.906 3.905-10.238.001-14.143z"/><path d="m219.606 395.432c-3.905-3.905-10.237-3.905-14.142 0l-4.545 4.546-4.545-4.546c-3.905-3.905-10.237-3.905-14.143 0-3.905 3.905-3.905 10.237 0 14.143l4.545 4.545-4.545 4.545c-3.905 3.905-3.905 10.237 0 14.143 1.953 1.953 4.512 2.929 7.071 2.929s5.119-.976 7.071-2.929l4.545-4.545 4.545 4.545c1.953 1.953 4.512 2.929 7.071 2.929s5.119-.976 7.071-2.929c3.905-3.905 3.905-10.237 0-14.143l-4.545-4.545 4.545-4.545c3.906-3.906 3.906-10.238.001-14.143z"/><path d="m109.444 395.432c-3.905-3.905-10.237-3.905-14.143 0l-4.545 4.546-4.545-4.546c-3.905-3.905-10.237-3.905-14.143 0-3.905 3.905-3.905 10.237 0 14.143l4.545 4.545-4.545 4.545c-3.905 3.905-3.905 10.237 0 14.143 1.953 1.953 4.512 2.929 7.071 2.929s5.119-.976 7.071-2.929l4.545-4.545 4.545 4.545c1.953 1.953 4.512 2.929 7.071 2.929s5.119-.976 7.071-2.929c3.905-3.905 3.905-10.237 0-14.143l-4.545-4.545 4.545-4.545c3.907-3.906 3.907-10.238.002-14.143z"/></g></g></svg>