<svg id="Capa_1" enable-background="new 0 0 512 512" height="512" viewBox="0 0 512 512" width="512" xmlns="http://www.w3.org/2000/svg"><g><g><path d="m290.988 288.39c-10.572-10.582-23.22-19.082-37.281-24.83-11.25 10.358-26.261 16.683-42.748 16.683-16.486 0-31.497-6.324-42.747-16.682-41.312 16.891-70.428 57.531-70.428 104.975v53.786c32.227 22.042 71.206 34.93 113.175 34.93s80.948-12.888 113.175-34.93v-53.786c0-31.29-12.668-59.628-33.146-80.146z" fill="#ffbdbc"/></g><g fill="#020288"><path d="m210.959 126.993c-40.35 0-73.176 32.827-73.176 73.176v16.898c0 40.349 32.827 73.176 73.177 73.176s73.176-32.827 73.176-73.176v-16.898c0-40.349-32.827-73.176-73.177-73.176zm53.177 90.074c0 29.321-23.854 53.176-53.176 53.176h-.001c-29.321 0-53.176-23.855-53.176-53.176v-16.898c0-29.321 23.855-53.176 53.177-53.176s53.176 23.855 53.176 53.176z"/><path d="m502 299.84h-10.082v-20.534c0-32.058-26.081-58.139-58.14-58.139-4.977 0-9.81.629-14.424 1.811-7.454-47.488-30.932-91.054-66.835-123.611-38.843-35.222-89.116-54.62-141.561-54.62-116.322.001-210.958 94.768-210.958 211.253 0 69.874 34.445 135.136 92.139 174.576 35.082 23.994 76.169 36.676 118.82 36.676 42.652 0 83.739-12.682 118.819-36.674 9.124-6.238 17.744-13.181 25.779-20.757v25.077c0 5.523 4.478 10 10 10h136.443c5.522 0 10-4.477 10-10v-125.058c0-5.523-4.478-10-10-10zm-30.082-20.533v20.534h-76.278v-20.534c0-21.03 17.109-38.139 38.139-38.139s38.139 17.109 38.139 38.139zm-153.429 134.761c-31.741 21.709-68.925 33.184-107.53 33.184-38.604 0-75.788-11.475-107.531-33.185-52.24-35.712-83.428-94.802-83.428-158.067 0-105.456 85.664-191.252 190.959-191.252 96.66 0 177.409 71.506 189.438 166.982-14.963 10.53-24.757 27.931-24.757 47.576v20.534h-10.082c-5.522 0-10 4.477-10 10v71.085c-10.873 12.61-23.341 23.758-37.069 33.143zm173.511 10.829h-116.442v-105.057h116.442z"/><path d="m443.82 355.566h-20.083c-5.522 0-10 4.477-10 10s4.478 10 10 10h.041v3.605c0 5.523 4.478 10 10 10 5.523 0 10-4.477 10-10v-3.605h.042c5.522 0 10-4.477 10-10s-4.477-10-10-10z"/></g></g></svg>