<svg id="Capa_1" enable-background="new 0 0 512 512" height="512" viewBox="0 0 512 512" width="512" xmlns="http://www.w3.org/2000/svg"><g><g><circle cx="256" cy="291.363" fill="#fff59b" r="136.181"/></g><g fill="#020288"><path d="m468.727 49.265h-296.425l-17.374-20.064c-1.899-2.194-4.658-3.454-7.56-3.454h-104.095c-23.861 0-43.273 19.461-43.273 43.382v373.797c0 23.891 19.437 43.328 43.327 43.328h425.346c23.891 0 43.327-19.436 43.327-43.328v-350.279c0-23.92-19.412-43.382-43.273-43.382zm-425.454-3.518h99.525l17.374 20.064c1.899 2.194 4.658 3.454 7.56 3.454h300.994c12.834 0 23.274 10.489 23.274 23.382v11.62c-6.738-4.322-14.745-6.83-23.327-6.83h-425.346c-8.582 0-16.589 2.508-23.327 6.83v-35.138c0-12.893 10.44-23.382 23.273-23.382zm448.727 397.179c0 12.863-10.465 23.328-23.327 23.328h-425.346c-12.862-.001-23.327-10.465-23.327-23.328v-302.161c0-12.863 10.465-23.328 23.327-23.328h425.346c12.862 0 23.327 10.465 23.327 23.328z"/><path d="m308.586 253.523h-5.479v-4.421c0-25.975-21.132-47.106-47.106-47.106s-47.106 21.132-47.106 47.106v4.421h-5.48c-5.522 0-10 4.477-10 10v96.256c0 5.523 4.478 10 10 10h105.172c5.522 0 10-4.477 10-10v-96.256c-.001-5.523-4.479-10-10.001-10zm-79.692-4.421c0-14.947 12.16-27.106 27.106-27.106s27.106 12.16 27.106 27.106v4.421h-54.213v-4.421zm69.692 100.677h-85.172v-76.256h85.172z"/><path d="m263.74 296.415h-15.48c-5.522 0-10 4.477-10 10 0 4.746 3.306 8.719 7.74 9.744v.728c0 5.523 4.477 10 10 10 5.522 0 10-4.477 10-10v-.728c4.434-1.024 7.74-4.998 7.74-9.744 0-5.522-4.477-10-10-10z"/></g></g></svg>