<svg id="Capa_1" enable-background="new 0 0 512 512" height="512" viewBox="0 0 512 512" width="512" xmlns="http://www.w3.org/2000/svg"><g><g><path d="m123.666 310.452h264.668v119.272h-264.668z" fill="#a4fcc4"/></g><g><g><path d="m256 271.696c-35.393 0-64.188-28.794-64.188-64.188v-6.919c0-5.523 4.477-10 10-10s10 4.477 10 10v6.919c0 24.365 19.822 44.188 44.188 44.188 14.247 0 27.712-6.962 36.018-18.623 3.204-4.499 9.449-5.547 13.947-2.343 4.499 3.204 5.547 9.448 2.343 13.947-12.051 16.918-31.606 27.019-52.308 27.019z" fill="#020288"/></g><g fill="#020288"><path d="m349.816 0h-187.632c-26.753 0-48.518 21.765-48.518 48.518v381.157.024.024 33.758c0 26.753 21.765 48.518 48.518 48.518h187.632c26.753 0 48.518-21.765 48.518-48.518v-414.963c0-26.753-21.765-48.518-48.518-48.518zm28.518 66.276v353.445l-244.668-.045v-353.4zm-216.15-46.276h187.632c14.97 0 27.283 11.594 28.431 26.274l-244.49-.044c1.169-14.659 13.472-26.23 28.427-26.23zm216.15 443.482c0 15.725-12.793 28.518-28.518 28.518h-187.632c-15.725 0-28.518-12.793-28.518-28.518v-23.758h244.668z"/><path d="m245.66 475.862h20.681c5.523 0 10-4.477 10-10s-4.477-10-10-10h-20.681c-5.523 0-10 4.477-10 10s4.477 10 10 10z"/><path d="m276.155 348.095c-4.531-3.155-10.765-2.038-13.92 2.495l-10.219 14.68-3.645-3.393c-4.042-3.764-10.371-3.537-14.133.505-3.764 4.042-3.538 10.37.505 14.133l12.081 11.247c1.86 1.732 4.298 2.681 6.814 2.681.354 0 .708-.019 1.063-.057 2.882-.308 5.488-1.852 7.145-4.23l16.804-24.141c3.155-4.532 2.038-10.765-2.495-13.92z"/><path d="m300.188 165.866v41.642c0 5.523 4.477 10 10 10s10-4.477 10-10v-41.642c0-5.523-4.477-10-10-10s-10 4.477-10 10z"/><path d="m201.812 165.653c5.523 0 10-4.477 10-10v-2.749c0-24.365 19.822-44.188 44.188-44.188 17.421 0 33.275 10.311 40.39 26.268 2.248 5.044 8.161 7.31 13.205 5.062 5.044-2.249 7.311-8.161 5.062-13.205-10.325-23.16-33.349-38.124-58.656-38.124-35.393 0-64.188 28.794-64.188 64.188v2.749c-.001 5.522 4.477 9.999 9.999 9.999z"/><path d="m270.188 178.462c5.523 0 10-4.477 10-10v-15.557c0-13.337-10.851-24.188-24.188-24.188s-24.188 10.851-24.188 24.188c0 5.523 4.477 10 10 10s10-4.477 10-10c0-2.309 1.878-4.188 4.188-4.188 2.309 0 4.188 1.878 4.188 4.188v15.557c0 5.523 4.477 10 10 10z"/><path d="m231.812 207.508c0 13.337 10.851 24.188 24.188 24.188s24.188-10.851 24.188-24.188c0-5.523-4.477-10-10-10s-10 4.477-10 10c0 2.309-1.878 4.188-4.188 4.188-2.309 0-4.188-1.878-4.188-4.188v-22.238c0-5.523-4.477-10-10-10s-10 4.477-10 10z"/></g></g></g></svg>