<?xml version="1.0" encoding="UTF-8"?>
<svg width="237px" height="308px" viewBox="0 0 237 308" version="1.1" xmlns="http://www.w3.org/2000/svg" xmlns:xlink="http://www.w3.org/1999/xlink">
    <title>Untitled 3</title>
    <defs>
        <path d="M159.113,98.919 C157.411,98.919 155.786,98.575 154.572,97.874 L2.729,10.208 C0.049,8.66 0.385,5.958 3.48,4.171 L10.323,0.219 L154.572,83.501 C155.786,84.202 157.411,84.545 159.113,84.545 C161.168,84.545 163.335,84.045 165.027,83.068 L227.459,47.008 L235.053,51.392 C237.733,52.94 237.397,55.642 234.302,57.429 L165.027,97.441 C163.335,98.418 161.167,98.919 159.113,98.919" id="path-1"></path>
        <radialGradient cx="-127.147778%" cy="9.90881459%" fx="-127.147778%" fy="9.90881459%" r="988.505984%" gradientTransform="translate(-1.271478,0.099088),scale(0.418322,1.000000),rotate(0.277050),scale(1.000000,0.758811),translate(1.271478,-0.099088)" id="radialGradient-3">
            <stop stop-color="#232752" offset="0%"></stop>
            <stop stop-color="#234283" offset="100%"></stop>
        </radialGradient>
        <path d="M159.113,99.545 C157.411,99.545 155.786,99.202 154.572,98.501 L2.729,10.834 C1.509,10.13 0.92,9.186 0.927,8.198 L0.92,8.197 L0.92,0.937 C0.944,1.898 1.539,2.813 2.729,3.5 L154.572,91.167 C155.786,91.867 157.411,92.211 159.113,92.211 C161.167,92.211 163.335,91.71 165.027,90.733 L234.302,50.721 C235.994,49.744 236.862,48.494 236.862,47.308 L236.862,54.587 L236.858,54.587 C236.885,55.789 236.021,57.064 234.302,58.055 L165.027,98.068 C163.335,99.045 161.168,99.545 159.113,99.545" id="path-4"></path>
        <path d="M159.113,135.211 C157.411,135.211 155.786,134.867 154.572,134.167 L2.729,46.5 C1.539,45.813 0.944,44.898 0.91925,43.937 C0.91925,43.898 0.91925,43.858 0.91925,43.819 C0.91925,43.817 0.91925,43.816 0.91925,43.814 C0.951,42.647 1.818,41.423 3.48,40.463 L72.755,0.451 C72.908,0.363 73.065,0.278 73.226,0.197 C73.92,1.864 74.655,3.554 75.431,5.257 L3.375,46.873 L153.925,133.793 L234.407,87.311 L235.053,87.685 C236.268,88.386 236.862001,89.325 236.862001,90.308 C236.862001,91.494 235.994,92.744 234.302,93.721 L165.027,133.733 C163.335,134.71 161.167,135.211 159.113,135.211" id="path-6"></path>
        <linearGradient x1="9.11269784%" y1="54.8947411%" x2="90.4959991%" y2="44.8568111%" id="linearGradient-8">
            <stop stop-color="#61B5DA" offset="0%"></stop>
            <stop stop-color="#83CEE8" offset="100%"></stop>
        </linearGradient>
        <path d="M5.426,9.837 C2.799,9.837 0.669,7.708 0.669,5.08 C0.669,2.453 2.799,0.324 5.426,0.324 C8.053,0.324 10.182,2.453 10.182,5.08 C10.182,7.708 8.053,9.837 5.426,9.837" id="path-9"></path>
        <radialGradient cx="-3571.37601%" cy="1667.98066%" fx="-3571.37601%" fy="1667.98066%" r="10256.0223%" gradientTransform="translate(-35.713760,16.679807),rotate(0.277050),scale(1.000000,0.758811),translate(35.713760,-16.679807)" id="radialGradient-11">
            <stop stop-color="#42709D" offset="0%"></stop>
            <stop stop-color="#539DC9" offset="100%"></stop>
        </radialGradient>
        <path d="M5.069,9.837 C2.442,9.837 0.313,7.708 0.313,5.08 C0.313,2.453 2.442,0.324 5.069,0.324 C7.696,0.324 9.826,2.453 9.826,5.08 C9.826,7.708 7.696,9.837 5.069,9.837" id="path-12"></path>
        <radialGradient cx="-3409.9548%" cy="1667.98066%" fx="-3409.9548%" fy="1667.98066%" r="10256.0223%" gradientTransform="translate(-34.099548,16.679807),rotate(0.277050),scale(1.000000,0.758811),translate(34.099548,-16.679807)" id="radialGradient-14">
            <stop stop-color="#262D59" offset="0%"></stop>
            <stop stop-color="#3573AC" offset="100%"></stop>
        </radialGradient>
        <path d="M121.246,157.644 C120.808,157.644 120.325,157.506 119.817,157.212 L54.317,119.396 C67.23,101.097 64.312,73.06 64.312,73.06 L26.722,32.696 L0.753,30.594 L0.753,37.507 L0.753,4.117 C0.753,2.651 1.246,1.623 2.023,1.191 C2.292,1.042 2.595,0.964 2.924,0.964 C3.362,0.964 3.845,1.102 4.353,1.395 L119.817,68.059 C121.805,69.207 123.417,72.286 123.417,74.937 L123.417,154.491 C123.417,155.904 122.959,156.91 122.23,157.368 C121.941,157.549 121.609,157.644 121.246,157.644" id="path-15"></path>
        <linearGradient x1="101.606217%" y1="99.2507021%" x2="2.59707246%" y2="4.76002042%" id="linearGradient-17">
            <stop stop-color="#61B5DA" offset="0%"></stop>
            <stop stop-color="#83CEE8" offset="100%"></stop>
        </linearGradient>
        <path d="M4.317,2.397 L0.172,0.003 L4.317,2.396 C4.317,2.397 4.317,2.397 4.317,2.397" id="path-18"></path>
        <radialGradient cx="-10597.0567%" cy="2213.70092%" fx="-10597.0567%" fy="2213.70092%" r="40754.1941%" gradientTransform="translate(-105.970567,22.137009),scale(0.577563,1.000000),rotate(0.277050),scale(1.000000,0.758811),translate(105.970567,-22.137009)" id="radialGradient-20">
            <stop stop-color="#1C1F44" offset="0%"></stop>
            <stop stop-color="#265894" offset="100%"></stop>
        </radialGradient>
        <path d="M54.317,89.396 L50.172,87.003 C52.146,82.361 53.441,77.502 54.278,72.874 L59.573,75.931 L59.573,73.002 L54.717,70.199 C56.414,58.695 55.429,49.253 55.429,49.253 L17.839,8.889 L0.753,7.507 L0.753,0.594 L26.722,2.696 L64.312,43.06 C64.312,43.06 67.23,71.097 54.317,89.397" id="path-21"></path>
        <linearGradient x1="157.420697%" y1="141.747463%" x2="-2.9904805%" y2="-24.967625%" id="linearGradient-23">
            <stop stop-color="#4A91BF" offset="0%"></stop>
            <stop stop-color="#65ABCF" offset="100%"></stop>
        </linearGradient>
        <path d="M50.801,103.116 C71.867,86.502 67.971,49.136 67.971,49.136 L30.381,8.772 L14.925,7.21 L0.974,6.277 C1.021,2.776 1.249,0.848 1.249,0.848 L21.753,2.507 L38.839,3.889 L76.429,44.253 C76.429,44.253 77.414,53.695 75.717,65.199 C75.587,66.078 75.441,66.973 75.278,67.874 C74.441,72.502 73.146,77.361 71.172,82.003 C69.156,86.739 66.435,91.245 62.767,95.052 C60.089,97.832 56.905,100.238 53.127,102.083 C52.807,102.239 52.485,102.39 52.156,102.538 C51.714,102.738 51.26,102.931 50.801,103.116" id="path-24"></path>
        <polyline id="path-26" points="9.249 0.848 0.792 5.731 38.381 8.772 46.839 3.889 9.249 0.848"></polyline>
        <linearGradient x1="100%" y1="50%" x2="-0.00130301648%" y2="50%" id="linearGradient-28">
            <stop stop-color="#1B5A98" offset="0%"></stop>
            <stop stop-color="#2F69A4" offset="100%"></stop>
        </linearGradient>
        <path d="M38.381,105.736 C37.745,104.948 37.122,104.164 36.506,103.377 C34.536,100.858 32.668,98.34 30.905,95.843 C30.753,95.627 30.602,95.412 30.451,95.197 C23.73,85.588 18.5,76.186 14.431,67.257 C13.655,65.554 12.92,63.864 12.226,62.197 C-2.346,27.189 0.791,0.731 0.791,0.731 L8.974,1.277 L22.925,2.21 L38.381,3.772 L75.971,44.136 C75.971,44.136 79.867,81.502 58.801,98.116 C55.916,100.391 52.566,102.276 48.671,103.623 C45.592,104.688 42.173,105.417 38.381,105.736 M3.814,5.737 C3.814,5.737 -1.617,51.553 37.611,100.147 C76.839,96.85 71.408,44.762 71.408,44.762 L37.611,8.472 L23.715,7.067 L3.814,5.737" id="path-29"></path>
        <linearGradient x1="23.9808633%" y1="30.6233037%" x2="76.0192147%" y2="72.2718918%" id="linearGradient-31">
            <stop stop-color="#83CEE8" offset="0%"></stop>
            <stop stop-color="#61B5DA" offset="100%"></stop>
        </linearGradient>
        <path d="M34.611,95.147 C-4.617,46.553 0.814,0.737 0.814,0.737 L20.715,2.067 L34.611,3.472 L68.408,39.762 C68.408,39.762 73.839,91.85 34.611,95.147" id="path-32"></path>
        <linearGradient x1="21.6493983%" y1="28.7575469%" x2="79.5272923%" y2="75.0800763%" id="linearGradient-34">
            <stop stop-color="#9AD5EA" offset="0%"></stop>
            <stop stop-color="#7BC4E2" offset="100%"></stop>
        </linearGradient>
        <polyline id="path-35" points="2.734 17.841 0.545 15.652 7.118 9.079 0.545 2.505 2.734 0.316 11.497 9.079 2.734 17.841"></polyline>
        <radialGradient cx="-4561.91563%" cy="774.225392%" fx="-4561.91563%" fy="774.225392%" r="8908.46792%" gradientTransform="translate(-45.619156,7.742254),scale(1.000000,0.624936),rotate(0.277050),scale(1.000000,0.758811),translate(45.619156,-7.742254)" id="radialGradient-37">
            <stop stop-color="#42709D" offset="0%"></stop>
            <stop stop-color="#539DC9" offset="100%"></stop>
        </radialGradient>
    </defs>
    <g id="Page-1" stroke="none" stroke-width="1" fill="none" fill-rule="evenodd">
        <g id="Group-269" transform="translate(0.000000, 191.010146)">
            <mask id="mask-2" fill="white">
                <use xlink:href="#path-1"></use>
            </mask>
            <g id="Clip-268"></g>
            <path d="M159.113,98.919 C157.411,98.919 155.786,98.575 154.572,97.874 L2.729,10.208 C0.049,8.66 0.385,5.958 3.48,4.171 L10.323,0.219 L154.572,83.501 C155.786,84.202 157.411,84.545 159.113,84.545 C161.168,84.545 163.335,84.045 165.027,83.068 L227.459,47.008 L235.053,51.392 C237.733,52.94 237.397,55.642 234.302,57.429 L165.027,97.441 C163.335,98.418 161.167,98.919 159.113,98.919" id="Fill-267" fill="url(#radialGradient-3)" mask="url(#mask-2)"></path>
        </g>
        <g id="Group-272" transform="translate(0.000000, 176.010146)">
            <mask id="mask-5" fill="white">
                <use xlink:href="#path-4"></use>
            </mask>
            <g id="Clip-271"></g>
            <path d="M159.113,99.545 C157.411,99.545 155.786,99.202 154.572,98.501 L2.729,10.834 C1.509,10.13 0.92,9.186 0.927,8.198 L0.92,8.197 L0.92,0.937 C0.944,1.898 1.539,2.813 2.729,3.5 L154.572,91.167 C155.786,91.867 157.411,92.211 159.113,92.211 C161.167,92.211 163.335,91.71 165.027,90.733 L234.302,50.721 C235.994,49.744 236.862,48.494 236.862,47.308 L236.862,54.587 L236.858,54.587 C236.885,55.789 236.021,57.064 234.302,58.055 L165.027,98.068 C163.335,99.045 161.168,99.545 159.113,99.545" id="Fill-270" mask="url(#mask-5)"></path>
        </g>
        <g id="Group-275" transform="translate(0.000000, 133.010146)">
            <mask id="mask-7" fill="white">
                <use xlink:href="#path-6"></use>
            </mask>
            <g id="Clip-274"></g>
            <path d="M159.113,135.211 C157.411,135.211 155.786,134.867 154.572,134.167 L2.729,46.5 C1.539,45.813 0.944,44.898 0.91925,43.937 C0.91925,43.898 0.91925,43.858 0.91925,43.819 C0.91925,43.817 0.91925,43.816 0.91925,43.814 C0.951,42.647 1.818,41.423 3.48,40.463 L72.755,0.451 C72.908,0.363 73.065,0.278 73.226,0.197 C73.92,1.864 74.655,3.554 75.431,5.257 L3.375,46.873 L153.925,133.793 L234.407,87.311 L235.053,87.685 C236.268,88.386 236.862001,89.325 236.862001,90.308 C236.862001,91.494 235.994,92.744 234.302,93.721 L165.027,133.733 C163.335,134.71 161.167,135.211 159.113,135.211" id="Fill-273" fill="url(#linearGradient-8)" mask="url(#mask-7)"></path>
        </g>
        <path d="M234.302,225.787146 L165.027,265.799146 C161.933,267.585146 157.252,267.780146 154.572,266.232146 L2.729,178.566146 C1.716,177.981146 1.136,177.231146 0.97,176.428146 C0.758,177.574146 1.326,178.700146 2.729,179.510146 L154.572,267.176146 C157.252,268.724146 161.933,268.530146 165.027,266.743146 L234.302,226.731146 C236.228,225.619146 237.084,224.154146 236.812,222.832146 C236.618,223.875146 235.778,224.935146 234.302,225.787146" id="Fill-276" fill="#FFFFFE"></path>
        <polyline id="Fill-277" fill="#225B9A" points="234.407 220.321146 153.925 266.803146 3.375 179.883146 83.856 133.401146 234.407 220.321146"></polyline>
        <path d="M48.5,151.597146 L37.809,157.769146 C37.345,158.037146 36.643,158.066146 36.241,157.834146 L36.133,157.771146 C35.731,157.539146 35.781,157.134146 36.245,156.866146 L46.936,150.694146 C47.4,150.426146 48.102,150.396146 48.504,150.629146 L48.613,150.691146 C49.015,150.923146 48.964,151.329146 48.5,151.597146" id="Fill-278" fill="#1C5997"></path>
        <polyline id="Fill-279" fill="#FFFFFE" points="22.981 180.640146 21.631 181.419146 18.434 179.573146 19.784 178.794146 22.981 180.640146"></polyline>
        <polyline id="Fill-280" fill="#FFFFFE" points="25.467 179.205146 24.118 179.984146 20.921 178.138146 22.271 177.359146 25.467 179.205146"></polyline>
        <polyline id="Fill-281" fill="#FFFFFE" points="27.954 177.769146 26.604 178.548146 23.407 176.703146 24.757 175.923146 27.954 177.769146"></polyline>
        <polyline id="Fill-282" fill="#FFFFFE" points="30.44 176.333146 29.09 177.113146 25.893 175.267146 27.243 174.488146 30.44 176.333146"></polyline>
        <path d="M76.138,42.3341463 C78.765,42.3341463 80.895,44.4631463 80.895,47.0901463 C80.895,49.7181463 78.765,51.8471463 76.138,51.8471463 C73.511,51.8471463 71.381,49.7181463 71.381,47.0901463 C71.381,44.4631463 73.511,42.3341463 76.138,42.3341463" id="Fill-283" fill="#FFFFFE"></path>
        <path d="M60.782,42.3341463 C63.409,42.3341463 65.539,44.4631463 65.539,47.0901463 C65.539,49.7181463 63.409,51.8471463 60.782,51.8471463 C58.155,51.8471463 56.025,49.7181463 56.025,47.0901463 C56.025,44.4631463 58.155,42.3341463 60.782,42.3341463" id="Fill-284" fill="#84CEE8"></path>
        <g id="Group-287" transform="translate(40.000000, 42.010146)">
            <mask id="mask-10" fill="white">
                <use xlink:href="#path-9"></use>
            </mask>
            <g id="Clip-286"></g>
            <path d="M5.426,9.837 C2.799,9.837 0.669,7.708 0.669,5.08 C0.669,2.453 2.799,0.324 5.426,0.324 C8.053,0.324 10.182,2.453 10.182,5.08 C10.182,7.708 8.053,9.837 5.426,9.837" id="Fill-285" fill="url(#radialGradient-11)" mask="url(#mask-10)"></path>
        </g>
        <g id="Group-290" transform="translate(25.000000, 42.010146)">
            <mask id="mask-13" fill="white">
                <use xlink:href="#path-12"></use>
            </mask>
            <g id="Clip-289"></g>
            <path d="M5.069,9.837 C2.442,9.837 0.313,7.708 0.313,5.08 C0.313,2.453 2.442,0.324 5.069,0.324 C7.696,0.324 9.826,2.453 9.826,5.08 C9.826,7.708 7.696,9.837 5.069,9.837" id="Fill-288" fill="url(#radialGradient-14)" mask="url(#mask-13)"></path>
        </g>
        <path d="M102.666,205.167146 C95.779,205.167146 88.895,203.651146 83.641,200.617146 C73.134,194.551146 73.134,184.716146 83.64,178.650146 C87.575,176.378146 92.427,174.957146 97.506,174.387146 C98.122,175.174146 98.745,175.958146 99.381,176.746146 C103.173,176.427146 106.592,175.698146 109.671,174.633146 C114.074,175.316146 118.234,176.655146 121.69,178.650146 C132.197,184.716146 132.197,194.551146 121.69,200.618146 C116.437,203.650146 109.551,205.167146 102.666,205.167146" id="Fill-291" fill="#273667"></path>
        <path d="M102.665,166.035146 C92.101,166.035146 81.537,168.357146 73.495,172.999146 C65.772,177.459146 61.518,183.366146 61.518,189.633146 C61.518,195.901146 65.772,201.808146 73.497,206.268146 C89.581,215.553146 115.752,215.553146 131.835,206.268146 C139.559,201.808146 143.813,195.901146 143.813,189.634146 C143.813,183.367146 139.559,177.460146 131.834,172.999146 C123.792,168.357146 113.229,166.035146 102.665,166.035146 M102.665,213.940146 C91.972,213.940146 81.279,211.589146 73.137,206.889146 C65.182,202.296146 60.8,196.167146 60.8,189.633146 C60.8,183.098146 65.181,176.970146 73.136,172.378146 C89.419,162.978146 115.91,162.978146 132.194,172.378146 C140.149,176.971146 144.531,183.099146 144.531,189.634146 C144.531,196.168146 140.15,202.296146 132.195,206.889146 C124.053,211.589146 113.36,213.940146 102.665,213.940146" id="Fill-292" fill="#FFFFFE"></path>
        <path d="M211.49,98.0931463 L96.026,31.4291463 C95.126,30.9101463 94.305,30.8791463 93.674,31.2431463 L93.674,31.2371463 L91.958,32.2391463 C91.958,32.2391463 92.354,32.2961463 92.753,32.3511463 C92.545,32.8371463 92.426,33.4411463 92.426,34.1511463 L92.426,113.705146 C92.426,116.356146 94.038,119.435146 96.026,120.583146 L211.49,187.246146 C211.708,187.372146 211.92,187.465146 212.128,187.535146 L212.128,188.437146 L213.853,187.432146 L213.843,187.433146 C214.605,186.993146 215.09,185.975146 215.09,184.525146 L215.09,104.971146 C215.09,102.320146 213.478,99.2401463 211.49,98.0931463" id="Fill-293" fill="#FFFFFE"></path>
        <g id="Group-296" transform="translate(90.000000, 31.010146)">
            <mask id="mask-16" fill="white">
                <use xlink:href="#path-15"></use>
            </mask>
            <g id="Clip-295"></g>
            <path d="M121.246,157.644 C120.808,157.644 120.325,157.506 119.817,157.212 L54.317,119.396 C67.23,101.097 64.312,73.06 64.312,73.06 L26.722,32.696 L0.753,30.594 L0.753,37.507 L0.753,4.117 C0.753,2.651 1.246,1.623 2.023,1.191 C2.292,1.042 2.595,0.964 2.924,0.964 C3.362,0.964 3.845,1.102 4.353,1.395 L119.817,68.059 C121.805,69.207 123.417,72.286 123.417,74.937 L123.417,154.491 C123.417,155.904 122.959,156.91 122.23,157.368 C121.941,157.549 121.609,157.644 121.246,157.644" id="Fill-294" fill="url(#linearGradient-17)" mask="url(#mask-16)"></path>
        </g>
        <path d="M177.177,102.774146 L177.835,103.154146 C178.37,103.462146 178.74,103.533146 178.945,103.363146 C179.151,103.195146 179.253,102.779146 179.253,102.117146 C179.253,101.431146 179.138,100.869146 178.907,100.426146 C178.675,99.9851463 178.287,99.6071463 177.741,99.2911463 L177.177,98.9661463 L177.177,102.774146 Z M177.177,97.5071463 L177.735,97.8301463 C178.261,98.1321463 178.622,98.2111463 178.821,98.0661463 C179.018,97.9191463 179.117,97.5391463 179.117,96.9211463 C179.117,96.6021463 179.084,96.3241463 179.019,96.0871463 C178.954,95.8511463 178.844,95.6381463 178.69,95.4491463 C178.536,95.2591463 178.365,95.0951463 178.177,94.9551463 C177.989,94.8141463 177.739,94.6541463 177.426,94.4721463 L177.177,94.3301463 L177.177,97.5071463 Z M175.386,103.199146 L175.386,91.8431463 L177.794,93.2341463 C178.249,93.4961463 178.646,93.7721463 178.983,94.0601463 C179.322,94.3491463 179.622,94.6771463 179.885,95.0461463 C180.148,95.4161463 180.346,95.8301463 180.481,96.2911463 C180.616,96.7521463 180.68,97.2531463 180.677,97.7941463 C180.673,99.1951463 180.191,99.6991463 179.229,99.3081463 C179.811,99.7721463 180.245,100.316146 180.532,100.941146 C180.819,101.564146 180.964,102.293146 180.967051,103.126146 C180.971,104.207146 180.738,104.890146 180.268,105.178146 C179.796,105.465146 179.111,105.349146 178.209,104.829146 L175.386,103.199146 L175.386,103.199146 Z" id="Fill-297" fill="#FFFFFE"></path>
        <path d="M183.892,104.123146 L185.208,104.883146 L184.55,99.8391463 L183.892,104.123146 Z M181.608,106.791146 L183.607,96.5891463 L185.475,97.6671463 L187.468,110.174146 L185.801,109.212146 L185.404,106.345146 L183.702,105.363146 L183.298,107.767146 L181.608,106.791146 L181.608,106.791146 Z" id="Fill-298" fill="#FFFFFE"></path>
        <polyline id="Fill-299" fill="#FFFFFE" points="188.436 110.733146 188.436 99.3771463 189.669 100.089146 192.078 107.912146 192.078 101.480146 193.56 102.335146 193.56 113.691146 192.386 113.013146 189.954 104.849146 189.954 111.609146 188.436 110.733146"></polyline>
        <polyline id="Fill-300" fill="#FFFFFE" points="195.032 114.541146 195.032 103.185146 196.823 104.220146 196.823 109.151146 198.756 105.335146 200.464 106.322146 198.584 110.319146 200.661 117.791146 198.874 116.759146 197.179 110.439146 196.823 110.972146 196.823 115.576146 195.032 114.541146"></polyline>
        <polyline id="Fill-301" fill="#FFFFFE" points="122.632 121.386146 100.714 108.732146 100.714 105.803146 122.632 118.458146 122.632 121.386146"></polyline>
        <polyline id="Fill-302" fill="#FFFFFE" points="149.573 136.941146 127.655 124.287146 127.655 121.358146 149.573 134.012146 149.573 136.941146"></polyline>
        <polyline id="Fill-303" fill="#FFFFFE" points="176.514 152.496146 154.596 139.841146 154.596 136.912146 176.514 149.567146 176.514 152.496146"></polyline>
        <polyline id="Fill-304" fill="#FFFFFE" points="203.456 168.050146 181.537 155.395146 181.537 152.467146 203.456 165.121146 203.456 168.050146"></polyline>
        <g id="Group-307" transform="translate(140.000000, 148.010146)">
            <mask id="mask-19" fill="white">
                <use xlink:href="#path-18"></use>
            </mask>
            <g id="Clip-306"></g>
            <path d="M4.317,2.397 L0.172,0.003 L4.317,2.396 C4.317,2.397 4.317,2.397 4.317,2.397" id="Fill-305" fill="url(#radialGradient-20)" mask="url(#mask-19)"></path>
        </g>
        <g id="Group-310" transform="translate(90.000000, 61.010146)">
            <mask id="mask-22" fill="white">
                <use xlink:href="#path-21"></use>
            </mask>
            <g id="Clip-309"></g>
            <path d="M54.317,89.396 L50.172,87.003 C52.146,82.361 53.441,77.502 54.278,72.874 L59.573,75.931 L59.573,73.002 L54.717,70.199 C56.414,58.695 55.429,49.253 55.429,49.253 L17.839,8.889 L0.753,7.507 L0.753,0.594 L26.722,2.696 L64.312,43.06 C64.312,43.06 67.23,71.097 54.317,89.397" id="Fill-308" fill="url(#linearGradient-23)" mask="url(#mask-22)"></path>
        </g>
        <path d="M149.573,136.941146 L144.278,133.884146 C144.441,132.983146 144.587,132.088146 144.717,131.209146 L149.573,134.012146 L149.573,136.941146" id="Fill-311" fill="#C9CCD5"></path>
        <g id="Group-314" transform="translate(69.000000, 66.010146)">
            <mask id="mask-25" fill="white">
                <use xlink:href="#path-24"></use>
            </mask>
            <g id="Clip-313"></g>
            <path d="M50.801,103.116 C71.867,86.502 67.971,49.136 67.971,49.136 L30.381,8.772 L14.925,7.21 L0.974,6.277 C1.021,2.776 1.249,0.848 1.249,0.848 L21.753,2.507 L38.839,3.889 L76.429,44.253 C76.429,44.253 77.414,53.695 75.717,65.199 C75.587,66.078 75.441,66.973 75.278,67.874 C74.441,72.502 73.146,77.361 71.172,82.003 C69.156,86.739 66.435,91.245 62.767,95.052 C60.089,97.832 56.905,100.238 53.127,102.083 C52.807,102.239 52.485,102.39 52.156,102.538 C51.714,102.738 51.26,102.931 50.801,103.116" id="Fill-312" mask="url(#mask-25)"></path>
        </g>
        <g id="Group-317" transform="translate(61.000000, 66.010146)">
            <mask id="mask-27" fill="white">
                <use xlink:href="#path-26"></use>
            </mask>
            <g id="Clip-316"></g>
            <polyline id="Fill-315" fill="url(#linearGradient-28)" mask="url(#mask-27)" points="9.249 0.848 0.792 5.731 38.381 8.772 46.839 3.889 9.249 0.848"></polyline>
        </g>
        <g id="Group-320" transform="translate(61.000000, 71.010146)">
            <mask id="mask-30" fill="white">
                <use xlink:href="#path-29"></use>
            </mask>
            <g id="Clip-319"></g>
            <path d="M38.381,105.736 C37.745,104.948 37.122,104.164 36.506,103.377 C34.536,100.858 32.668,98.34 30.905,95.843 C30.753,95.627 30.602,95.412 30.451,95.197 C23.73,85.588 18.5,76.186 14.431,67.257 C13.655,65.554 12.92,63.864 12.226,62.197 C-2.346,27.189 0.791,0.731 0.791,0.731 L8.974,1.277 L22.925,2.21 L38.381,3.772 L75.971,44.136 C75.971,44.136 79.867,81.502 58.801,98.116 C55.916,100.391 52.566,102.276 48.671,103.623 C45.592,104.688 42.173,105.417 38.381,105.736 M3.814,5.737 C3.814,5.737 -1.617,51.553 37.611,100.147 C76.839,96.85 71.408,44.762 71.408,44.762 L37.611,8.472 L23.715,7.067 L3.814,5.737" id="Fill-318" fill="url(#linearGradient-31)" mask="url(#mask-30)"></path>
        </g>
        <path d="M136.971,115.146146 L99.381,74.7821463 L61.792,71.7411463 C62.854,71.1271463 62.854,71.1271463 62.854,71.1271463 L100.944,74.2091463 L138.534,114.573146 C138.534,114.573146 143.577,163.002146 111.085,174.100146 C141.851,162.006146 136.971,115.146146 136.971,115.146146" id="Fill-321" fill="#FFFFFE"></path>
        <g id="Group-324" transform="translate(64.000000, 76.010146)">
            <mask id="mask-33" fill="white">
                <use xlink:href="#path-32"></use>
            </mask>
            <g id="Clip-323"></g>
            <path d="M34.611,95.147 C-4.617,46.553 0.814,0.737 0.814,0.737 L20.715,2.067 L34.611,3.472 L68.408,39.762 C68.408,39.762 73.839,91.85 34.611,95.147" id="Fill-322" fill="url(#linearGradient-34)" mask="url(#mask-33)"></path>
        </g>
        <polyline id="Fill-325" fill="#FFFFFE" points="73.36 91.8171463 72.031 90.4881463 73.36 89.1591463 74.689 90.4881463 73.36 91.8171463"></polyline>
        <polyline id="Fill-326" fill="#FFFFFE" points="78.161 91.8001463 76.832 90.4711463 78.161 89.1421463 79.49 90.4711463 78.161 91.8001463"></polyline>
        <polyline id="Fill-327" fill="#FFFFFE" points="75.769 89.4081463 74.44 88.0791463 75.769 86.7501463 77.098 88.0791463 75.769 89.4081463"></polyline>
        <polyline id="Fill-328" fill="#FFFFFE" points="75.752 94.2091463 74.423 92.8801463 75.752 91.5511463 77.081 92.8801463 75.752 94.2091463"></polyline>
        <path d="M211.279,80.6621463 L212.922,82.3051463 L221.139,74.0881463 L212.922,65.8721463 L211.279,67.5151463 L217.852,74.0881463 L211.279,80.6621463 Z M212.922,83.3971463 L210.187,80.6621463 L216.76,74.0881463 L210.187,67.5151463 L212.922,64.7801463 L222.231,74.0881463 L212.922,83.3971463 L212.922,83.3971463 Z" id="Fill-329" fill="#FFFFFE"></path>
        <g id="Group-332" transform="translate(200.000000, 65.010146)">
            <mask id="mask-36" fill="white">
                <use xlink:href="#path-35"></use>
            </mask>
            <g id="Clip-331"></g>
            <polyline id="Fill-330" fill="url(#radialGradient-37)" mask="url(#mask-36)" points="2.734 17.841 0.545 15.652 7.118 9.079 0.545 2.505 2.734 0.316 11.497 9.079 2.734 17.841"></polyline>
        </g>
        <path d="M159.179,242.024146 C158.908,242.024146 158.678,241.815146 158.656,241.540146 C158.633,241.250146 158.848,240.997146 159.138,240.974146 C167.073,240.342146 175.011,237.935146 181.488,234.195146 C188.525,230.132146 192.739,226.088146 194.013,222.173146 C194.103,221.898146 194.398,221.745146 194.676,221.837146 C194.951,221.926146 195.102,222.222146 195.013,222.499146 C193.655,226.667146 189.282,230.909146 182.014,235.105146 C175.404,238.921146 167.309,241.378146 159.221,242.022146 L159.179,242.024146" id="Fill-333" fill="#FFFFFE"></path>
        <path d="M194.93,220.039146 C194.648,220.039146 194.415,219.816146 194.405,219.533146 C194.293,216.417146 192.024,213.495146 187.846,211.083146 C178.607,205.748146 166.557,205.777146 153.918,211.163146 C153.652,211.275146 153.342,211.152146 153.229,210.885146 C153.115,210.618146 153.24,210.310146 153.506,210.195146 C166.457,204.678146 178.839,204.670146 188.371,210.173146 C192.88,212.776146 195.329,215.999146 195.455383,219.495146 C195.466,219.785146 195.239,220.028146 194.949,220.039146 L194.93,220.039146" id="Fill-334" fill="#FFFFFE"></path>
        <path d="M151.169,242.000146 L151.12,241.998146 C146.705,241.586146 142.819,240.472146 139.881,238.776146 C136.624,236.895146 134.594,234.353146 134.012,231.423146 C133.931,231.015146 134.05,230.601146 134.348,230.257146 C134.864,229.661146 135.847,229.329146 136.923,229.384146 C138.148,229.450146 139.12,230.016146 139.341,230.792146 C139.921,232.824146 141.416,234.549146 143.783,235.916146 C151.988,240.653146 167.789,239.238146 179.006,232.762146 C186.244,228.583146 190.071,224.323146 190.071,220.443146 C190.071,217.711146 188.133,215.149146 184.468,213.033146 C175.013,207.574146 162.174,208.723146 149.246,216.186146 C144.581,218.879146 141.236,222.178146 139.828,225.476146 C139.538,226.156146 138.654,226.614146 137.576,226.644146 C136.52,226.659146 135.6,226.290146 135.203,225.670146 C134.965,225.299146 134.939,224.864146 135.131,224.475146 C137.035,220.616146 140.876,216.940146 146.238,213.844146 C146.49,213.698146 146.811,213.785146 146.956,214.036146 C147.101,214.287146 147.015,214.609146 146.764,214.754146 C141.582,217.745146 137.886,221.268146 136.073,224.940146 L136.088,225.103146 C136.249,225.355146 136.806,225.603146 137.547,225.593146 C138.307,225.573146 138.773,225.271146 138.861,225.063146 C140.359,221.557146 143.86,218.082146 148.72,215.276146 C161.982,207.619146 175.204,206.470146 184.994,212.123146 C189.003,214.437146 191.122,217.315146 191.122,220.443146 C191.122,224.781146 187.222,229.232146 179.532,233.672146 C168.025,240.316146 151.752,241.730146 143.258,236.826146 C140.683,235.339146 138.979,233.352146 138.33,231.080146 C138.251,230.803146 137.669,230.477146 136.866,230.434146 C136.023,230.386146 135.383,230.668146 135.142,230.946146 C135.017,231.089146 135.036,231.183146 135.043,231.218146 C135.564,233.843146 137.419,236.141146 140.406,237.866146 C143.214,239.487146 146.952,240.553146 151.218,240.952146 C151.506,240.979146 151.719,241.235146 151.692,241.524146 C151.667,241.796146 151.438,242.000146 151.169,242.000146" id="Fill-335" fill="#FFFFFE"></path>
        <path d="M164.405,236.576146 C163.562,236.576146 162.75,236.290146 162.308,235.802146 C161.981,235.439146 161.874,234.987146 162.014,234.560146 C162.202,233.989146 162.808,233.548146 163.634,233.379146 C167.203,232.656146 170.658,231.367146 173.624,229.655146 C178.482,226.850146 181.233,224.047146 181.581,221.551146 C181.754,220.311146 181.321,219.147146 180.296,218.091146 C179.945,217.729146 179.809,217.287146 179.913,216.845146 C180.043,216.290146 180.541,215.822146 181.278,215.561146 C182.555,215.109146 184.146,215.380146 184.901,216.177146 C186.335,217.693146 186.992,219.368146 186.853,221.156146 C186.65,223.752146 184.772,226.437146 181.269,229.140146 C181.041,229.318146 180.71,229.275146 180.533,229.045146 C180.355,228.815146 180.398,228.485146 180.628,228.308146 C183.885,225.795146 185.627,223.361146 185.805,221.074146 C185.92,219.595146 185.359,218.190146 184.137,216.899146 C183.724,216.462146 182.563,216.222146 181.628,216.552146 C181.172,216.713146 180.97,216.940146 180.936,217.085146 C180.929,217.116146 180.907,217.211146 181.05,217.358146 C182.313,218.659146 182.841,220.119146 182.622,221.696146 C182.222,224.565146 179.372,227.549146 174.149,230.564146 C171.086,232.333146 167.522,233.663146 163.844,234.410146 C163.348,234.510146 163.065,234.729146 163.012,234.889146 C163.003,234.916146 162.982,234.980146 163.089,235.098146 C163.369,235.407146 164.158,235.640146 164.942,235.469146 C169.015,234.594146 172.933,233.113146 176.273,231.184146 C176.524,231.039146 176.846,231.124146 176.991,231.376146 C177.136,231.627146 177.05,231.949146 176.799,232.094146 C173.365,234.077146 169.341,235.599146 165.163,236.497146 C164.914,236.550146 164.658,236.576146 164.405,236.576146" id="Fill-336" fill="#FFFFFE"></path>
        <path d="M170.664,212.117146 C164.865,212.117146 158.435,214.037146 151.979,217.764146 C146.463,220.948146 143.17,225.002146 143.17,228.606146 C143.17,230.835146 144.445,232.749146 146.857,234.141146 C149.147,235.463146 152.306,236.222146 155.99,236.336146 C156.68,236.361146 157.201,236.136146 157.424,235.908146 L157.537,235.692146 C157.524,235.423146 157,235.073146 156.173,235.026146 C153.478,234.872146 151.142,234.264146 149.418,233.269146 C147.589,232.213146 146.485,230.750146 146.225,229.040146 C145.911,226.972146 146.864,224.613146 148.909,222.399146 C149.608,221.643146 151.175,221.407146 152.331,221.889146 C152.938,222.140146 153.331,222.545146 153.437,223.030146 C153.524,223.425146 153.405,223.822146 153.104,224.148146 C151.695,225.674146 151.023,227.202146 151.213,228.452146 C151.349,229.344146 151.916,230.085146 152.899,230.653146 C156.628,232.806146 164.701,231.650146 170.891,228.077146 C175.146,225.620146 177.49,223.176146 177.49,221.194146 C177.49,220.090146 176.77,219.115146 175.352,218.296146 C171.349,215.985146 165.269,216.659146 158.671,220.147146 C157.751,220.633146 156.388,220.613146 155.499,220.100146 C154.964,219.791146 154.663,219.331146 154.672,218.838146 C154.681,218.330146 155.015,217.865146 155.587,217.561146 C162.795,213.739146 169.877,212.567146 175.532,214.264146 C176.497,214.554146 177.576,214.291146 177.941,213.874146 C178.073,213.722146 178.045,213.629146 178.035,213.594146 C177.983,213.417146 177.707,213.172146 177.208,213.025146 C175.15,212.417146 172.956,212.117146 170.664,212.117146 Z M156.082,237.388146 L155.958,237.387146 C152.1,237.267146 148.771,236.460146 146.332,235.051146 C143.576,233.460146 142.119,231.231146 142.119,228.606146 C142.119,224.622146 145.608,220.228146 151.453,216.854146 C160.713,211.508146 169.965,209.790146 177.505,212.016146 C178.315,212.255146 178.876,212.723146 179.044,213.300146 C179.172,213.738146 179.062,214.187146 178.733,214.563146 L178.733,214.564146 C178.052,215.345146 176.514,215.657146 175.23,215.271146 C169.843,213.655146 163.042,214.798146 156.08,218.489146 C155.819,218.628146 155.724,218.774146 155.723,218.856146 C155.721,218.953146 155.84,219.083146 156.024,219.190146 C156.597,219.521146 157.585,219.533146 158.18,219.218146 C165.104,215.558146 171.555,214.890146 175.878,217.386146 C177.62,218.392146 178.54,219.708146 178.54,221.194146 C178.54,223.635146 176.143,226.257146 171.416,228.987146 C164.936,232.727146 156.394,233.885146 152.374,231.563146 C151.118,230.837146 150.357,229.817146 150.174,228.610146 C149.932,227.015146 150.678,225.226146 152.332,223.435146 C152.427,223.332146 152.415,223.274146 152.411,223.255146 C152.387,223.148146 152.229,222.983146 151.929,222.859146 C151.123,222.526146 150.04,222.725146 149.681,223.112146 C147.857,225.087146 146.998,227.136146 147.264,228.882146 C147.477,230.286146 148.379,231.456146 149.943,232.359146 C151.526,233.273146 153.701,233.832146 156.233,233.977146 C157.575,234.053146 158.543,234.721146 158.585,235.602146 C158.605,236.005146 158.462,236.352146 158.174,236.645146 C157.713,237.114146 156.937,237.388146 156.082,237.388146 L156.082,237.388146 Z" id="Fill-337" fill="#FFFFFE"></path>
        <path d="M158.579,230.440146 C157.302,230.440146 156.236,230.218146 155.469,229.776146 C154.627,229.289146 154.182,228.565146 154.182,227.682146 C154.182,225.803146 156.206,223.513146 159.596,221.555146 C165.097,218.379146 169.903,217.511146 172.783,219.173146 C174.02,219.887146 174.3,220.782146 174.316,221.408146 C174.358,222.941146 172.93,224.663146 170.072,226.526146 C169.18,227.107146 167.683,227.135146 166.731,226.585146 C166.218,226.289146 165.917,225.847146 165.905,225.374146 C165.893,224.908146 166.148,224.482146 166.623,224.173146 C168.918,222.684146 168.916,222.069146 168.915,222.063146 C168.275,221.698146 166.342,222.014146 162.841,224.036146 C160.412,225.438146 159.408,226.640146 159.41,226.972146 C159.413,227.262146 159.179,227.499146 158.889,227.500146 L158.885,227.500146 C158.597,227.500146 158.362,227.268146 158.36,226.979146 C158.349,225.529146 161.385,223.663146 162.315,223.126146 C164.719,221.738146 167.898,220.262146 169.394,221.129146 C169.753,221.336146 169.956,221.659146 169.966,222.037146 C169.979,222.552146 169.707,223.425146 167.195,225.054146 C167.045,225.152146 166.953,225.264146 166.955,225.347146 C166.957,225.419146 167.037,225.549146 167.256,225.675146 C167.866,226.026146 168.935,226.012146 169.497,225.646146 C172.817,223.482146 173.283,222.080146 173.266,221.436146 C173.252,220.916146 172.912,220.461146 172.257,220.083146 C171.053,219.388146 167.46,218.229146 160.122,222.465146 C157.152,224.180146 155.233,226.228146 155.233,227.682146 C155.233,228.183146 155.482,228.569146 155.995,228.865146 C157.272,229.603146 159.78,229.561146 162.705,228.755146 C162.983,228.677146 163.275,228.842146 163.352,229.122146 C163.429,229.402146 163.264,229.691146 162.985,229.768146 C161.361,230.216146 159.863,230.440146 158.579,230.440146" id="Fill-338" fill="#FFFFFE"></path>
        <path d="M149.875,212.363146 L149.708,212.318146 L135.865,204.326146 C135.705,204.234146 135.65,204.030146 135.743,203.870146 C135.833,203.709146 136.038,203.656146 136.199,203.748146 L150.042,211.740146 C150.203,211.832146 150.257,212.036146 150.164,212.196146 C150.103,212.303146 149.991,212.363146 149.875,212.363146" id="Fill-339" fill="#FFFFFE"></path>
    </g>
</svg>