<?xml version="1.0" encoding="UTF-8"?>
<svg width="236px" height="282px" viewBox="0 0 236 282" version="1.1" xmlns="http://www.w3.org/2000/svg" xmlns:xlink="http://www.w3.org/1999/xlink">
    <title>Untitled 2</title>
    <defs>
        <polyline id="path-1" points="20.573 20.699 0.99 9.394 16.551 0.41 36.134 11.715 20.573 20.699"></polyline>
        <radialGradient cx="-205.059185%" cy="273.985904%" fx="-205.059185%" fy="273.985904%" r="4808.79001%" gradientTransform="translate(-2.050592,2.739859),scale(0.577310,1.000000),rotate(0.277050),scale(1.000000,0.758811),translate(2.050592,-2.739859)" id="radialGradient-3">
            <stop stop-color="#1C1F44" offset="0%"></stop>
            <stop stop-color="#26386C" offset="100%"></stop>
        </radialGradient>
        <polyline id="path-4" points="20.573 20.556 0.99 9.251 16.551 0.267 36.134 11.572 20.573 20.556"></polyline>
        <linearGradient x1="55.4034828%" y1="52.4106623%" x2="-23.7315047%" y2="17.1151169%" id="linearGradient-6">
            <stop stop-color="#61B5DA" offset="0%"></stop>
            <stop stop-color="#83CEE8" offset="100%"></stop>
        </linearGradient>
        <polyline id="path-7" points="16.134 12.699 16.134 0.572 0.573 9.556 0.573 21.684 16.134 12.699"></polyline>
        <linearGradient x1="0%" y1="49.9952634%" x2="100.001928%" y2="49.9952634%" id="linearGradient-9">
            <stop stop-color="#2F69A4" offset="0%"></stop>
            <stop stop-color="#1B5A98" offset="100%"></stop>
        </linearGradient>
        <polyline id="path-10" points="0.99 0.251 0.99 12.379 20.573 23.684 20.573 11.556 0.99 0.251"></polyline>
        <linearGradient x1="0%" y1="49.9978663%" x2="100%" y2="49.9978663%" id="linearGradient-12">
            <stop stop-color="#3E8FC1" offset="0%"></stop>
            <stop stop-color="#2F69A4" offset="100%"></stop>
        </linearGradient>
        <polyline id="path-13" points="9.031 0.415 0.554 5.309 0.554 7.933 1.465 7.39 1.465 5.842 9.036 1.471 9.031 0.415"></polyline>
        <linearGradient x1="0%" y1="50%" x2="99.998821%" y2="50%" id="linearGradient-15">
            <stop stop-color="#2F69A4" offset="0%"></stop>
            <stop stop-color="#1B5A98" offset="100%"></stop>
        </linearGradient>
        <polyline id="path-16" points="9.417 0.522 0.939 5.417 0.939 8.041 1.851 7.498 1.851 5.949 9.421 1.579 9.417 0.522"></polyline>
        <linearGradient x1="0%" y1="49.9933502%" x2="99.998821%" y2="49.9933502%" id="linearGradient-18">
            <stop stop-color="#2F69A4" offset="0%"></stop>
            <stop stop-color="#1B5A98" offset="100%"></stop>
        </linearGradient>
        <polyline id="path-19" points="8.808 0.634 0.33 5.529 0.33 8.153 1.242 7.61 1.242 6.062 8.812 1.691 8.808 0.634"></polyline>
        <path d="M64.251,65.983 C47.837,65.983 31.428,62.369 18.905,55.139 C-6.139,40.68 -6.139,17.238 18.904,2.779 C20.024,2.132 21.178,1.513 22.358,0.924 L22.358,8.508 C22.358,11.474 23.954,14.239 26.523,15.724 L92.837,54.039 C93.297,54.306 93.802,54.439 94.306,54.439 C94.811,54.439 95.315,54.306 95.775,54.04 C96.533,53.603 97.039,52.88 97.194,52.046 L100.529,53.972 C101.138,54.324 101.719,54.491 102.245,54.491 C102.674,54.491 103.066,54.38 103.409,54.169 L107.891,51.561 L107.886,51.56 C108.816,51.04 109.408,49.81 109.408,48.053 L109.408,6.601 C109.742,5.463 110.037,4.324 110.298,3.193 C134.636,17.682 134.401,40.818 109.595,55.14 C97.075,62.368 80.66,65.983 64.251,65.983" id="path-21"></path>
        <radialGradient cx="-100.734918%" cy="12.4118108%" fx="-100.734918%" fy="12.4118108%" r="1499.6471%" gradientTransform="translate(-1.007349,0.124118),scale(0.507262,1.000000),rotate(0.277050),scale(1.000000,0.758811),translate(1.007349,-0.124118)" id="radialGradient-23">
            <stop stop-color="#232752" offset="0%"></stop>
            <stop stop-color="#234283" offset="100%"></stop>
        </radialGradient>
        <path d="M71.409,208.169 C72.276,207.636 72.828,206.463 72.851,204.811 L72.852,204.812 L72.852,171.32 C74.86,167.936 76.333,164.273 77.408,160.601 L77.408,202.053 C77.408,203.81 76.816,205.04 75.886,205.56 L75.891,205.561 L71.409,208.169 M77.408,130.817 L72.852,125.924 L72.852,49.931 C72.808,46.772 70.89,43.142 68.529,41.779 L2.875,3.841 C2.265,3.489 1.684,3.322 1.158,3.322 C0.817,3.322 0.499,3.392 0.21,3.527 L4.652,0.936 C4.972,0.763 5.33,0.672 5.719,0.672 C6.244,0.672 6.823,0.838 7.431,1.189 L73.085,39.127 C75.473,40.505 77.408,44.204 77.408,47.387 L77.408,130.817" id="path-24"></path>
        <linearGradient x1="-0.0194305552%" y1="50.0012048%" x2="259.684189%" y2="50.0012048%" id="linearGradient-26">
            <stop stop-color="#3171AA" offset="0%"></stop>
            <stop stop-color="#3E8FC1" offset="100%"></stop>
        </linearGradient>
        <path d="M72.245,205.491 C71.719,205.491 71.138,205.324 70.529,204.972 L67.194,203.046 C67.227,202.867 67.245,202.683 67.245,202.496 L67.245,197.416 L74.852,201.812 C74.828,203.463 74.276,204.636 73.409,205.169 C73.066,205.38 72.674,205.491 72.245,205.491 M74.852,46.931 L0.551,4.002 C0.577,2.217 1.22,0.991 2.21,0.527 C2.499,0.392 2.817,0.322 3.158,0.322 C3.684,0.322 4.265,0.489 4.875,0.841 L70.529,38.779 C72.89,40.142 74.808,43.772 74.851,46.931" id="path-27"></path>
        <linearGradient x1="40.8405921%" y1="17.629369%" x2="59.0715055%" y2="82.0606427%" id="linearGradient-29">
            <stop stop-color="#61B5DA" offset="0%"></stop>
            <stop stop-color="#83CEE8" offset="100%"></stop>
        </linearGradient>
        <path d="M0.944,140.635 L0.944,123.494 C3.433,122.745 5.974,122.067 8.551,121.462 L8.551,137.449 C5.916,138.391 3.371,139.453 0.944,140.635 M0.944,122.8 L0.944,81.979 L8.551,86.371 L8.551,120.781 C5.973,121.382 3.435,122.055 0.944,122.8 M8.551,16.323 L0.944,11.931 L0.944,2.851 C0.944,2 1.383,1.239 2.119,0.814 C2.489,0.601 2.892,0.495 3.296,0.495 C3.7,0.495 4.104,0.602 4.472,0.814 L8.551,3.171 L8.551,16.323" id="path-30"></path>
        <radialGradient cx="-1998.42251%" cy="105.968317%" fx="-1998.42251%" fy="105.968317%" r="12825.7579%" gradientTransform="translate(-19.984225,1.059683),scale(1.000000,0.054281),rotate(0.277050),scale(1.000000,0.758811),translate(19.984225,-1.059683)" id="radialGradient-32">
            <stop stop-color="#646C8F" offset="0%"></stop>
            <stop stop-color="#77A2C5" offset="100%"></stop>
        </radialGradient>
        <path d="M72.307,56.853 C71.903,56.853 71.499,56.746 71.13,56.534 L4.816,18.218 C2.427,16.836 0.944,14.266 0.944,11.508 L0.944,3.635 C3.371,2.453 5.916,1.391 8.551,0.449 L8.551,10.882 C8.595,14.041 10.514,17.672 12.875,19.035 L74.647,54.73 C74.575,55.485 74.151,56.148 73.483,56.534 C73.114,56.746 72.71,56.853 72.307,56.853" id="path-33"></path>
        <radialGradient cx="-206.260261%" cy="20.4772711%" fx="-206.260261%" fy="20.4772711%" r="1729.76279%" gradientTransform="translate(-2.062603,0.204773),scale(0.765288,1.000000),rotate(0.277050),scale(1.000000,0.758811),translate(2.062603,-0.204773)" id="radialGradient-35">
            <stop stop-color="#686F95" offset="0%"></stop>
            <stop stop-color="#718AB1" offset="100%"></stop>
        </radialGradient>
        <path d="M66.647,44.73 L4.875,9.035 C2.514,7.672 0.595,4.041 0.552,0.882 L34.824,20.684 C37.022,23.846 39.403,27.032 41.986,30.232 C44.565,30.015 46.947,29.579 49.141,28.956 L66.659,39.078 L66.659,44.496 C66.659,44.575 66.655,44.653 66.647,44.73" id="path-36"></path>
        <linearGradient x1="-22.3002103%" y1="-94.7982642%" x2="133.938917%" y2="37.8383264%" id="linearGradient-38">
            <stop stop-color="#9CD2E8" offset="0%"></stop>
            <stop stop-color="#B4DFED" offset="100%"></stop>
        </linearGradient>
        <polyline id="path-39" points="8.551 13.782 0.944 9.39 0.944 0.931 8.551 5.323 8.551 13.782"></polyline>
        <radialGradient cx="-1998.42251%" cy="1066.59404%" fx="-1998.42251%" fy="1066.59404%" r="12825.7579%" gradientTransform="translate(-19.984225,10.665940),scale(1.000000,0.591938),rotate(0.277050),scale(1.000000,0.758811),translate(19.984225,-10.665940)" id="radialGradient-41">
            <stop stop-color="#505B83" offset="0%"></stop>
            <stop stop-color="#6184AB" offset="100%"></stop>
        </radialGradient>
        <path d="M23.052,10.076 C20.394,15.571 13.305,20.385 7.218,20.831 C1.131,21.276 -1.648,17.183 1.009,11.689 C3.667,6.195 10.756,1.38 16.843,0.935 C22.93,0.49 25.71,4.583 23.052,10.076" id="path-42"></path>
        <radialGradient cx="12.6505892%" cy="53.7320511%" fx="12.6505892%" fy="53.7320511%" r="96.8232288%" gradientTransform="translate(0.126506,0.537321),scale(0.829736,1.000000),rotate(-51.514774),translate(-0.126506,-0.537321)" id="radialGradient-44">
            <stop stop-color="#F6C76C" offset="0%"></stop>
            <stop stop-color="#FAE384" offset="100%"></stop>
        </radialGradient>
        <path d="M20.283,8.206 C18.052,12.818 12.101,16.86 6.991,17.234 C1.881,17.608 -0.453,14.172 1.778,9.56 C4.009,4.947 9.961,0.905 15.071,0.531 C20.181,0.158 22.515,3.594 20.283,8.206" id="path-45"></path>
        <radialGradient cx="101.438205%" cy="74.9151913%" fx="101.438205%" fy="74.9151913%" r="274.35635%" gradientTransform="translate(1.014382,0.749152),scale(0.829737,1.000000),rotate(-51.514802),translate(-1.014382,-0.749152)" id="radialGradient-47">
            <stop stop-color="#F6C76C" offset="0%"></stop>
            <stop stop-color="#FAE384" offset="100%"></stop>
        </radialGradient>
        <path d="M51.123,89.32 L34.944,79.979 L34.358,79.64 L2.486,61.239 C1.146,60.466 0.059,58.393 0.052,56.605 C0.054,56.927 0.101,57.258 0.167,57.59 C1.561,56.582 4.392,54.866 8.756,53.704 L21.606,61.122 L21.606,59.142 L11.22,53.146 C13.374,52.74 15.829,52.483 18.589,52.483 C27.166,52.483 38.706,54.956 53.467,63.099 C59.483,66.418 64.995,67.812 70.009,67.813 C74.783,67.813 79.105,66.549 82.984,64.48 L82.984,81.84 L58.707,79.875 C58.707,79.875 58.508,81.548 58.467,84.587 L51.367,84.113 C51.367,84.113 51.148,85.968 51.123,89.32 M82.984,50.684 C82.984,48.892 81.894,46.81 80.55,46.033 L2.486,0.963 C2.477,0.958 2.468,0.953 2.459,0.948 C2.468,0.953 2.477,0.958 2.486,0.963 L80.55,46.033 C81.894,46.81 82.984,48.892 82.984,50.684 M2.454,0.945 C2.124,0.76 1.81,0.672 1.525,0.671 C1.81,0.672 2.124,0.76 2.454,0.945" id="path-48"></path>
        <linearGradient x1="0%" y1="59.7468669%" x2="99.9993971%" y2="59.7468669%" id="linearGradient-50">
            <stop stop-color="#83CEE8" offset="0%"></stop>
            <stop stop-color="#61B5DA" offset="100%"></stop>
        </linearGradient>
        <path d="M70.009,67.813 C64.995,67.812 59.483,66.418 53.467,63.099 C38.706,54.956 27.166,52.483 18.589,52.483 C15.829,52.483 13.374,52.74 11.22,53.146 L6.787,50.587 L6.787,52.567 L8.756,53.704 C4.392,54.866 1.561,56.582 0.167,57.59 C0.101,57.258 0.054,56.927 0.052,56.605 C0.052,56.599 0.052,56.594 0.052,56.589 L0.052,2.803 L0.052,54.277 C5.808,49.737 15.651,45.458 32.411,43.298 C43.368,41.885 52.534,38.528 60.143,34.252 L2.486,0.963 C2.477,0.958 2.468,0.953 2.459,0.948 C2.468,0.953 2.477,0.958 2.486,0.963 L80.55,46.033 C81.894,46.81 82.984,48.892 82.984,50.684 L82.984,64.48 C79.105,66.549 74.783,67.813 70.009,67.813 M72.013,53.721 L73.161,57.994 L74.367,58.692 L72.963,53.639 L74.235,50.938 L73.08,50.271 L71.773,52.85 L71.773,49.516 L70.561,48.817 L70.561,56.494 L71.773,57.194 L71.773,54.081 L72.013,53.721 M67.128,49.942 L68.773,55.461 L69.567,55.92 L69.567,48.242 L68.564,47.663 L68.564,52.012 L66.936,46.723 L66.102,46.242 L66.102,53.919 L67.128,54.512 L67.128,49.942 M62.902,50.289 L64.052,50.953 L64.322,52.891 L65.448,53.541 L64.101,45.086 L62.837,44.358 L61.486,51.254 L62.629,51.914 L62.902,50.289 M57.279,41.149 L57.279,48.825 L59.188,49.928 C59.58,50.154 59.912,50.267 60.184,50.267 C60.334,50.267 60.466,50.233 60.58,50.163 C60.898,49.969 61.055,49.507 61.0530189,48.778 C61.05,48.213 60.953,47.721 60.757,47.299 C60.564,46.876 60.271,46.508 59.878,46.196 C60.02,46.253 60.146,46.282 60.257,46.282 C60.654,46.282 60.854,45.911 60.857,45.172 C60.859,44.807 60.815,44.467 60.724,44.156 C60.633,43.844 60.498,43.563 60.322,43.315 C60.143,43.065 59.94,42.842 59.711,42.647 C59.483,42.452 59.215,42.266 58.908,42.088 L57.279,41.149 M63.919,49.965 L63.03,49.451 L63.475,46.555 L63.919,49.965 M59.496,48.997 C59.355,48.997 59.168,48.93 58.935,48.795 L58.491,48.538 L58.491,45.963 L58.871,46.184 C59.241,46.397 59.502,46.653 59.659,46.951 C59.816,47.25 59.894,47.631 59.894,48.094 C59.894,48.541 59.824,48.822 59.685,48.937 C59.636,48.977 59.573,48.997 59.496,48.997 M59.435,45.403 C59.296,45.403 59.107,45.334 58.868,45.196 L58.491,44.977 L58.491,42.828 L58.659,42.926 C58.87,43.048 59.039,43.156 59.167,43.252 C59.292,43.346 59.409,43.458 59.513,43.586 C59.617,43.714 59.691,43.858 59.735,44.018 C59.779,44.178 59.802,44.365 59.802,44.582 C59.802,44.998 59.735,45.256 59.601,45.355 C59.557,45.387 59.502,45.403 59.435,45.403" id="path-51"></path>
        <linearGradient x1="0%" y1="78.7975772%" x2="99.9993971%" y2="78.7975772%" id="linearGradient-53">
            <stop stop-color="#9AD5EA" offset="0%"></stop>
            <stop stop-color="#7BC4E2" offset="100%"></stop>
        </linearGradient>
        <path d="M1.052,2.803 C1.052,1.806 1.39,1.108 1.921,0.82 L1.92,0.82 C1.39,1.109 1.052,1.807 1.052,2.803" id="path-54"></path>
        <radialGradient cx="-11706.25%" cy="7371.60867%" fx="-11706.25%" fy="7371.60867%" r="97565.5406%" gradientTransform="translate(-117.062500,73.716087),scale(1.000000,0.504286),rotate(0.277050),scale(1.000000,0.758811),translate(117.062500,-73.716087)" id="radialGradient-56">
            <stop stop-color="#5A6388" offset="0%"></stop>
            <stop stop-color="#709BC2" offset="100%"></stop>
        </radialGradient>
        <path d="M0.052,54.277 L0.052,2.803 C0.052,1.807 0.39,1.109 0.92,0.82 C1.098,0.723 1.299,0.672 1.515,0.671 C1.517,0.671 1.518,0.671 1.52,0.671 C1.522,0.671 1.523,0.671 1.525,0.671 C1.81,0.672 2.124,0.76 2.454,0.945 C2.456,0.946 2.457,0.947 2.459,0.948 C2.468,0.953 2.477,0.958 2.486,0.963 L60.143,34.252 C52.534,38.528 43.368,41.885 32.411,43.298 C15.651,45.458 5.808,49.737 0.052,54.277" id="path-57"></path>
        <linearGradient x1="0%" y1="98.8042383%" x2="138.009852%" y2="98.8042383%" id="linearGradient-59">
            <stop stop-color="#AEDDEC" offset="0%"></stop>
            <stop stop-color="#96CFE7" offset="100%"></stop>
        </linearGradient>
        <path d="M23.144,13.962 C17.845,16.99 9.275,16.952 4.003,13.877 C-1.268,10.802 -1.247,5.854 4.052,2.826 C9.351,-0.202 17.921,-0.164 23.193,2.912 C28.465,5.987 28.443,10.934 23.144,13.962" id="path-60"></path>
        <radialGradient cx="21.0657993%" cy="21.4173857%" fx="21.0657993%" fy="21.4173857%" r="123.671185%" gradientTransform="translate(0.210658,0.214174),scale(0.577362,1.000000),rotate(-17.075093),translate(-0.210658,-0.214174)" id="radialGradient-62">
            <stop stop-color="#F6C76C" offset="0%"></stop>
            <stop stop-color="#FAE384" offset="100%"></stop>
        </radialGradient>
        <path d="M19.612,12.069 C15.163,14.611 7.969,14.579 3.543,11.997 C-0.883,9.415 -0.864,5.262 3.584,2.72 C8.033,0.178 15.227,0.21 19.653,2.792 C24.079,5.373 24.06,9.527 19.612,12.069" id="path-63"></path>
        <radialGradient cx="77.3140409%" cy="121.02301%" fx="77.3140409%" fy="121.02301%" r="350.433049%" gradientTransform="translate(0.773140,1.210230),scale(0.577366,1.000000),rotate(-17.075170),translate(-0.773140,-1.210230)" id="radialGradient-65">
            <stop stop-color="#F6C76C" offset="0%"></stop>
            <stop stop-color="#FAE384" offset="100%"></stop>
        </radialGradient>
        <path d="M23.467,13.646 C18.168,16.674 9.599,16.636 4.327,13.561 C-0.945,10.485 -0.923,5.538 4.376,2.51 C9.675,-0.518 18.244,-0.48 23.516,2.595 C28.788,5.671 28.766,10.618 23.467,13.646" id="path-66"></path>
        <radialGradient cx="21.0639804%" cy="21.4179953%" fx="21.0639804%" fy="21.4179953%" r="123.670225%" gradientTransform="translate(0.210640,0.214180),scale(0.577380,1.000000),rotate(-17.075093),translate(-0.210640,-0.214180)" id="radialGradient-68">
            <stop stop-color="#F6C76C" offset="0%"></stop>
            <stop stop-color="#FAE384" offset="100%"></stop>
        </radialGradient>
        <path d="M19.935,11.753 C15.486,14.294 8.292,14.262 3.866,11.681 C-0.559,9.099 -0.541,4.946 3.908,2.404 C8.356,-0.138 15.55,-0.106 19.976,2.475 C24.402,5.057 24.384,9.211 19.935,11.753" id="path-69"></path>
        <radialGradient cx="77.3122702%" cy="121.029733%" fx="77.3122702%" fy="121.029733%" r="350.449841%" gradientTransform="translate(0.773123,1.210297),scale(0.577341,1.000000),rotate(-17.075170),translate(-0.773123,-1.210297)" id="radialGradient-71">
            <stop stop-color="#F6C76C" offset="0%"></stop>
            <stop stop-color="#FAE384" offset="100%"></stop>
        </radialGradient>
        <path d="M23.302,14.127 C18.003,17.155 9.434,17.117 4.162,14.042 C-1.11,10.967 -1.088,6.019 4.211,2.991 C9.51,-0.037 18.079,0.002 23.351,3.077 C28.623,6.152 28.601,11.1 23.302,14.127" id="path-72"></path>
        <radialGradient cx="21.0639804%" cy="21.4219182%" fx="21.0639804%" fy="21.4219182%" r="123.674122%" gradientTransform="translate(0.210640,0.214219),scale(0.577362,1.000000),rotate(-17.075093),translate(-0.210640,-0.214219)" id="radialGradient-74">
            <stop stop-color="#F6C76C" offset="0%"></stop>
            <stop stop-color="#FAE384" offset="100%"></stop>
        </radialGradient>
        <path d="M19.77,11.234 C15.322,13.776 8.128,13.744 3.702,11.162 C-0.724,8.58 -0.706,4.427 3.743,1.885 C8.191,-0.657 15.386,-0.625 19.811,1.957 C24.237,4.538 24.219,8.692 19.77,11.234" id="path-75"></path>
        <radialGradient cx="77.3165447%" cy="121.02301%" fx="77.3165447%" fy="121.02301%" r="350.433049%" gradientTransform="translate(0.773165,1.210230),scale(0.577372,1.000000),rotate(-17.075170),translate(-0.773165,-1.210230)" id="radialGradient-77">
            <stop stop-color="#F6C76C" offset="0%"></stop>
            <stop stop-color="#FAE384" offset="100%"></stop>
        </radialGradient>
        <path d="M23.237,13.822 C17.938,16.849 9.369,16.811 4.097,13.736 C-1.175,10.661 -1.153,5.713 4.146,2.685 C9.445,-0.343 18.014,-0.304 23.286,2.771 C28.558,5.846 28.536,10.794 23.237,13.822" id="path-78"></path>
        <radialGradient cx="21.0639804%" cy="21.4217416%" fx="21.0639804%" fy="21.4217416%" r="123.673102%" gradientTransform="translate(0.210640,0.214217),scale(0.577366,1.000000),rotate(-17.075093),translate(-0.210640,-0.214217)" id="radialGradient-80">
            <stop stop-color="#F6C76C" offset="0%"></stop>
            <stop stop-color="#FAE384" offset="100%"></stop>
        </radialGradient>
        <path d="M19.705,11.928 C15.256,14.47 8.062,14.438 3.636,11.856 C-0.789,9.274 -0.771,5.121 3.678,2.579 C8.126,0.037 15.32,0.069 19.746,2.651 C24.172,5.232 24.154,9.386 19.705,11.928" id="path-81"></path>
        <radialGradient cx="77.3122702%" cy="121.02301%" fx="77.3122702%" fy="121.02301%" r="350.433049%" gradientTransform="translate(0.773123,1.210230),scale(0.577369,1.000000),rotate(-17.075170),translate(-0.773123,-1.210230)" id="radialGradient-83">
            <stop stop-color="#F6C76C" offset="0%"></stop>
            <stop stop-color="#FAE384" offset="100%"></stop>
        </radialGradient>
        <path d="M24.042,13.845 C18.743,16.873 10.174,16.834 4.902,13.759 C-0.37,10.684 -0.348,5.737 4.951,2.709 C10.25,-0.319 18.819,-0.281 24.091,2.794 C29.363,5.869 29.341,10.817 24.042,13.845" id="path-84"></path>
        <radialGradient cx="21.0639804%" cy="21.4186701%" fx="21.0639804%" fy="21.4186701%" r="123.674122%" gradientTransform="translate(0.210640,0.214187),scale(0.577362,1.000000),rotate(-17.075093),translate(-0.210640,-0.214187)" id="radialGradient-86">
            <stop stop-color="#F6C76C" offset="0%"></stop>
            <stop stop-color="#FAE384" offset="100%"></stop>
        </radialGradient>
        <path d="M19.51,11.951 C15.061,14.493 7.867,14.461 3.441,11.879 C-0.984,9.298 -0.966,5.144 3.483,2.602 C7.931,0.06 15.125,0.093 19.551,2.674 C23.977,5.256 23.959,9.409 19.51,11.951" id="path-87"></path>
        <radialGradient cx="77.3122702%" cy="121.023605%" fx="77.3122702%" fy="121.023605%" r="350.442962%" gradientTransform="translate(0.773123,1.210236),scale(0.577353,1.000000),rotate(-17.075170),translate(-0.773123,-1.210236)" id="radialGradient-89">
            <stop stop-color="#F6C76C" offset="0%"></stop>
            <stop stop-color="#FAE384" offset="100%"></stop>
        </radialGradient>
        <path d="M23.542,14.14 C18.243,17.168 9.674,17.129 4.402,14.054 C-0.87,10.979 -0.848,6.031 4.451,3.004 C9.75,-0.024 18.319,0.014 23.591,3.089 C28.863,6.165 28.841,11.112 23.542,14.14" id="path-90"></path>
        <path d="M20.01,11.246 C15.562,13.788 8.368,13.756 3.942,11.174 C-0.484,8.593 -0.466,4.439 3.983,1.897 C8.431,-0.645 15.626,-0.613 20.051,1.969 C24.477,4.551 24.459,8.704 20.01,11.246" id="path-92"></path>
        <path d="M23.396,13.937 C18.097,16.965 9.528,16.927 4.256,13.852 C-1.016,10.776 -0.994,5.829 4.305,2.801 C9.604,-0.227 18.174,-0.188 23.445,2.887 C28.717,5.962 28.695,10.909 23.396,13.937" id="path-94"></path>
        <radialGradient cx="21.0676747%" cy="21.4155195%" fx="21.0676747%" fy="21.4155195%" r="123.674122%" gradientTransform="translate(0.210677,0.214155),scale(0.577362,1.000000),rotate(-17.075093),translate(-0.210677,-0.214155)" id="radialGradient-96">
            <stop stop-color="#F6C76C" offset="0%"></stop>
            <stop stop-color="#FAE384" offset="100%"></stop>
        </radialGradient>
        <path d="M19.865,12.044 C15.416,14.586 8.222,14.553 3.796,11.972 C-0.63,9.39 -0.611,5.237 3.837,2.695 C8.286,0.153 15.48,0.185 19.906,2.766 C24.332,5.348 24.313,9.502 19.865,12.044" id="path-97"></path>
        <radialGradient cx="77.3140409%" cy="121.026239%" fx="77.3140409%" fy="121.026239%" r="350.439724%" gradientTransform="translate(0.773140,1.210262),scale(0.577355,1.000000),rotate(-17.075170),translate(-0.773140,-1.210262)" id="radialGradient-99">
            <stop stop-color="#F6C76C" offset="0%"></stop>
            <stop stop-color="#FAE384" offset="100%"></stop>
        </radialGradient>
        <path d="M21.705,16.157 C15.899,18.036 7.519,16.245 2.988,12.156 C-1.543,8.066 -0.509,3.228 5.298,1.349 C11.104,-0.53 19.484,1.261 24.015,5.351 C28.546,9.44 27.512,14.278 21.705,16.157" id="path-100"></path>
        <radialGradient cx="24.6836475%" cy="13.3451085%" fx="24.6836475%" fy="13.3451085%" r="118.571544%" gradientTransform="translate(0.246836,0.133451),scale(0.611144,1.000000),rotate(-5.263860),translate(-0.246836,-0.133451)" id="radialGradient-102">
            <stop stop-color="#F6C76C" offset="0%"></stop>
            <stop stop-color="#FAE384" offset="100%"></stop>
        </radialGradient>
        <path d="M18.389,13.969 C13.514,15.547 6.479,14.042 2.675,10.61 C-1.129,7.177 -0.26,3.115 4.614,1.537 C9.489,-0.04 16.524,1.464 20.328,4.897 C24.132,8.33 23.263,12.391 18.389,13.969" id="path-103"></path>
        <radialGradient cx="68.6158885%" cy="125.935979%" fx="68.6158885%" fy="125.935979%" r="335.977269%" gradientTransform="translate(0.686159,1.259360),scale(0.611148,1.000000),rotate(-5.263916),translate(-0.686159,-1.259360)" id="radialGradient-105">
            <stop stop-color="#F6C76C" offset="0%"></stop>
            <stop stop-color="#FAE384" offset="100%"></stop>
        </radialGradient>
        <path d="M18.919,19.4521186 C12.816,19.478 5.376,15.225 2.302,9.953 C-0.772,4.68 1.683,0.385 7.786,0.358881395 C13.889,0.333 21.328,4.585 24.403,9.858 C27.477,15.13 25.022,19.425 18.919,19.4521186" id="path-106"></path>
        <radialGradient cx="31.3447699%" cy="9.43851788%" fx="31.3447699%" fy="9.43851788%" r="101.229988%" gradientTransform="translate(0.313448,0.094385),scale(0.771389,1.000000),rotate(12.422091),translate(-0.313448,-0.094385)" id="radialGradient-108">
            <stop stop-color="#F6C76C" offset="0%"></stop>
            <stop stop-color="#FAE384" offset="100%"></stop>
        </radialGradient>
        <path d="M16.026,16.9201011 C10.902,16.942 4.656,13.371 2.075,8.945 C-0.506,4.519 1.556,0.913 6.679,0.890898863 C11.803,0.869 18.048,4.439 20.629,8.865 C23.21,13.292 21.149,16.897 16.026,16.9201011" id="path-109"></path>
        <radialGradient cx="53.9216157%" cy="119.663479%" fx="53.9216157%" fy="119.663479%" r="286.840142%" gradientTransform="translate(0.539216,1.196635),scale(0.771391,1.000000),rotate(12.422150),translate(-0.539216,-1.196635)" id="radialGradient-111">
            <stop stop-color="#F6C76C" offset="0%"></stop>
            <stop stop-color="#FAE384" offset="100%"></stop>
        </radialGradient>
        <path d="M23.734,10.057 C20.617,15.304 13.142,19.496 7.04,19.42 C0.937,19.344 -1.483,15.029 1.634,9.782 C4.751,4.535 12.226,0.343 18.328,0.419 C24.431,0.495 26.851,4.811 23.734,10.057" id="path-112"></path>
        <radialGradient cx="13.6761808%" cy="49.8710732%" fx="13.6761808%" fy="49.8710732%" r="101.710631%" gradientTransform="translate(0.136762,0.498711),scale(0.765598,1.000000),rotate(-46.615912),translate(-0.136762,-0.498711)" id="radialGradient-114">
            <stop stop-color="#F6C76C" offset="0%"></stop>
            <stop stop-color="#FAE384" offset="100%"></stop>
        </radialGradient>
        <path d="M19.961,9.035 C17.344,13.44 11.069,16.959 5.945,16.895 C0.822,16.831 -1.21,13.209 1.407,8.804 C4.024,4.399 10.299,0.88 15.422,0.944 C20.546,1.008 22.578,4.63 19.961,9.035" id="path-115"></path>
        <radialGradient cx="97.9638972%" cy="81.640375%" fx="97.9638972%" fy="81.640375%" r="288.215305%" gradientTransform="translate(0.979639,0.816404),scale(0.765536,1.000000),rotate(-46.616001),translate(-0.979639,-0.816404)" id="radialGradient-117">
            <stop stop-color="#F6C76C" offset="0%"></stop>
            <stop stop-color="#FAE384" offset="100%"></stop>
        </radialGradient>
        <path d="M43.706,89.619 C61.986,75.202 58.606,42.778 58.606,42.778 L25.986,7.751 L12.574,6.396 L0.467,5.587 C0.508,2.548 0.707,0.875 0.707,0.875 L24.984,2.84 L26.115,2.931 L33.079,3.495 L33.326,3.514 L50.659,22.126 L51.245,22.756 L65.945,38.541 C65.945,38.541 66.163,40.637 66.189,44 C66.191,44.231 66.191,44.468 66.191,44.711 C66.188,49.168 65.832,55.549 64.298,62.193 C64.037,63.324 63.742,64.463 63.408,65.601 C62.333,69.273 60.86,72.936 58.852,76.32 C56.877,79.647 54.383,82.704 51.245,85.224 C51.052,85.378 50.856,85.531 50.659,85.682 C48.616,87.238 46.309,88.573 43.706,89.619" id="path-118"></path>
        <polyline id="path-120" points="7.707 0.875 0.367 5.113 32.986 7.751 40.326 3.514 7.707 0.875"></polyline>
        <linearGradient x1="100%" y1="50%" x2="0.00150153908%" y2="50%" id="linearGradient-122">
            <stop stop-color="#1B5A98" offset="0%"></stop>
            <stop stop-color="#2F69A4" offset="100%"></stop>
        </linearGradient>
        <path d="M32.986,91.232 C30.403,88.032 28.022,84.846 25.824,81.684 C2.412,47.994 0.036,17.219 0.123,5.32 C0.148,1.968 0.367,0.113 0.367,0.113 L7.467,0.587 L19.574,1.396 L32.986,2.751 L65.606,37.778 C65.606,37.778 68.986,70.202 50.706,84.619 C47.774,86.931 44.29,88.779 40.141,89.956 C37.947,90.579 35.565,91.015 32.986,91.232 M2.99,4.457 C2.99,4.457 -1.723,44.214 32.318,86.382 C66.359,83.521 61.646,38.322 61.646,38.322 L32.318,6.83 L20.259,5.611 L2.99,4.457" id="path-123"></path>
        <linearGradient x1="23.9806085%" y1="30.6236899%" x2="76.0194452%" y2="72.272413%" id="linearGradient-125">
            <stop stop-color="#83CEE8" offset="0%"></stop>
            <stop stop-color="#61B5DA" offset="100%"></stop>
        </linearGradient>
        <path d="M30.318,82.382 C-3.723,40.214 0.99,0.457 0.99,0.457 L18.259,1.611 L30.318,2.83 L59.646,34.322 C59.646,34.322 64.359,79.521 30.318,82.382" id="path-126"></path>
        <linearGradient x1="21.649248%" y1="28.7580104%" x2="79.5282104%" y2="75.0807446%" id="linearGradient-128">
            <stop stop-color="#9AD5EA" offset="0%"></stop>
            <stop stop-color="#7BC4E2" offset="100%"></stop>
        </linearGradient>
    </defs>
    <g id="Page-1" stroke="none" stroke-width="1" fill="none" fill-rule="evenodd">
        <g id="Group-44" transform="translate(18.330000, 137.000000)">
            <mask id="mask-2" fill="white">
                <use xlink:href="#path-1"></use>
            </mask>
            <g id="Clip-43"></g>
            <polyline id="Fill-42" fill="url(#radialGradient-3)" mask="url(#mask-2)" points="20.573 20.699 0.99 9.394 16.551 0.41 36.134 11.715 20.573 20.699"></polyline>
        </g>
        <path d="M13.292,145.952 L39.669,161.178 L60.492,149.157 L34.115,133.931 L13.292,145.952 Z M39.669,161.951 L11.954,145.952 L34.115,133.157 L61.829,149.157 L39.669,161.951 L39.669,161.951 Z" id="Fill-45" fill="#FFFFFE"></path>
        <g id="Group-48" transform="translate(18.330000, 111.000000)">
            <mask id="mask-5" fill="white">
                <use xlink:href="#path-4"></use>
            </mask>
            <g id="Clip-47"></g>
            <polyline id="Fill-46" fill="url(#linearGradient-6)" mask="url(#mask-5)" points="20.573 20.556 0.99 9.251 16.551 0.267 36.134 11.572 20.573 20.556"></polyline>
        </g>
        <g id="Group-51" transform="translate(38.330000, 122.000000)">
            <mask id="mask-8" fill="white">
                <use xlink:href="#path-7"></use>
            </mask>
            <g id="Clip-50"></g>
            <polyline id="Fill-49" fill="url(#linearGradient-9)" mask="url(#mask-8)" points="16.134 12.699 16.134 0.572 0.573 9.556 0.573 21.684 16.134 12.699"></polyline>
        </g>
        <g id="Group-54" transform="translate(18.330000, 120.000000)">
            <mask id="mask-11" fill="white">
                <use xlink:href="#path-10"></use>
            </mask>
            <g id="Clip-53"></g>
            <polyline id="Fill-52" fill="url(#linearGradient-12)" mask="url(#mask-11)" points="0.99 0.251 0.99 12.379 20.573 23.684 20.573 11.556 0.99 0.251"></polyline>
        </g>
        <polyline id="Fill-55" fill="#FFFFFE" points="31.361 117.415 22.884 122.309 22.884 124.933 25.4 126.385 25.4 123.762 33.877 118.867 31.361 117.415"></polyline>
        <polyline id="Fill-56" fill="#FFFFFE" points="36.747 120.522 28.269 125.417 28.269 128.041 30.785 129.493 30.785 126.869 39.263 121.975 36.747 120.522"></polyline>
        <polyline id="Fill-57" fill="#FFFFFE" points="42.138 123.634 33.66 128.529 33.66 131.153 36.176 132.605 36.176 129.981 44.654 125.087 42.138 123.634"></polyline>
        <polyline id="Fill-58" fill="#AFDDEA" points="31.361 117.415 31.361 118.471 32.978 119.386 33.877 118.867 31.361 117.415"></polyline>
        <g id="Group-62" transform="translate(22.330000, 117.000000)">
            <mask id="mask-14" fill="white">
                <use xlink:href="#path-13"></use>
            </mask>
            <g id="Clip-61"></g>
            <polyline id="Fill-60" fill="url(#linearGradient-15)" mask="url(#mask-14)" points="9.031 0.415 0.554 5.309 0.554 7.933 1.465 7.39 1.465 5.842 9.036 1.471 9.031 0.415"></polyline>
        </g>
        <polyline id="Fill-63" fill="#AFDDEA" points="36.747 120.522 36.747 121.579 38.363 122.494 39.263 121.975 36.747 120.522"></polyline>
        <polyline id="Fill-64" fill="#AFDDEA" points="29.181 127.498 28.269 128.041 30.785 129.493 30.785 128.401 29.181 127.498"></polyline>
        <g id="Group-67" transform="translate(27.330000, 120.000000)">
            <mask id="mask-17" fill="white">
                <use xlink:href="#path-16"></use>
            </mask>
            <g id="Clip-66"></g>
            <polyline id="Fill-65" fill="url(#linearGradient-18)" mask="url(#mask-17)" points="9.417 0.522 0.939 5.417 0.939 8.041 1.851 7.498 1.851 5.949 9.421 1.579 9.417 0.522"></polyline>
        </g>
        <polyline id="Fill-68" fill="#AFDDEA" points="42.138 123.634 42.138 124.691 43.754 125.606 44.654 125.087 42.138 123.634"></polyline>
        <polyline id="Fill-69" fill="#AFDDEA" points="34.572 130.61 33.66 131.153 36.176 132.605 36.176 131.513 34.572 130.61"></polyline>
        <g id="Group-72" transform="translate(33.330000, 123.000000)">
            <mask id="mask-20" fill="white">
                <use xlink:href="#path-19"></use>
            </mask>
            <g id="Clip-71"></g>
            <polyline id="Fill-70" fill="url(#linearGradient-18)" mask="url(#mask-20)" points="8.808 0.634 0.33 5.529 0.33 8.153 1.242 7.61 1.242 6.062 8.812 1.691 8.808 0.634"></polyline>
        </g>
        <path d="M140.577,161.671 C117.731,161.671 94.888,166.692 77.496,176.733 C60.711,186.423 51.467,199.288 51.467,212.958 C51.467,226.628 60.711,239.494 77.498,249.186 C112.282,269.268 168.878,269.269 203.661,249.187 C220.448,239.495 229.692,226.629 229.692,212.96 C229.692,199.291 220.447,186.425 203.659,176.734 C186.267,166.692 163.421,161.671 140.577,161.671 M140.581,264.907 C117.613,264.907 94.65,259.862 77.164,249.766 C60.161,239.949 50.797,226.877 50.797,212.958 C50.797,199.039 60.161,185.968 77.162,176.153 C112.127,155.965 169.025,155.964 203.993,176.153 C220.996,185.97 230.361,199.041 230.361,212.96 C230.361,226.879 220.997,239.95 203.995,249.767 C186.514,259.86 163.544,264.907 140.581,264.907" id="Fill-73" fill="#FFFFFE"></path>
        <g id="Group-76" transform="translate(76.330000, 184.000000)">
            <mask id="mask-22" fill="white">
                <use xlink:href="#path-21"></use>
            </mask>
            <g id="Clip-75"></g>
            <path d="M64.251,65.983 C47.837,65.983 31.428,62.369 18.905,55.139 C-6.139,40.68 -6.139,17.238 18.904,2.779 C20.024,2.132 21.178,1.513 22.358,0.924 L22.358,8.508 C22.358,11.474 23.954,14.239 26.523,15.724 L92.837,54.039 C93.297,54.306 93.802,54.439 94.306,54.439 C94.811,54.439 95.315,54.306 95.775,54.04 C96.533,53.603 97.039,52.88 97.194,52.046 L100.529,53.972 C101.138,54.324 101.719,54.491 102.245,54.491 C102.674,54.491 103.066,54.38 103.409,54.169 L107.891,51.561 L107.886,51.56 C108.816,51.04 109.408,49.81 109.408,48.053 L109.408,6.601 C109.742,5.463 110.037,4.324 110.298,3.193 C134.636,17.682 134.401,40.818 109.595,55.14 C97.075,62.368 80.66,65.983 64.251,65.983" id="Fill-74" fill="url(#radialGradient-23)" mask="url(#mask-22)"></path>
        </g>
        <g id="Group-79" transform="translate(108.330000, 30.000000)">
            <mask id="mask-25" fill="white">
                <use xlink:href="#path-24"></use>
            </mask>
            <g id="Clip-78"></g>
            <path d="M71.409,208.169 C72.276,207.636 72.828,206.463 72.851,204.811 L72.852,204.812 L72.852,171.32 C74.86,167.936 76.333,164.273 77.408,160.601 L77.408,202.053 C77.408,203.81 76.816,205.04 75.886,205.56 L75.891,205.561 L71.409,208.169 M77.408,130.817 L72.852,125.924 L72.852,49.931 C72.808,46.772 70.89,43.142 68.529,41.779 L2.875,3.841 C2.265,3.489 1.684,3.322 1.158,3.322 C0.817,3.322 0.499,3.392 0.21,3.527 L4.652,0.936 C4.972,0.763 5.33,0.672 5.719,0.672 C6.244,0.672 6.823,0.838 7.431,1.189 L73.085,39.127 C75.473,40.505 77.408,44.204 77.408,47.387 L77.408,130.817" id="Fill-77" fill="url(#linearGradient-26)" mask="url(#mask-25)"></path>
        </g>
        <g id="Group-82" transform="translate(106.330000, 33.000000)">
            <mask id="mask-28" fill="white">
                <use xlink:href="#path-27"></use>
            </mask>
            <g id="Clip-81"></g>
            <path d="M72.245,205.491 C71.719,205.491 71.138,205.324 70.529,204.972 L67.194,203.046 C67.227,202.867 67.245,202.683 67.245,202.496 L67.245,197.416 L74.852,201.812 C74.828,203.463 74.276,204.636 73.409,205.169 C73.066,205.38 72.674,205.491 72.245,205.491 M74.852,46.931 L0.551,4.002 C0.577,2.217 1.22,0.991 2.21,0.527 C2.499,0.392 2.817,0.322 3.158,0.322 C3.684,0.322 4.265,0.489 4.875,0.841 L70.529,38.779 C72.89,40.142 74.808,43.772 74.851,46.931" id="Fill-80" fill="url(#linearGradient-29)" mask="url(#mask-28)"></path>
        </g>
        <polyline id="Fill-83" fill="#225B9A" points="181.182 234.812 106.881 191.882 106.881 37.002 181.182 79.931 181.182 234.812"></polyline>
        <g id="Group-86" transform="translate(98.330000, 44.000000)">
            <mask id="mask-31" fill="white">
                <use xlink:href="#path-30"></use>
            </mask>
            <g id="Clip-85"></g>
            <path d="M0.944,140.635 L0.944,123.494 C3.433,122.745 5.974,122.067 8.551,121.462 L8.551,137.449 C5.916,138.391 3.371,139.453 0.944,140.635 M0.944,122.8 L0.944,81.979 L8.551,86.371 L8.551,120.781 C5.973,121.382 3.435,122.055 0.944,122.8 M8.551,16.323 L0.944,11.931 L0.944,2.851 C0.944,2 1.383,1.239 2.119,0.814 C2.489,0.601 2.892,0.495 3.296,0.495 C3.7,0.495 4.104,0.602 4.472,0.814 L8.551,3.171 L8.551,16.323" id="Fill-84" fill="url(#radialGradient-32)" mask="url(#mask-31)"></path>
        </g>
        <path d="M99.274,167.494 L99.274,166.8 C101.765,166.055 104.303,165.382 106.881,164.781 L106.881,165.462 C104.304,166.067 101.763,166.745 99.274,167.494" id="Fill-87" fill="#FFFFFE"></path>
        <g id="Group-90" transform="translate(98.330000, 181.000000)">
            <mask id="mask-34" fill="white">
                <use xlink:href="#path-33"></use>
            </mask>
            <g id="Clip-89"></g>
            <path d="M72.307,56.853 C71.903,56.853 71.499,56.746 71.13,56.534 L4.816,18.218 C2.427,16.836 0.944,14.266 0.944,11.508 L0.944,3.635 C3.371,2.453 5.916,1.391 8.551,0.449 L8.551,10.882 C8.595,14.041 10.514,17.672 12.875,19.035 L74.647,54.73 C74.575,55.485 74.151,56.148 73.483,56.534 C73.114,56.746 72.71,56.853 72.307,56.853" id="Fill-88" fill="url(#radialGradient-35)" mask="url(#mask-34)"></path>
        </g>
        <g id="Group-93" transform="translate(106.330000, 191.000000)">
            <mask id="mask-37" fill="white">
                <use xlink:href="#path-36"></use>
            </mask>
            <g id="Clip-92"></g>
            <path d="M66.647,44.73 L4.875,9.035 C2.514,7.672 0.595,4.041 0.552,0.882 L34.824,20.684 C37.022,23.846 39.403,27.032 41.986,30.232 C44.565,30.015 46.947,29.579 49.141,28.956 L66.659,39.078 L66.659,44.496 C66.659,44.575 66.655,44.653 66.647,44.73" id="Fill-91" fill="url(#linearGradient-38)" mask="url(#mask-37)"></path>
        </g>
        <path d="M172.989,230.078 L155.471,219.956 C159.62,218.779 163.104,216.931 166.036,214.619 C168.639,213.573 170.946,212.238 172.989,210.682 L172.989,230.078 M141.154,211.684 L106.881,191.882 L106.881,130.371 L115.453,135.32 C115.366,147.219 117.742,177.994 141.154,211.684 M172.989,147.126 L155.656,128.514 L155.409,128.495 L155.409,91.586 C155.409,89.793 154.319,87.711 152.975,86.935 L106.881,60.323 L106.881,47.171 L169.116,83.129 C171.505,84.511 172.989,87.081 172.989,89.839 L172.989,147.126" id="Fill-94" fill="#6B99C0"></path>
        <path d="M101.626,44.495 C101.222,44.495 100.819,44.601 100.449,44.814 C99.713,45.239 99.274,46 99.274,46.851 L99.274,192.508 C99.274,195.266 100.757,197.836 103.146,199.218 L169.46,237.534 C170.198,237.959 171.075,237.959 171.813,237.534 C172.549,237.109 172.989,236.347 172.989,235.496 L172.989,89.839 C172.989,87.081 171.505,84.511 169.116,83.129 L102.802,44.814 C102.434,44.602 102.03,44.495 101.626,44.495 M170.636,238.439 C170.132,238.439 169.627,238.306 169.167,238.039 L102.853,199.724 C100.284,198.239 98.688,195.474 98.688,192.508 L98.688,46.851 C98.688,45.789 99.238,44.838 100.157,44.307 C101.077,43.776 102.174,43.774 103.095,44.308 L169.409,82.623 C171.979,84.108 173.575,86.873 173.575,89.839 L173.575,235.496 C173.575,236.558 173.025,237.509 172.105,238.04 C171.645,238.306 171.141,238.439 170.636,238.439" id="Fill-95" fill="#FFFFFE"></path>
        <path d="M148.94,59.302 L139.124,53.635 C138.79,53.443 138.52,52.927 138.52,52.482 C138.52,52.038 138.79,51.833 139.124,52.026 L148.94,57.693 C149.273,57.885 149.543,58.402 149.543,58.846 C149.543,59.291 149.273,59.495 148.94,59.302" id="Fill-96" fill="#1C5997"></path>
        <g id="Group-99" transform="translate(98.330000, 55.000000)">
            <mask id="mask-40" fill="white">
                <use xlink:href="#path-39"></use>
            </mask>
            <g id="Clip-98"></g>
            <polyline id="Fill-97" fill="url(#radialGradient-41)" mask="url(#mask-40)" points="8.551 13.782 0.944 9.39 0.944 0.931 8.551 5.323 8.551 13.782"></polyline>
        </g>
        <path d="M155.409,128.495 L148.445,127.931 L148.445,96.024 C148.445,94.232 147.355,92.15 146.011,91.374 L106.881,68.782 L106.881,60.323 L152.975,86.935 C154.319,87.711 155.409,89.793 155.409,91.586 L155.409,128.495" id="Fill-100" fill="#577DA7"></path>
        <path d="M99.274,64.39 L98.981,64.221 L98.981,57.823 C98.981,57.149 99.054,56.501 99.188,55.881 L99.274,55.931 L99.274,64.39" id="Fill-101" fill="#C9CCD5"></path>
        <path d="M112.557,127.279 L112.568,128.614 C111.422,128.081 109.961,127.84 108.232,127.967 C102.145,128.412 95.056,133.227 92.398,138.72 C91.662,140.242 91.345,141.655 91.398,142.895 L90.165,142.487 L91.493,144.443 L91.495,144.437 C92.597,146.152 94.837,147.105 97.939,146.878 C104.026,146.433 111.115,141.618 113.773,136.124 C115.102,133.377 115.071,130.98 113.948,129.326 L112.557,127.279" id="Fill-102" fill="#EAA258"></path>
        <path d="M112.382,134.076 C109.724,139.571 102.635,144.385 96.548,144.831 C90.461,145.276 87.682,141.183 90.339,135.689 C92.997,130.195 100.086,125.38 106.173,124.935 C112.26,124.49 115.04,128.583 112.382,134.076" id="Fill-103" fill="#F6C86C"></path>
        <g id="Group-106" transform="translate(89.330000, 124.000000)">
            <mask id="mask-43" fill="white">
                <use xlink:href="#path-42"></use>
            </mask>
            <g id="Clip-105"></g>
            <path d="M23.052,10.076 C20.394,15.571 13.305,20.385 7.218,20.831 C1.131,21.276 -1.648,17.183 1.009,11.689 C3.667,6.195 10.756,1.38 16.843,0.935 C22.93,0.49 25.71,4.583 23.052,10.076" id="Fill-104" fill="url(#radialGradient-44)" mask="url(#mask-43)"></path>
        </g>
        <path d="M97.667,129.602 C95.309,131.219 93.306,133.346 92.211,135.61 C91.15,137.801 91.095,139.788 92.056,141.202 C93.017,142.616 94.883,143.297 97.312,143.12 C102.378,142.749 108.297,138.729 110.51,134.156 C111.571,131.964 111.626,129.978 110.665,128.563 C109.705,127.149 107.838,126.468 105.41,126.646 C102.851,126.833 100.074,127.952 97.667,129.602 Z M105.182,140.35 C102.74,142.024 99.925,143.159 97.329,143.349 C94.815,143.532 92.875,142.816 91.866,141.331 C90.858,139.846 90.907,137.779 92.005,135.51 C94.248,130.873 100.254,126.793 105.393,126.417 C107.907,126.233 109.846,126.95 110.855,128.435 C111.863,129.919 111.814,131.987 110.717,134.256 C109.606,136.551 107.574,138.71 105.182,140.35 L105.182,140.35 Z" id="Fill-107" fill="#EAA258"></path>
        <g id="Group-110" transform="translate(90.330000, 126.000000)">
            <mask id="mask-46" fill="white">
                <use xlink:href="#path-45"></use>
            </mask>
            <g id="Clip-109"></g>
            <path d="M20.283,8.206 C18.052,12.818 12.101,16.86 6.991,17.234 C1.881,17.608 -0.453,14.172 1.778,9.56 C4.009,4.947 9.961,0.905 15.071,0.531 C20.181,0.158 22.515,3.594 20.283,8.206" id="Fill-108" fill="url(#radialGradient-47)" mask="url(#mask-46)"></path>
        </g>
        <path d="M92.414,136.01 C94.645,131.397 100.596,127.355 105.706,126.981 C108.124,126.805 109.918,127.481 110.904,128.73 C110.015,127.197 108.094,126.334 105.401,126.531 C100.291,126.905 94.339,130.947 92.108,135.56 C90.932,137.99 91.025,140.093 92.123,141.485 C91.325,140.109 91.358,138.191 92.414,136.01" id="Fill-111" fill="#EAA258"></path>
        <path d="M112.093,133.65 C109.435,139.144 102.346,143.959 96.259,144.404 C93.346,144.617 91.193,143.789 90.028,142.268 C91.102,144.059 93.374,145.063 96.548,144.83 C102.635,144.385 109.724,139.571 112.382,134.077 C113.768,131.212 113.673,128.73 112.403,127.072 C113.388,128.715 113.364,131.021 112.093,133.65" id="Fill-112" fill="#FAE383"></path>
        <path d="M110.529,140.575 C111.885,139.203 113.014,137.694 113.773,136.124 C115.102,133.377 115.071,130.981 113.948,129.326 L112.557,127.279 L112.492,127.198 L112.403,127.072 L112.425,127.116 C111.268,125.569 109.111,124.72 106.173,124.935 C102.728,125.187 98.963,126.84 95.862,129.222 L106.821,140.575 L110.529,140.575" id="Fill-113" fill="#EAA258"></path>
        <path d="M146.011,91.374 L67.948,46.304 C67.339,45.952 66.784,45.932 66.357,46.177 L66.358,46.174 L65.197,46.851 C65.197,46.851 65.465,46.889 65.734,46.927 C65.594,47.255 65.514,47.663 65.514,48.144 L65.514,101.929 C65.514,103.721 66.603,105.803 67.948,106.579 L146.011,151.649 C146.158,151.734 146.302,151.797 146.442,151.844 L146.442,152.454 L147.609,151.775 L147.602,151.775 C148.117,151.478 148.445,150.79 148.445,149.809 L148.445,96.024 C148.445,94.232 147.355,92.15 146.011,91.374" id="Fill-114" fill="#FFFFFE"></path>
        <g id="Group-117" transform="translate(64.330000, 46.000000)">
            <mask id="mask-49" fill="white">
                <use xlink:href="#path-48"></use>
            </mask>
            <g id="Clip-116"></g>
            <path d="M51.123,89.32 L34.944,79.979 L34.358,79.64 L2.486,61.239 C1.146,60.466 0.059,58.393 0.052,56.605 C0.054,56.927 0.101,57.258 0.167,57.59 C1.561,56.582 4.392,54.866 8.756,53.704 L21.606,61.122 L21.606,59.142 L11.22,53.146 C13.374,52.74 15.829,52.483 18.589,52.483 C27.166,52.483 38.706,54.956 53.467,63.099 C59.483,66.418 64.995,67.812 70.009,67.813 C74.783,67.813 79.105,66.549 82.984,64.48 L82.984,81.84 L58.707,79.875 C58.707,79.875 58.508,81.548 58.467,84.587 L51.367,84.113 C51.367,84.113 51.148,85.968 51.123,89.32 M82.984,50.684 C82.984,48.892 81.894,46.81 80.55,46.033 L2.486,0.963 C2.477,0.958 2.468,0.953 2.459,0.948 C2.468,0.953 2.477,0.958 2.486,0.963 L80.55,46.033 C81.894,46.81 82.984,48.892 82.984,50.684 M2.454,0.945 C2.124,0.76 1.81,0.672 1.525,0.671 C1.81,0.672 2.124,0.76 2.454,0.945" id="Fill-115" fill="url(#linearGradient-50)" mask="url(#mask-49)"></path>
        </g>
        <path d="M122.821,94.538 L123.265,94.795 C123.626,95.004 123.876,95.051 124.015,94.937 C124.154,94.822 124.224,94.541 124.224,94.094 C124.224,93.631 124.146,93.25 123.989,92.951 C123.832,92.653 123.571,92.397 123.201,92.184 L122.821,91.963 L122.821,94.538 M122.821,90.977 L123.198,91.196 C123.553,91.401 123.797,91.453 123.931,91.355 C124.065,91.256 124.132,90.998 124.132,90.582 C124.132,90.365 124.109,90.178 124.065,90.018 C124.021,89.858 123.947,89.714 123.843,89.586 C123.739,89.458 123.622,89.346 123.497,89.252 C123.369,89.156 123.2,89.048 122.989,88.926 L122.821,88.828 L122.821,90.977 M121.609,94.825 L121.609,87.149 L123.238,88.088 C123.545,88.266 123.813,88.452 124.041,88.647 C124.27,88.842 124.473,89.065 124.652,89.315 C124.828,89.563 124.963,89.844 125.054,90.156 C125.145,90.467 125.189,90.807 125.187,91.172 C125.183,92.117 124.858,92.459 124.208,92.196 C124.601,92.508 124.894,92.876 125.087,93.299 C125.283,93.721 125.38,94.213 125.383019,94.778 C125.385,95.507 125.228,95.969 124.91,96.163 C124.591,96.358 124.127,96.279 123.518,95.928 L121.609,94.825" id="Fill-118" fill="#FFFFFE"></path>
        <path d="M127.36,95.451 L128.249,95.965 L127.805,92.555 L127.36,95.451 M125.816,97.254 L127.167,90.358 L128.431,91.086 L129.778,99.541 L128.652,98.891 L128.382,96.953 L127.232,96.289 L126.959,97.914 L125.816,97.254" id="Fill-119" fill="#FFFFFE"></path>
        <polyline id="Fill-120" fill="#FFFFFE" points="130.432 99.919 130.432 92.242 131.266 92.723 132.894 98.012 132.894 93.663 133.897 94.242 133.897 101.92 133.103 101.461 131.458 95.942 131.458 100.512 130.432 99.919"></polyline>
        <polyline id="Fill-121" fill="#FFFFFE" points="134.891 102.494 134.891 94.817 136.103 95.516 136.103 98.85 137.41 96.271 138.565 96.938 137.293 99.639 138.697 104.692 137.491 103.994 136.343 99.721 136.103 100.081 136.103 103.194 134.891 102.494"></polyline>
        <polyline id="Fill-122" fill="#FFFFFE" points="85.936 107.122 71.117 98.567 71.117 96.587 85.936 105.142 85.936 107.122"></polyline>
        <polyline id="Fill-123" fill="#FFFFFE" points="104.15 117.638 89.331 109.083 89.331 107.103 104.15 115.658 104.15 117.638"></polyline>
        <polyline id="Fill-124" fill="#FFFFFE" points="122.365 128.155 107.546 119.599 107.546 117.619 122.365 126.175 122.365 128.155"></polyline>
        <polyline id="Fill-125" fill="#FFFFFE" points="140.579 138.671 125.761 130.115 125.761 128.135 140.579 136.691 140.579 138.671"></polyline>
        <g id="Group-130" transform="translate(64.330000, 46.000000)">
            <mask id="mask-52" fill="white">
                <use xlink:href="#path-51"></use>
            </mask>
            <g id="Clip-129"></g>
            <path d="M70.009,67.813 C64.995,67.812 59.483,66.418 53.467,63.099 C38.706,54.956 27.166,52.483 18.589,52.483 C15.829,52.483 13.374,52.74 11.22,53.146 L6.787,50.587 L6.787,52.567 L8.756,53.704 C4.392,54.866 1.561,56.582 0.167,57.59 C0.101,57.258 0.054,56.927 0.052,56.605 C0.052,56.599 0.052,56.594 0.052,56.589 L0.052,2.803 L0.052,54.277 C5.808,49.737 15.651,45.458 32.411,43.298 C43.368,41.885 52.534,38.528 60.143,34.252 L2.486,0.963 C2.477,0.958 2.468,0.953 2.459,0.948 C2.468,0.953 2.477,0.958 2.486,0.963 L80.55,46.033 C81.894,46.81 82.984,48.892 82.984,50.684 L82.984,64.48 C79.105,66.549 74.783,67.813 70.009,67.813 M72.013,53.721 L73.161,57.994 L74.367,58.692 L72.963,53.639 L74.235,50.938 L73.08,50.271 L71.773,52.85 L71.773,49.516 L70.561,48.817 L70.561,56.494 L71.773,57.194 L71.773,54.081 L72.013,53.721 M67.128,49.942 L68.773,55.461 L69.567,55.92 L69.567,48.242 L68.564,47.663 L68.564,52.012 L66.936,46.723 L66.102,46.242 L66.102,53.919 L67.128,54.512 L67.128,49.942 M62.902,50.289 L64.052,50.953 L64.322,52.891 L65.448,53.541 L64.101,45.086 L62.837,44.358 L61.486,51.254 L62.629,51.914 L62.902,50.289 M57.279,41.149 L57.279,48.825 L59.188,49.928 C59.58,50.154 59.912,50.267 60.184,50.267 C60.334,50.267 60.466,50.233 60.58,50.163 C60.898,49.969 61.055,49.507 61.0530189,48.778 C61.05,48.213 60.953,47.721 60.757,47.299 C60.564,46.876 60.271,46.508 59.878,46.196 C60.02,46.253 60.146,46.282 60.257,46.282 C60.654,46.282 60.854,45.911 60.857,45.172 C60.859,44.807 60.815,44.467 60.724,44.156 C60.633,43.844 60.498,43.563 60.322,43.315 C60.143,43.065 59.94,42.842 59.711,42.647 C59.483,42.452 59.215,42.266 58.908,42.088 L57.279,41.149 M63.919,49.965 L63.03,49.451 L63.475,46.555 L63.919,49.965 M59.496,48.997 C59.355,48.997 59.168,48.93 58.935,48.795 L58.491,48.538 L58.491,45.963 L58.871,46.184 C59.241,46.397 59.502,46.653 59.659,46.951 C59.816,47.25 59.894,47.631 59.894,48.094 C59.894,48.541 59.824,48.822 59.685,48.937 C59.636,48.977 59.573,48.997 59.496,48.997 M59.435,45.403 C59.296,45.403 59.107,45.334 58.868,45.196 L58.491,44.977 L58.491,42.828 L58.659,42.926 C58.87,43.048 59.039,43.156 59.167,43.252 C59.292,43.346 59.409,43.458 59.513,43.586 C59.617,43.714 59.691,43.858 59.735,44.018 C59.779,44.178 59.802,44.365 59.802,44.582 C59.802,44.998 59.735,45.256 59.601,45.355 C59.557,45.387 59.502,45.403 59.435,45.403" id="Fill-128" fill="url(#linearGradient-53)" mask="url(#mask-52)"></path>
        </g>
        <path d="M124.514,96.267 C124.242,96.267 123.91,96.154 123.518,95.928 L121.609,94.825 L121.609,87.149 L123.238,88.088 C123.545,88.266 123.813,88.452 124.041,88.647 C124.27,88.842 124.473,89.065 124.652,89.315 C124.828,89.563 124.963,89.844 125.054,90.156 C125.145,90.467 125.189,90.807 125.187,91.172 C125.184,91.911 124.984,92.282 124.587,92.282 C124.476,92.282 124.35,92.253 124.208,92.196 C124.601,92.508 124.894,92.876 125.087,93.299 C125.283,93.721 125.38,94.213 125.383019,94.778 C125.385,95.507 125.228,95.969 124.91,96.163 C124.796,96.233 124.664,96.267 124.514,96.267 M122.821,91.963 L122.821,94.538 L123.265,94.795 C123.498,94.93 123.685,94.997 123.826,94.997 C123.903,94.997 123.966,94.977 124.015,94.937 C124.154,94.822 124.224,94.541 124.224,94.094 C124.224,93.631 124.146,93.25 123.989,92.951 C123.832,92.653 123.571,92.397 123.201,92.184 L122.821,91.963 M122.821,88.828 L122.821,90.977 L123.198,91.196 C123.437,91.334 123.626,91.403 123.765,91.403 C123.832,91.403 123.887,91.387 123.931,91.355 C124.065,91.256 124.132,90.998 124.132,90.582 C124.132,90.365 124.109,90.178 124.065,90.018 C124.021,89.858 123.947,89.714 123.843,89.586 C123.739,89.458 123.622,89.346 123.497,89.252 C123.369,89.156 123.2,89.048 122.989,88.926 L122.821,88.828" id="Fill-131" fill="#FFFFFE"></path>
        <path d="M129.778,99.541 L128.652,98.891 L128.382,96.953 L127.232,96.289 L126.959,97.914 L125.816,97.254 L127.167,90.358 L128.431,91.086 L129.778,99.541 M127.805,92.555 L127.36,95.451 L128.249,95.965 L127.805,92.555" id="Fill-132" fill="#FFFFFE"></path>
        <polyline id="Fill-133" fill="#FFFFFE" points="133.897 101.92 133.103 101.461 131.458 95.942 131.458 100.512 130.432 99.919 130.432 92.242 131.266 92.723 132.894 98.012 132.894 93.663 133.897 94.242 133.897 101.92"></polyline>
        <polyline id="Fill-134" fill="#FFFFFE" points="138.697 104.692 137.491 103.994 136.343 99.721 136.103 100.081 136.103 103.194 134.891 102.494 134.891 94.817 136.103 95.516 136.103 98.85 137.41 96.271 138.565 96.938 137.293 99.639 138.697 104.692"></polyline>
        <path d="M73.086,99.704 L71.117,98.567 L71.117,96.587 L75.55,99.146 C74.68,99.31 73.859,99.498 73.086,99.704" id="Fill-135" fill="#FFFFFE"></path>
        <g id="Group-138" transform="translate(63.330000, 46.000000)">
            <mask id="mask-55" fill="white">
                <use xlink:href="#path-54"></use>
            </mask>
            <g id="Clip-137"></g>
            <path d="M1.052,2.803 C1.052,1.806 1.39,1.108 1.921,0.82 L1.92,0.82 C1.39,1.109 1.052,1.807 1.052,2.803" id="Fill-136" fill="url(#radialGradient-56)" mask="url(#mask-55)"></path>
        </g>
        <path d="M65.25,46.82 L65.251,46.82 C65.429,46.723 65.629,46.672 65.845,46.671 C65.629,46.672 65.428,46.723 65.25,46.82" id="Fill-139" fill="#FFFFFE"></path>
        <g id="Group-142" transform="translate(64.330000, 46.000000)">
            <mask id="mask-58" fill="white">
                <use xlink:href="#path-57"></use>
            </mask>
            <g id="Clip-141"></g>
            <path d="M0.052,54.277 L0.052,2.803 C0.052,1.807 0.39,1.109 0.92,0.82 C1.098,0.723 1.299,0.672 1.515,0.671 C1.517,0.671 1.518,0.671 1.52,0.671 C1.522,0.671 1.523,0.671 1.525,0.671 C1.81,0.672 2.124,0.76 2.454,0.945 C2.456,0.946 2.457,0.947 2.459,0.948 C2.468,0.953 2.477,0.958 2.486,0.963 L60.143,34.252 C52.534,38.528 43.368,41.885 32.411,43.298 C15.651,45.458 5.808,49.737 0.052,54.277" id="Fill-140" fill="url(#linearGradient-59)" mask="url(#mask-58)"></path>
        </g>
        <path d="M114.462,219.455 L113.716,220.563 C113.072,219.474 112.003,218.449 110.506,217.576 C105.234,214.501 96.665,214.463 91.366,217.491 C89.899,218.329 88.838,219.315 88.18,220.367 L87.394,219.334 L87.383,221.698 L87.388,221.694 C87.327,223.732 88.636,225.785 91.322,227.352 C96.594,230.427 105.164,230.466 110.463,227.438 C113.112,225.924 114.442,223.93 114.451,221.93 L114.462,219.455" id="Fill-143" fill="#EAA258"></path>
        <path d="M110.474,224.962 C105.175,227.99 96.605,227.952 91.333,224.877 C86.062,221.802 86.083,216.854 91.382,213.826 C96.681,210.798 105.251,210.836 110.523,213.912 C115.795,216.987 115.773,221.934 110.474,224.962" id="Fill-144" fill="#F6C86C"></path>
        <g id="Group-147" transform="translate(87.330000, 211.000000)">
            <mask id="mask-61" fill="white">
                <use xlink:href="#path-60"></use>
            </mask>
            <g id="Clip-146"></g>
            <path d="M23.144,13.962 C17.845,16.99 9.275,16.952 4.003,13.877 C-1.268,10.802 -1.247,5.854 4.052,2.826 C9.351,-0.202 17.921,-0.164 23.193,2.912 C28.465,5.987 28.443,10.934 23.144,13.962" id="Fill-145" fill="url(#radialGradient-62)" mask="url(#mask-61)"></path>
        </g>
        <path d="M100.869,212.95 C98.008,212.95 95.154,213.572 92.971,214.819 C90.857,216.027 89.688,217.634 89.6799683,219.343 C89.673,221.053 90.827,222.671 92.93,223.898 C97.318,226.457 104.474,226.489 108.885,223.969 C110.999,222.761 112.168,221.154 112.176032,219.444 C112.183,217.735 111.029,216.118 108.926,214.891 C106.71,213.598 103.786,212.95 100.869,212.95 Z M100.987,226.064 C98.027,226.064 95.063,225.407 92.815,224.096 C90.638,222.826 89.443,221.138 89.4509601,219.343 C89.459,217.548 90.669,215.87 92.858,214.62 C97.33,212.064 104.59,212.096 109.041,214.693 C111.218,215.963 112.413,217.651 112.40504,219.446 C112.397,221.24 111.187,222.918 108.999,224.168 C106.785,225.433 103.888,226.064 100.987,226.064 L100.987,226.064 Z" id="Fill-148" fill="#EAA258"></path>
        <g id="Group-151" transform="translate(89.330000, 212.000000)">
            <mask id="mask-64" fill="white">
                <use xlink:href="#path-63"></use>
            </mask>
            <g id="Clip-150"></g>
            <path d="M19.612,12.069 C15.163,14.611 7.969,14.579 3.543,11.997 C-0.883,9.415 -0.864,5.262 3.584,2.72 C8.033,0.178 15.227,0.21 19.653,2.792 C24.079,5.373 24.06,9.527 19.612,12.069" id="Fill-149" fill="url(#radialGradient-65)" mask="url(#mask-64)"></path>
        </g>
        <path d="M92.912,215.264 C97.36,212.722 104.555,212.754 108.98,215.335 C111.074,216.557 112.171,218.129 112.278,219.717 C112.412,217.949 111.315,216.152 108.983,214.792 C104.557,212.21 97.363,212.178 92.914,214.72 C90.57,216.059 89.457,217.846 89.576,219.615 C89.696,218.029 90.808,216.466 92.912,215.264" id="Fill-152" fill="#EAA258"></path>
        <path d="M110.476,224.447 C105.177,227.475 96.608,227.437 91.336,224.361 C88.813,222.89 87.506,220.99 87.406,219.076 C87.278,221.16 88.584,223.273 91.333,224.877 C96.605,227.952 105.175,227.99 110.474,224.962 C113.237,223.383 114.562,221.282 114.453,219.197 C114.335,221.11 113.011,222.998 110.476,224.447" id="Fill-153" fill="#FAE383"></path>
        <path d="M116.786,216.138 L116.039,217.246 C115.396,216.158 114.327,215.133 112.83,214.26 C107.558,211.185 98.988,211.147 93.689,214.175 C92.222,215.013 91.161,215.999 90.503,217.051 L89.717,216.018 L89.707,218.382 L89.711,218.378 C89.651,220.416 90.959,222.469 93.646,224.036 C98.918,227.111 107.487,227.149 112.786,224.122 C115.435,222.608 116.766,220.614 116.774,218.614 L116.786,216.138" id="Fill-154" fill="#EAA258"></path>
        <path d="M112.797,221.646 C107.498,224.674 98.929,224.636 93.657,221.561 C88.385,218.485 88.407,213.538 93.706,210.51 C99.005,207.482 107.574,207.52 112.846,210.595 C118.118,213.671 118.096,218.618 112.797,221.646" id="Fill-155" fill="#F6C86C"></path>
        <g id="Group-158" transform="translate(89.330000, 208.000000)">
            <mask id="mask-67" fill="white">
                <use xlink:href="#path-66"></use>
            </mask>
            <g id="Clip-157"></g>
            <path d="M23.467,13.646 C18.168,16.674 9.599,16.636 4.327,13.561 C-0.945,10.485 -0.923,5.538 4.376,2.51 C9.675,-0.518 18.244,-0.48 23.516,2.595 C28.788,5.671 28.766,10.618 23.467,13.646" id="Fill-156" fill="url(#radialGradient-68)" mask="url(#mask-67)"></path>
        </g>
        <path d="M103.192,209.634 C100.332,209.634 97.477,210.256 95.295,211.503 C93.18,212.711 92.011,214.318 92.0039587,216.027 C91.996,217.737 93.15,219.354 95.254,220.582 C99.642,223.141 106.797,223.173 111.208,220.653 C113.322,219.445 114.491,217.838 114.499041,216.128 C114.507,214.419 113.353,212.802 111.249,211.575 C109.033,210.282 106.11,209.634 103.192,209.634 Z M103.311,222.748 C100.35,222.748 97.387,222.091 95.139,220.78 C92.961,219.51 91.767,217.822 91.7739694,216.027 C91.783,214.232 92.992,212.554 95.181,211.304 C99.653,208.748 106.913,208.78 111.364,211.377 C113.542,212.647 114.736,214.334 114.72804,216.129 C114.72,217.924 113.51,219.602 111.322,220.852 C109.108,222.117 106.211,222.748 103.311,222.748 L103.311,222.748 Z" id="Fill-159" fill="#EAA258"></path>
        <g id="Group-162" transform="translate(91.330000, 209.000000)">
            <mask id="mask-70" fill="white">
                <use xlink:href="#path-69"></use>
            </mask>
            <g id="Clip-161"></g>
            <path d="M19.935,11.753 C15.486,14.294 8.292,14.262 3.866,11.681 C-0.559,9.099 -0.541,4.946 3.908,2.404 C8.356,-0.138 15.55,-0.106 19.976,2.475 C24.402,5.057 24.384,9.211 19.935,11.753" id="Fill-160" fill="url(#radialGradient-71)" mask="url(#mask-70)"></path>
        </g>
        <path d="M95.235,211.948 C99.684,209.406 106.878,209.438 111.304,212.019 C113.397,213.24 114.495,214.813 114.601,216.401 C114.735,214.633 113.639,212.836 111.306,211.475 C106.88,208.894 99.686,208.862 95.238,211.404 C92.893,212.743 91.781,214.53 91.899,216.299 C92.02,214.713 93.131,213.15 95.235,211.948" id="Fill-163" fill="#EAA258"></path>
        <path d="M112.799,221.131 C107.5,224.159 98.931,224.12 93.659,221.045 C91.136,219.574 89.829,217.673 89.729,215.76 C89.601,217.844 90.907,219.957 93.657,221.561 C98.929,224.636 107.498,224.674 112.797,221.646 C115.56,220.067 116.885,217.966 116.776,215.881 C116.659,217.793 115.335,219.682 112.799,221.131" id="Fill-164" fill="#FAE383"></path>
        <path d="M134.621,232.62 L133.875,233.728 C133.231,232.639 132.162,231.615 130.665,230.741 C125.393,227.666 116.824,227.628 111.525,230.656 C110.057,231.494 108.996,232.48 108.339,233.533 L107.552,232.499 L107.542,234.863 L107.547,234.859 C107.486,236.897 108.794,238.95 111.481,240.517 C116.753,243.593 125.322,243.631 130.621,240.603 C133.271,239.089 134.601,237.095 134.61,235.095 L134.621,232.62" id="Fill-165" fill="#EAA258"></path>
        <path d="M130.632,238.127 C125.333,241.155 116.764,241.117 111.492,238.042 C106.22,234.967 106.242,230.019 111.541,226.991 C116.84,223.963 125.409,224.002 130.681,227.077 C135.953,230.152 135.931,235.1 130.632,238.127" id="Fill-166" fill="#F6C86C"></path>
        <g id="Group-169" transform="translate(107.330000, 224.000000)">
            <mask id="mask-73" fill="white">
                <use xlink:href="#path-72"></use>
            </mask>
            <g id="Clip-168"></g>
            <path d="M23.302,14.127 C18.003,17.155 9.434,17.117 4.162,14.042 C-1.11,10.967 -1.088,6.019 4.211,2.991 C9.51,-0.037 18.079,0.002 23.351,3.077 C28.623,6.152 28.601,11.1 23.302,14.127" id="Fill-167" fill="url(#radialGradient-74)" mask="url(#mask-73)"></path>
        </g>
        <path d="M121.027,226.115 C118.167,226.115 115.313,226.737 113.13,227.984 C111.015,229.192 109.847,230.799 109.838959,232.508 C109.831,234.218 110.985,235.836 113.089,237.063 C117.477,239.622 124.632,239.654 129.043,237.134 C131.158,235.927 132.326,234.319 132.334041,232.609 C132.342,230.9 131.188,229.283 129.084,228.056 C126.868,226.763 123.945,226.115 121.027,226.115 Z M121.146,239.229 C118.185,239.229 115.222,238.573 112.974,237.261 C110.796,235.991 109.602,234.303 109.60996,232.508 C109.618,230.713 110.827,229.035 113.016,227.785 C117.488,225.23 124.749,225.262 129.199,227.858 C131.377,229.128 132.571,230.816 132.56304,232.611 C132.555,234.406 131.346,236.083 129.157,237.333 C126.944,238.598 124.046,239.229 121.146,239.229 L121.146,239.229 Z" id="Fill-170" fill="#EAA258"></path>
        <g id="Group-173" transform="translate(109.330000, 226.000000)">
            <mask id="mask-76" fill="white">
                <use xlink:href="#path-75"></use>
            </mask>
            <g id="Clip-172"></g>
            <path d="M19.77,11.234 C15.322,13.776 8.128,13.744 3.702,11.162 C-0.724,8.58 -0.706,4.427 3.743,1.885 C8.191,-0.657 15.386,-0.625 19.811,1.957 C24.237,4.538 24.219,8.692 19.77,11.234" id="Fill-171" fill="url(#radialGradient-77)" mask="url(#mask-76)"></path>
        </g>
        <path d="M113.07,228.429 C117.519,225.887 124.713,225.919 129.139,228.5 C131.232,229.722 132.33,231.295 132.436,232.882 C132.571,231.114 131.474,229.317 129.141,227.957 C124.715,225.375 117.521,225.343 113.073,227.885 C110.728,229.224 109.616,231.011 109.734,232.781 C109.855,231.194 110.966,229.631 113.07,228.429" id="Fill-174" fill="#EAA258"></path>
        <path d="M130.634,237.612 C125.335,240.64 116.766,240.602 111.494,237.526 C108.971,236.055 107.664,234.155 107.564,232.241 C107.436,234.325 108.743,236.438 111.492,238.042 C116.764,241.117 125.333,241.155 130.632,238.127 C133.395,236.548 134.72,234.448 134.611,232.362 C134.494,234.275 133.17,236.163 130.634,237.612" id="Fill-175" fill="#FAE383"></path>
        <path d="M107.556,237.314 L106.809,238.422 C106.166,237.333 105.097,236.309 103.6,235.436 C98.328,232.36 89.758,232.322 84.459,235.35 C82.992,236.188 81.931,237.175 81.273,238.227 L80.487,237.193 L80.477,239.557 L80.481,239.553 C80.421,241.591 81.729,243.645 84.416,245.211 C89.688,248.287 98.257,248.325 103.556,245.297 C106.205,243.783 107.536,241.789 107.544,239.789 L107.556,237.314" id="Fill-176" fill="#EAA258"></path>
        <path d="M103.567,242.822 C98.268,245.849 89.699,245.811 84.427,242.736 C79.155,239.661 79.177,234.713 84.476,231.685 C89.775,228.657 98.344,228.696 103.616,231.771 C108.888,234.846 108.866,239.794 103.567,242.822" id="Fill-177" fill="#F6C86C"></path>
        <g id="Group-180" transform="translate(80.330000, 229.000000)">
            <mask id="mask-79" fill="white">
                <use xlink:href="#path-78"></use>
            </mask>
            <g id="Clip-179"></g>
            <path d="M23.237,13.822 C17.938,16.849 9.369,16.811 4.097,13.736 C-1.175,10.661 -1.153,5.713 4.146,2.685 C9.445,-0.343 18.014,-0.304 23.286,2.771 C28.558,5.846 28.536,10.794 23.237,13.822" id="Fill-178" fill="url(#radialGradient-80)" mask="url(#mask-79)"></path>
        </g>
        <path d="M93.962,230.81 C91.102,230.81 88.247,231.431 86.065,232.678 C83.95,233.886 82.781,235.493 82.7739587,237.203 C82.766,238.913 83.92,240.53 86.024,241.757 C90.412,244.316 97.567,244.348 101.978,241.828 C104.093,240.621 105.261,239.014 105.269041,237.304 C105.277,235.594 104.123,233.977 102.019,232.75 C99.803,231.458 96.88,230.81 93.962,230.81 Z M94.081,243.924 C91.12,243.924 88.157,243.267 85.909,241.955 C83.731,240.685 82.537,238.997 82.5439694,237.202 C82.553,235.407 83.762,233.73 85.951,232.479 C90.423,229.924 97.683,229.956 102.134,232.552 C104.312,233.822 105.506,235.51 105.49804,237.305 C105.49,239.1 104.28,240.777 102.092,242.028 C99.878,243.292 96.981,243.924 94.081,243.924 L94.081,243.924 Z" id="Fill-181" fill="#EAA258"></path>
        <g id="Group-184" transform="translate(82.330000, 230.000000)">
            <mask id="mask-82" fill="white">
                <use xlink:href="#path-81"></use>
            </mask>
            <g id="Clip-183"></g>
            <path d="M19.705,11.928 C15.256,14.47 8.062,14.438 3.636,11.856 C-0.789,9.274 -0.771,5.121 3.678,2.579 C8.126,0.037 15.32,0.069 19.746,2.651 C24.172,5.232 24.154,9.386 19.705,11.928" id="Fill-182" fill="url(#radialGradient-83)" mask="url(#mask-82)"></path>
        </g>
        <path d="M86.005,233.123 C90.454,230.581 97.648,230.613 102.074,233.195 C104.167,234.416 105.265,235.989 105.371,237.576 C105.505,235.809 104.409,234.011 102.076,232.651 C97.65,230.069 90.456,230.037 86.008,232.579 C83.663,233.918 82.551,235.706 82.669,237.475 C82.79,235.888 83.901,234.325 86.005,233.123" id="Fill-185" fill="#EAA258"></path>
        <path d="M103.569,242.306 C98.27,245.334 89.701,245.296 84.429,242.221 C81.906,240.749 80.599,238.849 80.499,236.935 C80.371,239.02 81.677,241.132 84.427,242.736 C89.699,245.811 98.268,245.85 103.567,242.822 C106.33,241.243 107.655,239.142 107.546,237.057 C107.429,238.969 106.105,240.857 103.569,242.306" id="Fill-186" fill="#FAE383"></path>
        <path d="M120.361,232.337 L119.614,233.445 C118.971,232.357 117.902,231.332 116.405,230.459 C111.133,227.384 102.563,227.345 97.264,230.373 C95.797,231.212 94.736,232.198 94.078,233.25 L93.292,232.216 L93.282,234.58 L93.286,234.577 C93.226,236.615 94.534,238.668 97.221,240.235 C102.493,243.31 111.062,243.348 116.361,240.32 C119.01,238.806 120.341,236.813 120.349,234.813 L120.361,232.337" id="Fill-187" fill="#EAA258"></path>
        <path d="M116.372,237.845 C111.073,240.873 102.504,240.834 97.232,237.759 C91.96,234.684 91.982,229.737 97.281,226.709 C102.58,223.681 111.149,223.719 116.421,226.794 C121.693,229.869 121.671,234.817 116.372,237.845" id="Fill-188" fill="#F6C86C"></path>
        <g id="Group-191" transform="translate(92.330000, 224.000000)">
            <mask id="mask-85" fill="white">
                <use xlink:href="#path-84"></use>
            </mask>
            <g id="Clip-190"></g>
            <path d="M24.042,13.845 C18.743,16.873 10.174,16.834 4.902,13.759 C-0.37,10.684 -0.348,5.737 4.951,2.709 C10.25,-0.319 18.819,-0.281 24.091,2.794 C29.363,5.869 29.341,10.817 24.042,13.845" id="Fill-189" fill="url(#radialGradient-86)" mask="url(#mask-85)"></path>
        </g>
        <path d="M106.767,225.833 C103.907,225.833 101.052,226.455 98.87,227.702 C96.755,228.909 95.586,230.517 95.5789587,232.226 C95.571,233.936 96.725,235.553 98.829,236.781 C103.217,239.34 110.372,239.372 114.783,236.852 C116.898,235.644 118.066,234.037 118.074041,232.327 C118.082,230.618 116.928,229 114.824,227.773 C112.608,226.481 109.685,225.833 106.767,225.833 Z M106.886,238.947 C103.925,238.947 100.962,238.29 98.714,236.979 C96.536,235.708 95.342,234.02 95.3489694,232.225 C95.358,230.43 96.567,228.753 98.756,227.502 C103.228,224.947 110.488,224.979 114.939,227.575 C117.117,228.846 118.311,230.533 118.30304,232.328 C118.295,234.123 117.085,235.801 114.897,237.051 C112.683,238.315 109.786,238.947 106.886,238.947 L106.886,238.947 Z" id="Fill-192" fill="#EAA258"></path>
        <g id="Group-195" transform="translate(95.330000, 225.000000)">
            <mask id="mask-88" fill="white">
                <use xlink:href="#path-87"></use>
            </mask>
            <g id="Clip-194"></g>
            <path d="M19.51,11.951 C15.061,14.493 7.867,14.461 3.441,11.879 C-0.984,9.298 -0.966,5.144 3.483,2.602 C7.931,0.06 15.125,0.093 19.551,2.674 C23.977,5.256 23.959,9.409 19.51,11.951" id="Fill-193" fill="url(#radialGradient-89)" mask="url(#mask-88)"></path>
        </g>
        <path d="M98.81,228.146 C103.259,225.604 110.453,225.636 114.879,228.218 C116.972,229.439 118.07,231.012 118.176,232.6 C118.31,230.832 117.214,229.035 114.881,227.674 C110.455,225.093 103.261,225.06 98.813,227.602 C96.468,228.942 95.356,230.729 95.474,232.498 C95.595,230.911 96.706,229.348 98.81,228.146" id="Fill-196" fill="#EAA258"></path>
        <path d="M116.374,237.33 C111.075,240.357 102.506,240.319 97.234,237.244 C94.711,235.772 93.404,233.872 93.304,231.958 C93.176,234.043 94.482,236.156 97.232,237.759 C102.504,240.834 111.073,240.873 116.372,237.845 C119.135,236.266 120.46,234.165 120.351,232.08 C120.234,233.992 118.91,235.881 116.374,237.33" id="Fill-197" fill="#FAE383"></path>
        <path d="M123.861,229.632 L123.115,230.74 C122.471,229.652 121.402,228.627 119.905,227.754 C114.633,224.679 106.064,224.64 100.765,227.668 C99.297,228.507 98.236,229.493 97.579,230.545 L96.792,229.511 L96.782,231.875 L96.787,231.872 C96.726,233.909 98.034,235.963 100.721,237.53 C105.993,240.605 114.562,240.643 119.861,237.615 C122.511,236.101 123.841,234.107 123.85,232.108 L123.861,229.632" id="Fill-198" fill="#EAA258"></path>
        <path d="M119.872,235.14 C114.573,238.168 106.004,238.129 100.732,235.054 C95.46,231.979 95.482,227.031 100.781,224.004 C106.08,220.976 114.649,221.014 119.921,224.089 C125.193,227.165 125.171,232.112 119.872,235.14" id="Fill-199" fill="#F6C86C"></path>
        <g id="Group-202" transform="translate(96.330000, 221.000000)">
            <mask id="mask-91" fill="white">
                <use xlink:href="#path-90"></use>
            </mask>
            <g id="Clip-201"></g>
            <path d="M23.542,14.14 C18.243,17.168 9.674,17.129 4.402,14.054 C-0.87,10.979 -0.848,6.031 4.451,3.004 C9.75,-0.024 18.319,0.014 23.591,3.089 C28.863,6.165 28.841,11.112 23.542,14.14" id="Fill-200" fill="url(#radialGradient-86)" mask="url(#mask-91)"></path>
        </g>
        <path d="M110.267,223.128 C107.407,223.128 104.553,223.75 102.37,224.997 C100.255,226.205 99.087,227.812 99.0789587,229.521 C99.071,231.231 100.225,232.848 102.329,234.076 C106.717,236.635 113.872,236.667 118.283,234.147 C120.398,232.939 121.566,231.332 121.574041,229.622 C121.582,227.913 120.428,226.295 118.324,225.068 C116.108,223.776 113.185,223.128 110.267,223.128 Z M110.386,236.242 C107.426,236.242 104.462,235.585 102.214,234.274 C100.036,233.003 98.842,231.315 98.8499601,229.52 C98.858,227.725 100.067,226.048 102.256,224.797 C106.728,222.242 113.989,222.274 118.439,224.87 C120.617,226.141 121.811,227.828 121.804031,229.623 C121.795,231.418 120.586,233.095 118.397,234.346 C116.184,235.611 113.286,236.242 110.386,236.242 L110.386,236.242 Z" id="Fill-203" fill="#EAA258"></path>
        <g id="Group-206" transform="translate(98.330000, 223.000000)">
            <mask id="mask-93" fill="white">
                <use xlink:href="#path-92"></use>
            </mask>
            <g id="Clip-205"></g>
            <path d="M20.01,11.246 C15.562,13.788 8.368,13.756 3.942,11.174 C-0.484,8.593 -0.466,4.439 3.983,1.897 C8.431,-0.645 15.626,-0.613 20.051,1.969 C24.477,4.551 24.459,8.704 20.01,11.246" id="Fill-204" fill="url(#radialGradient-77)" mask="url(#mask-93)"></path>
        </g>
        <path d="M102.31,225.441 C106.759,222.899 113.953,222.931 118.379,225.513 C120.472,226.734 121.57,228.307 121.676,229.895 C121.811,228.127 120.714,226.33 118.381,224.969 C113.956,222.387 106.761,222.355 102.313,224.897 C99.968,226.237 98.856,228.024 98.974,229.793 C99.095,228.206 100.206,226.644 102.31,225.441" id="Fill-207" fill="#EAA258"></path>
        <path d="M119.874,234.625 C114.575,237.653 106.006,237.614 100.734,234.539 C98.211,233.067 96.904,231.167 96.804,229.253 C96.676,231.338 97.983,233.45 100.732,235.054 C106.004,238.129 114.573,238.168 119.872,235.14 C122.635,233.561 123.96,231.46 123.851,229.375 C123.734,231.287 122.41,233.176 119.874,234.625" id="Fill-208" fill="#FAE383"></path>
        <path d="M125.715,224.429 L124.969,225.537 C124.325,224.449 123.256,223.425 121.759,222.551 C116.487,219.476 107.918,219.438 102.619,222.466 C101.152,223.304 100.091,224.29 99.433,225.343 L98.647,224.309 L98.636,226.673 L98.641,226.669 C98.58,228.707 99.889,230.76 102.575,232.327 C107.847,235.402 116.416,235.441 121.715,232.413 C124.365,230.899 125.695,228.905 125.704,226.905 L125.715,224.429" id="Fill-209" fill="#EAA258"></path>
        <path d="M121.726,229.937 C116.427,232.965 107.858,232.927 102.586,229.852 C97.314,226.776 97.336,221.829 102.635,218.801 C107.934,215.773 116.504,215.812 121.775,218.887 C127.047,221.962 127.025,226.909 121.726,229.937" id="Fill-210" fill="#F6C86C"></path>
        <g id="Group-213" transform="translate(98.330000, 216.000000)">
            <mask id="mask-95" fill="white">
                <use xlink:href="#path-94"></use>
            </mask>
            <g id="Clip-212"></g>
            <path d="M23.396,13.937 C18.097,16.965 9.528,16.927 4.256,13.852 C-1.016,10.776 -0.994,5.829 4.305,2.801 C9.604,-0.227 18.174,-0.188 23.445,2.887 C28.717,5.962 28.695,10.909 23.396,13.937" id="Fill-211" fill="url(#radialGradient-96)" mask="url(#mask-95)"></path>
        </g>
        <path d="M112.121,217.925 C109.261,217.925 106.407,218.547 104.224,219.794 C102.11,221.002 100.941,222.609 100.932968,224.318 C100.926,226.028 102.08,227.646 104.183,228.873 C108.571,231.432 115.727,231.464 120.138,228.944 C122.252,227.736 123.421,226.129 123.428041,224.419 C123.436,222.71 122.282,221.093 120.179,219.866 C117.963,218.573 115.039,217.925 112.121,217.925 Z M112.24,231.039 C109.28,231.039 106.316,230.382 104.068,229.071 C101.89,227.801 100.696,226.113 100.70396,224.318 C100.712,222.523 101.922,220.845 104.11,219.595 C108.583,217.04 115.843,217.072 120.294,219.668 C122.471,220.938 123.666,222.625 123.65804,224.421 C123.65,226.216 122.44,227.893 120.251,229.143 C118.038,230.408 115.141,231.039 112.24,231.039 L112.24,231.039 Z" id="Fill-214" fill="#EAA258"></path>
        <g id="Group-217" transform="translate(100.330000, 217.000000)">
            <mask id="mask-98" fill="white">
                <use xlink:href="#path-97"></use>
            </mask>
            <g id="Clip-216"></g>
            <path d="M19.865,12.044 C15.416,14.586 8.222,14.553 3.796,11.972 C-0.63,9.39 -0.611,5.237 3.837,2.695 C8.286,0.153 15.48,0.185 19.906,2.766 C24.332,5.348 24.313,9.502 19.865,12.044" id="Fill-215" fill="url(#radialGradient-99)" mask="url(#mask-98)"></path>
        </g>
        <path d="M104.165,220.239 C108.613,217.697 115.807,217.729 120.233,220.31 C122.327,221.531 123.424,223.104 123.531,224.692 C123.665,222.924 122.568,221.127 120.236,219.766 C115.81,217.185 108.616,217.153 104.167,219.695 C101.823,221.034 100.71,222.821 100.829,224.59 C100.949,223.004 102.061,221.441 104.165,220.239" id="Fill-218" fill="#EAA258"></path>
        <path d="M121.729,229.422 C116.43,232.45 107.86,232.411 102.589,229.336 C100.066,227.865 98.759,225.964 98.658,224.051 C98.531,226.135 99.837,228.248 102.586,229.852 C107.858,232.927 116.428,232.965 121.726,229.937 C124.49,228.358 125.815,226.257 125.706,224.172 C125.588,226.085 124.264,227.973 121.729,229.422" id="Fill-219" fill="#FAE383"></path>
        <path d="M135.067,226.583 L134.11,227.514 C133.702,226.317 132.866,225.095 131.579,223.934 C127.048,219.845 118.668,218.053 112.862,219.933 C111.254,220.453 110.013,221.201 109.154,222.096 L108.596,220.924 L108.102,223.236 L108.107,223.233 C107.631,225.215 108.491,227.493 110.8,229.576 C115.331,233.666 123.711,235.457 129.518,233.578 C132.421,232.638 134.131,230.959 134.549,229.003 L135.067,226.583" id="Fill-220" fill="#EAA258"></path>
        <path d="M130.035,231.157 C124.229,233.036 115.849,231.245 111.318,227.156 C106.787,223.066 107.821,218.228 113.628,216.349 C119.434,214.47 127.814,216.261 132.345,220.351 C136.876,224.44 135.842,229.278 130.035,231.157" id="Fill-221" fill="#F6C86C"></path>
        <g id="Group-224" transform="translate(108.330000, 215.000000)">
            <mask id="mask-101" fill="white">
                <use xlink:href="#path-100"></use>
            </mask>
            <g id="Clip-223"></g>
            <path d="M21.705,16.157 C15.899,18.036 7.519,16.245 2.988,12.156 C-1.543,8.066 -0.509,3.228 5.298,1.349 C11.104,-0.53 19.484,1.261 24.015,5.351 C28.546,9.44 27.512,14.278 21.705,16.157" id="Fill-222" fill="url(#radialGradient-102)" mask="url(#mask-101)"></path>
        </g>
        <path d="M123.092,217.433 C120.293,216.848 117.372,216.872 114.98,217.646 C112.663,218.396 111.19,219.729 110.832,221.401 C110.475,223.073 111.273,224.893 113.081,226.525 C116.852,229.928 123.85,231.424 128.683,229.86 C131,229.11 132.473,227.777 132.831,226.104 C133.188,224.433 132.39,222.614 130.582,220.982 C128.677,219.263 125.948,218.031 123.092,217.433 Z M120.524,230.294 C117.627,229.688 114.86,228.438 112.928,226.695 C111.057,225.006 110.233,223.109 110.608,221.354 C110.984,219.598 112.511,218.204 114.909,217.428 C119.81,215.842 126.91,217.36 130.735,220.812 C132.606,222.501 133.43,224.397 133.055,226.153 C132.679,227.908 131.152,229.302 128.754,230.078 C126.328,230.863 123.363,230.888 120.524,230.294 L120.524,230.294 Z" id="Fill-225" fill="#EAA258"></path>
        <g id="Group-228" transform="translate(110.330000, 216.000000)">
            <mask id="mask-104" fill="white">
                <use xlink:href="#path-103"></use>
            </mask>
            <g id="Clip-227"></g>
            <path d="M18.389,13.969 C13.514,15.547 6.479,14.042 2.675,10.61 C-1.129,7.177 -0.26,3.115 4.614,1.537 C9.489,-0.04 16.524,1.464 20.328,4.897 C24.132,8.33 23.263,12.391 18.389,13.969" id="Fill-226" fill="url(#radialGradient-105)" mask="url(#mask-104)"></path>
        </g>
        <path d="M114.831,218.069 C119.705,216.492 126.74,217.996 130.544,221.428 C132.343,223.052 133.096,224.817 132.875,226.392 C133.368,224.689 132.663,222.706 130.658,220.897 C126.854,217.464 119.819,215.96 114.944,217.537 C112.375,218.369 110.921,219.89 110.674,221.646 C111.117,220.118 112.525,218.815 114.831,218.069" id="Fill-229" fill="#EAA258"></path>
        <path d="M130.143,230.653 C124.336,232.532 115.956,230.741 111.426,226.652 C109.257,224.695 108.367,222.567 108.661,220.674 C108.109,222.688 108.955,225.023 111.318,227.156 C115.849,231.245 124.229,233.036 130.035,231.157 C133.063,230.177 134.79,228.392 135.11,226.329 C134.604,228.177 132.921,229.754 130.143,230.653" id="Fill-230" fill="#FAE383"></path>
        <path d="M114.433,169.622 L113.238,170.219 C113.213,168.954 112.787,167.536 111.914,166.039 C108.84,160.767 101.4,156.514 95.297,156.54 C93.607,156.548 92.198,156.883 91.108,157.475 L90.932,156.188 L89.759,158.241 L89.765,158.24 C88.709,159.984 88.837,162.415 90.403,165.102 C93.478,170.374 100.918,174.627 107.021,174.601119 C110.072,174.588 112.212,173.507 113.204,171.771 L114.433,169.622" id="Fill-231" fill="#EAA258"></path>
        <path d="M108.249,172.452119 C102.146,172.478 94.706,168.225 91.632,162.953 C88.558,157.68 91.013,153.385 97.116,153.358881 C103.219,153.333 110.658,157.585 113.733,162.858 C116.807,168.13 114.352,172.425 108.249,172.452119" id="Fill-232" fill="#F6C86C"></path>
        <g id="Group-235" transform="translate(89.330000, 153.000000)">
            <mask id="mask-107" fill="white">
                <use xlink:href="#path-106"></use>
            </mask>
            <g id="Clip-234"></g>
            <path d="M18.919,19.4521186 C12.816,19.478 5.376,15.225 2.302,9.953 C-0.772,4.68 1.683,0.385 7.786,0.358881395 C13.889,0.333 21.328,4.585 24.403,9.858 C27.477,15.13 25.022,19.425 18.919,19.4521186" id="Fill-233" fill="url(#radialGradient-108)" mask="url(#mask-107)"></path>
        </g>
        <path d="M105.804,157.267 C103.314,155.859 100.524,154.995 98.01,155.004914 C95.575,155.015 93.766,155.839 92.918,157.323 C92.069,158.807 92.277,160.783 93.504,162.887 C96.063,167.275 102.275,170.826 107.355,170.805093 C109.79,170.795 111.599,169.971 112.447,168.487 C113.296,167.003 113.088,165.027 111.861,162.924 C110.569,160.707 108.343,158.704 105.804,157.267 Z M99.45,168.74 C96.873,167.282 94.617,165.251 93.306,163.003 C92.036,160.825 91.828,158.768 92.718,157.209 C93.61,155.651 95.488,154.787 98.009,154.7759 C103.16,154.754 109.463,158.357 112.058,162.808 C113.328,164.986 113.537,167.042 112.646,168.601 C111.755,170.159 109.877,171.023 107.356,171.034102 C104.807,171.045 101.974,170.168 99.45,168.74 L99.45,168.74 Z" id="Fill-236" fill="#EAA258"></path>
        <g id="Group-239" transform="translate(91.330000, 154.000000)">
            <mask id="mask-110" fill="white">
                <use xlink:href="#path-109"></use>
            </mask>
            <g id="Clip-238"></g>
            <path d="M16.026,16.9201011 C10.902,16.942 4.656,13.371 2.075,8.945 C-0.506,4.519 1.556,0.913 6.679,0.890898863 C11.803,0.869 18.048,4.439 20.629,8.865 C23.21,13.292 21.149,16.897 16.026,16.9201011" id="Fill-237" fill="url(#radialGradient-111)" mask="url(#mask-110)"></path>
        </g>
        <path d="M97.739,155.363 C102.863,155.341 109.109,158.911 111.689,163.337 C112.91,165.431 113.091,167.341 112.402,168.775 C113.389,167.302 113.32,165.198 111.959,162.865 C109.378,158.439 103.133,154.869 98.009,154.890899 C95.309,154.902 93.461,155.91 92.693,157.508 C93.579,156.187 95.316,155.374 97.739,155.363" id="Fill-240" fill="#EAA258"></path>
        <path d="M108.505,172.004 C102.402,172.031 94.962,167.778 91.888,162.505 C90.416,159.982 90.214,157.685 91.07,155.97 C89.932,157.721 90.029,160.203 91.632,162.953 C94.706,168.225 102.146,172.478 108.249,172.452119 C111.432,172.438 113.619,171.262 114.551,169.393 C113.507,171 111.425,171.992 108.505,172.004" id="Fill-241" fill="#FAE383"></path>
        <path d="M111.819,193.299 L111.716,194.631 C110.619,194.001 109.184,193.637 107.451,193.615 C101.348,193.539 93.874,197.731 90.757,202.978 C89.893,204.431 89.456,205.812 89.403,207.052 L88.209,206.54 L89.366,208.602 L89.368,208.596 C90.32,210.399 92.471,211.54 95.581,211.579 C101.683,211.655 109.158,207.463 112.275,202.217 C113.834,199.593 114.008,197.202 113.029,195.458 L111.819,193.299" id="Fill-242" fill="#EAA258"></path>
        <path d="M111.064,200.057 C107.947,205.304 100.472,209.496 94.37,209.42 C88.267,209.344 85.847,205.029 88.964,199.782 C92.081,194.535 99.556,190.343 105.658,190.419 C111.761,190.495 114.181,194.811 111.064,200.057" id="Fill-243" fill="#F6C86C"></path>
        <g id="Group-246" transform="translate(87.330000, 190.000000)">
            <mask id="mask-113" fill="white">
                <use xlink:href="#path-112"></use>
            </mask>
            <g id="Clip-245"></g>
            <path d="M23.734,10.057 C20.617,15.304 13.142,19.496 7.04,19.42 C0.937,19.344 -1.483,15.029 1.634,9.782 C4.751,4.535 12.226,0.343 18.328,0.419 C24.431,0.495 26.851,4.811 23.734,10.057" id="Fill-244" fill="url(#radialGradient-114)" mask="url(#mask-113)"></path>
        </g>
        <path d="M96.785,194.343 C94.297,195.753 92.12,197.701 90.836,199.862 C89.592,201.956 89.367,203.93 90.203,205.421 C91.04,206.912 92.841,207.75 95.277,207.781 C100.356,207.844 106.597,204.344 109.192,199.977 C110.436,197.884 110.661,195.909 109.824,194.418 C108.988,192.927 107.187,192.089 104.752,192.058 C102.186,192.026 99.324,192.904 96.785,194.343 Z M103.354,205.693 C100.779,207.153 97.876,208.043 95.274,208.01 C92.753,207.979 90.882,207.099 90.004,205.533 C89.126,203.968 89.351,201.912 90.639,199.745 C93.27,195.317 99.602,191.765 104.754,191.829 C107.275,191.861 109.146,192.74 110.024,194.306 C110.902,195.871 110.677,197.927 109.389,200.094 C108.087,202.286 105.878,204.263 103.354,205.693 L103.354,205.693 Z" id="Fill-247" fill="#EAA258"></path>
        <g id="Group-250" transform="translate(89.330000, 191.000000)">
            <mask id="mask-116" fill="white">
                <use xlink:href="#path-115"></use>
            </mask>
            <g id="Clip-249"></g>
            <path d="M19.961,9.035 C17.344,13.44 11.069,16.959 5.945,16.895 C0.822,16.831 -1.21,13.209 1.407,8.804 C4.024,4.399 10.299,0.88 15.422,0.944 C20.546,1.008 22.578,4.63 19.961,9.035" id="Fill-248" fill="url(#radialGradient-117)" mask="url(#mask-116)"></path>
        </g>
        <path d="M91.003,200.278 C93.62,195.873 99.895,192.354 105.019,192.418 C107.442,192.448 109.172,193.276 110.047,194.604 C109.293,193 107.453,191.978 104.752,191.944 C99.629,191.88 93.354,195.399 90.737,199.804 C89.358,202.125 89.271,204.229 90.247,205.709 C89.569,204.269 89.766,202.362 91.003,200.278" id="Fill-251" fill="#EAA258"></path>
        <path d="M110.812,199.608 C107.695,204.855 100.22,209.047 94.118,208.97 C91.197,208.934 89.123,207.925 88.092,206.31 C89.009,208.186 91.187,209.38 94.37,209.42 C100.472,209.496 107.947,205.304 111.064,200.058 C112.69,197.321 112.806,194.84 111.683,193.08 C112.524,194.802 112.304,197.097 110.812,199.608" id="Fill-252" fill="#FAE383"></path>
        <path d="M31.689,193.365 C31.228,193.365 30.767,193.247 30.357,193.01 L-4.679,172.781 C-4.88,172.666 -5,172.46 -5,172.229 C-5,171.997 -4.881,171.789 -4.68,171.673 L26.308,153.782 L26.619,154.322 L-4.369,172.212 L30.668,192.471 C31.296,192.834 32.077,192.835 32.706,192.472 L53.611,180.448 C54.438,179.971 55.463,179.976 56.283,180.456 L64.839,185.457 L64.525,185.994 L55.968,180.993 C55.339,180.624 54.554,180.622 53.921,180.987 L33.017,193.012 C32.607,193.248 32.148,193.365 31.689,193.365" id="Fill-253" fill="#FFFFFE"></path>
        <g id="Group-256" transform="translate(122.330000, 125.000000)">
            <mask id="mask-119" fill="white">
                <use xlink:href="#path-118"></use>
            </mask>
            <g id="Clip-255"></g>
            <path d="M43.706,89.619 C61.986,75.202 58.606,42.778 58.606,42.778 L25.986,7.751 L12.574,6.396 L0.467,5.587 C0.508,2.548 0.707,0.875 0.707,0.875 L24.984,2.84 L26.115,2.931 L33.079,3.495 L33.326,3.514 L50.659,22.126 L51.245,22.756 L65.945,38.541 C65.945,38.541 66.163,40.637 66.189,44 C66.191,44.231 66.191,44.468 66.191,44.711 C66.188,49.168 65.832,55.549 64.298,62.193 C64.037,63.324 63.742,64.463 63.408,65.601 C62.333,69.273 60.86,72.936 58.852,76.32 C56.877,79.647 54.383,82.704 51.245,85.224 C51.052,85.378 50.856,85.531 50.659,85.682 C48.616,87.238 46.309,88.573 43.706,89.619" id="Fill-254" mask="url(#mask-119)"></path>
        </g>
        <g id="Group-259" transform="translate(115.330000, 125.000000)">
            <mask id="mask-121" fill="white">
                <use xlink:href="#path-120"></use>
            </mask>
            <g id="Clip-258"></g>
            <polyline id="Fill-257" fill="url(#linearGradient-122)" mask="url(#mask-121)" points="7.707 0.875 0.367 5.113 32.986 7.751 40.326 3.514 7.707 0.875"></polyline>
        </g>
        <g id="Group-262" transform="translate(115.330000, 130.000000)">
            <mask id="mask-124" fill="white">
                <use xlink:href="#path-123"></use>
            </mask>
            <g id="Clip-261"></g>
            <path d="M32.986,91.232 C30.403,88.032 28.022,84.846 25.824,81.684 C2.412,47.994 0.036,17.219 0.123,5.32 C0.148,1.968 0.367,0.113 0.367,0.113 L7.467,0.587 L19.574,1.396 L32.986,2.751 L65.606,37.778 C65.606,37.778 68.986,70.202 50.706,84.619 C47.774,86.931 44.29,88.779 40.141,89.956 C37.947,90.579 35.565,91.015 32.986,91.232 M2.99,4.457 C2.99,4.457 -1.723,44.214 32.318,86.382 C66.359,83.521 61.646,38.322 61.646,38.322 L32.318,6.83 L20.259,5.611 L2.99,4.457" id="Fill-260" fill="url(#linearGradient-125)" mask="url(#mask-124)"></path>
        </g>
        <path d="M180.935,167.778 L148.316,132.751 L115.697,130.113 C116.619,129.58 116.619,129.58 116.619,129.58 L149.672,132.254 L182.291,167.281 C182.291,167.281 186.667,209.305 158.473,218.936 C185.17,208.441 180.935,167.778 180.935,167.778" id="Fill-263" fill="#FFFFFE"></path>
        <g id="Group-266" transform="translate(117.330000, 134.000000)">
            <mask id="mask-127" fill="white">
                <use xlink:href="#path-126"></use>
            </mask>
            <g id="Clip-265"></g>
            <path d="M30.318,82.382 C-3.723,40.214 0.99,0.457 0.99,0.457 L18.259,1.611 L30.318,2.83 L59.646,34.322 C59.646,34.322 64.359,79.521 30.318,82.382" id="Fill-264" fill="url(#linearGradient-128)" mask="url(#mask-127)"></path>
        </g>
    </g>
</svg>